M48
; DRILL file {KiCad 9.0.4-9.0.4-0~ubuntu24.04.1} date 2025-09-01T10:40:32-0500
; FORMAT={-:-/ absolute / metric / decimal}
; #@! TF.CreationDate,2025-09-01T10:40:32-05:00
; #@! TF.GenerationSoftware,Kicad,Pcbnew,9.0.4-9.0.4-0~ubuntu24.04.1
; #@! TF.FileFunction,Plated,1,4,PTH
FMAT,2
METRIC
; #@! TA.AperFunction,Plated,PTH,ViaDrill
T1C0.300
; #@! TA.AperFunction,Plated,PTH,ComponentDrill
T2C0.800
; #@! TA.AperFunction,Plated,PTH,ComponentDrill
T3C1.000
; #@! TA.AperFunction,Plated,PTH,ComponentDrill
T4C1.100
; #@! TA.AperFunction,Plated,PTH,ComponentDrill
T5C1.300
; #@! TA.AperFunction,Plated,PTH,ComponentDrill
T6C1.320
%
G90
G05
T1
X95.59Y-79.3
X104.29Y-71.91
X105.45Y-112.24
X107.47Y-113.98
X107.85Y-80.76
X108.32Y-126.03
X109.29Y-73.13
X109.35Y-112.24
X111.117Y-78.81
X112.52Y-118.21
X113.76Y-90.97
X116.06Y-127.53
X116.382Y-78.31
X117.6Y-117.35
X117.65Y-125.19
X117.68Y-113.54
X118.54Y-122.65
X118.882Y-80.28
X119.11Y-113.98
X119.6Y-100.7
X120.72Y-75.23
X120.8Y-118.92
X122.53Y-121.27
X122.65Y-126.24
X123.74Y-89.37
X123.77Y-108.83
X123.83Y-99.33
X125.44Y-73.08
X125.5Y-75.8
X126.51Y-115.53
X127.15Y-121.35
X127.26Y-81.45
X128.48Y-125.32
X128.59Y-102.48
X128.64Y-87.52
X128.71Y-97.72
X128.74Y-107.61
X128.74Y-119.68
X129.61Y-111.34
X129.97Y-73.31
X129.98Y-75.8
X130.76Y-89.4
X133.48Y-72.68
X134.32Y-82.61
X135.03Y-109.5
X135.2Y-80.14
X136.09Y-110.44
X136.11Y-112.07
X136.2Y-85.68
X137.01Y-110.42
X137.01Y-112.06
X137.09Y-105.72
X137.11Y-93.87
X137.11Y-103.85
X137.12Y-95.77
X137.71Y-84.08
X138.045Y-80.065
X138.32Y-113.39
X138.33Y-85.67
X139.21Y-111.15
X139.55Y-80.14
X141.26Y-75.78
X141.27Y-93.3
X141.85Y-98.49
X141.85Y-103.85
X142.29Y-83.05
X142.92Y-85.66
X143.13Y-107.25
X143.16Y-105.97
X143.3Y-73.58
X144.23Y-90.04
X144.64Y-72.7
X146.13Y-93.65
X146.23Y-114.95
X147.06Y-99.91
X147.13Y-116.99
X149.17Y-75.8
X150.96Y-105.58
X151.61Y-83.06
X151.82Y-84.6
X154.67Y-84.42
X155.23Y-101.58
X155.24Y-99.67
X156.308Y-117.685
X157.77Y-121.405
X159.01Y-90.71
X159.28Y-78.76
X159.28Y-81.05
X159.49Y-115.77
X160.69Y-113.99
X161.07Y-93.75
X162.51Y-86.01
X162.845Y-106.165
X163.17Y-122.79
X163.18Y-126.17
X163.26Y-93.75
X164.04Y-115.77
X166.15Y-117.58
X166.5Y-89.62
X166.56Y-97.95
X166.86Y-92.16
X167.0Y-95.5
X167.0Y-100.5
X167.06Y-108.65
X167.08Y-113.13
X167.25Y-88.73
X168.827Y-118.285
X169.33Y-101.93
X169.36Y-100.01
X170.39Y-85.82
X170.46Y-88.34
X170.48Y-121.405
X170.89Y-92.11
X172.0Y-96.0
X172.0Y-99.0
X172.35Y-115.77
X174.17Y-114.01
X175.3Y-93.75
X175.63Y-89.53
X175.93Y-126.17
X176.05Y-105.26
X176.88Y-86.08
X177.38Y-115.77
X177.61Y-93.74
X179.11Y-117.59
X180.5Y-108.61
X180.55Y-113.06
X180.71Y-95.87
X180.87Y-100.4
X181.01Y-88.54
X181.01Y-92.15
X182.73Y-100.06
X182.75Y-101.98
X182.89Y-118.03
X182.89Y-122.5
X184.89Y-85.71
X185.06Y-95.85
X185.29Y-91.84
X185.47Y-86.89
X185.52Y-99.02
X185.71Y-115.77
X187.21Y-114.0
X188.51Y-93.74
X188.83Y-83.46
X189.0Y-89.43
X189.15Y-105.26
X190.05Y-85.87
X190.76Y-93.74
X192.52Y-117.59
X193.57Y-113.32
X193.58Y-108.43
X193.96Y-91.43
X194.04Y-88.75
X194.11Y-97.94
X194.12Y-95.86
X196.09Y-95.86
X198.67Y-105.8
X198.695Y-92.575
X200.7Y-98.56
X202.33Y-103.945
T2
X94.835Y-85.445
X97.375Y-85.445
X99.915Y-85.445
T3
X201.62Y-116.82
X201.62Y-124.32
X208.6Y-74.9
X208.6Y-82.4
T4
X106.845Y-84.825
X106.845Y-108.525
X117.005Y-84.825
X117.005Y-108.525
T5
X93.938Y-96.405
X93.938Y-101.405
T6
X98.052Y-113.53
X98.052Y-118.53
X98.052Y-123.53
X139.77Y-121.81
X144.77Y-121.81
X149.77Y-121.81
X159.265Y-76.1
X164.265Y-76.1
X169.265Y-76.1
X209.35Y-91.795
X209.35Y-96.795
X209.5Y-103.945
X209.5Y-108.945
M30
