%TF.GenerationSoftware,KiCad,Pcbnew,9.0.4-9.0.4-0~ubuntu24.04.1*%
%TF.CreationDate,2025-09-01T10:39:58-05:00*%
%TF.ProjectId,amplifier,616d706c-6966-4696-9572-2e6b69636164,rev?*%
%TF.SameCoordinates,Original*%
%TF.FileFunction,Legend,Top*%
%TF.FilePolarity,Positive*%
%FSLAX46Y46*%
G04 Gerber Fmt 4.6, Leading zero omitted, Abs format (unit mm)*
G04 Created by KiCad (PCBNEW 9.0.4-9.0.4-0~ubuntu24.04.1) date 2025-09-01 10:39:58*
%MOMM*%
%LPD*%
G01*
G04 APERTURE LIST*
%ADD10C,0.100000*%
%ADD11C,0.300000*%
%ADD12C,0.200000*%
%ADD13C,0.150000*%
%ADD14C,0.120000*%
G04 APERTURE END LIST*
D10*
X214030074Y-87002419D02*
X213553884Y-87002419D01*
X213553884Y-87002419D02*
X213553884Y-86002419D01*
D11*
X89671671Y-124783796D02*
X89671671Y-124069510D01*
X89671671Y-124069510D02*
X91171671Y-124069510D01*
D10*
X216933884Y-108611466D02*
X217695789Y-108611466D01*
X214365312Y-112992419D02*
X214031979Y-112516228D01*
X213793884Y-112992419D02*
X213793884Y-111992419D01*
X213793884Y-111992419D02*
X214174836Y-111992419D01*
X214174836Y-111992419D02*
X214270074Y-112040038D01*
X214270074Y-112040038D02*
X214317693Y-112087657D01*
X214317693Y-112087657D02*
X214365312Y-112182895D01*
X214365312Y-112182895D02*
X214365312Y-112325752D01*
X214365312Y-112325752D02*
X214317693Y-112420990D01*
X214317693Y-112420990D02*
X214270074Y-112468609D01*
X214270074Y-112468609D02*
X214174836Y-112516228D01*
X214174836Y-112516228D02*
X213793884Y-112516228D01*
D12*
G36*
X154582341Y-101533684D02*
G01*
X154337261Y-101644813D01*
X154080116Y-101724193D01*
X153812771Y-101771545D01*
X153526906Y-101787697D01*
X153114488Y-101757577D01*
X152759183Y-101671969D01*
X152451606Y-101535296D01*
X152184353Y-101348194D01*
X151952456Y-101107480D01*
X151769520Y-100834080D01*
X151620564Y-100509764D01*
X151507689Y-100126343D01*
X151435184Y-99674079D01*
X151409321Y-99141936D01*
X151435214Y-98608077D01*
X151507777Y-98154683D01*
X151620692Y-97770620D01*
X151769630Y-97446058D01*
X151952456Y-97172728D01*
X152184353Y-96932014D01*
X152451606Y-96744912D01*
X152759183Y-96608240D01*
X153114488Y-96522632D01*
X153526906Y-96492512D01*
X153813209Y-96508615D01*
X154083475Y-96556015D01*
X154342480Y-96635785D01*
X154582341Y-96746524D01*
X154582341Y-97860272D01*
X154317502Y-97643340D01*
X154078590Y-97504288D01*
X153829417Y-97419317D01*
X153574839Y-97391325D01*
X153308383Y-97420440D01*
X153086090Y-97503295D01*
X152898298Y-97638640D01*
X152739528Y-97832489D01*
X152626459Y-98053829D01*
X152537999Y-98336635D01*
X152479284Y-98694238D01*
X152457733Y-99141936D01*
X152479246Y-99587543D01*
X152537901Y-99944039D01*
X152626353Y-100226489D01*
X152739528Y-100448025D01*
X152898279Y-100641722D01*
X153086063Y-100776976D01*
X153308362Y-100859784D01*
X153574839Y-100888883D01*
X153829417Y-100860892D01*
X154078590Y-100775921D01*
X154317502Y-100636868D01*
X154582341Y-100419937D01*
X154582341Y-101533684D01*
G37*
D10*
X216833884Y-103551466D02*
X217595789Y-103551466D01*
X217214836Y-103932419D02*
X217214836Y-103170514D01*
D11*
X91100242Y-112345225D02*
X91171671Y-112202368D01*
X91171671Y-112202368D02*
X91171671Y-111988082D01*
X91171671Y-111988082D02*
X91100242Y-111773796D01*
X91100242Y-111773796D02*
X90957385Y-111630939D01*
X90957385Y-111630939D02*
X90814528Y-111559510D01*
X90814528Y-111559510D02*
X90528814Y-111488082D01*
X90528814Y-111488082D02*
X90314528Y-111488082D01*
X90314528Y-111488082D02*
X90028814Y-111559510D01*
X90028814Y-111559510D02*
X89885957Y-111630939D01*
X89885957Y-111630939D02*
X89743100Y-111773796D01*
X89743100Y-111773796D02*
X89671671Y-111988082D01*
X89671671Y-111988082D02*
X89671671Y-112130939D01*
X89671671Y-112130939D02*
X89743100Y-112345225D01*
X89743100Y-112345225D02*
X89814528Y-112416653D01*
X89814528Y-112416653D02*
X90314528Y-112416653D01*
X90314528Y-112416653D02*
X90314528Y-112130939D01*
X89671671Y-113059510D02*
X91171671Y-113059510D01*
X91171671Y-113059510D02*
X89671671Y-113916653D01*
X89671671Y-113916653D02*
X91171671Y-113916653D01*
X89671671Y-114630939D02*
X91171671Y-114630939D01*
X91171671Y-114630939D02*
X91171671Y-114988082D01*
X91171671Y-114988082D02*
X91100242Y-115202368D01*
X91100242Y-115202368D02*
X90957385Y-115345225D01*
X90957385Y-115345225D02*
X90814528Y-115416654D01*
X90814528Y-115416654D02*
X90528814Y-115488082D01*
X90528814Y-115488082D02*
X90314528Y-115488082D01*
X90314528Y-115488082D02*
X90028814Y-115416654D01*
X90028814Y-115416654D02*
X89885957Y-115345225D01*
X89885957Y-115345225D02*
X89743100Y-115202368D01*
X89743100Y-115202368D02*
X89671671Y-114988082D01*
X89671671Y-114988082D02*
X89671671Y-114630939D01*
X135495489Y-126999171D02*
X135495489Y-125499171D01*
X135495489Y-126927742D02*
X135352632Y-126999171D01*
X135352632Y-126999171D02*
X135066917Y-126999171D01*
X135066917Y-126999171D02*
X134924060Y-126927742D01*
X134924060Y-126927742D02*
X134852632Y-126856314D01*
X134852632Y-126856314D02*
X134781203Y-126713457D01*
X134781203Y-126713457D02*
X134781203Y-126284885D01*
X134781203Y-126284885D02*
X134852632Y-126142028D01*
X134852632Y-126142028D02*
X134924060Y-126070600D01*
X134924060Y-126070600D02*
X135066917Y-125999171D01*
X135066917Y-125999171D02*
X135352632Y-125999171D01*
X135352632Y-125999171D02*
X135495489Y-126070600D01*
X133924060Y-125999171D02*
X134066917Y-126070600D01*
X134066917Y-126070600D02*
X134138346Y-126142028D01*
X134138346Y-126142028D02*
X134209774Y-126284885D01*
X134209774Y-126284885D02*
X134209774Y-126713457D01*
X134209774Y-126713457D02*
X134138346Y-126856314D01*
X134138346Y-126856314D02*
X134066917Y-126927742D01*
X134066917Y-126927742D02*
X133924060Y-126999171D01*
X133924060Y-126999171D02*
X133709774Y-126999171D01*
X133709774Y-126999171D02*
X133566917Y-126927742D01*
X133566917Y-126927742D02*
X133495489Y-126856314D01*
X133495489Y-126856314D02*
X133424060Y-126713457D01*
X133424060Y-126713457D02*
X133424060Y-126284885D01*
X133424060Y-126284885D02*
X133495489Y-126142028D01*
X133495489Y-126142028D02*
X133566917Y-126070600D01*
X133566917Y-126070600D02*
X133709774Y-125999171D01*
X133709774Y-125999171D02*
X133924060Y-125999171D01*
X132995488Y-126999171D02*
X132424060Y-126999171D01*
X132781203Y-127499171D02*
X132781203Y-126213457D01*
X132781203Y-126213457D02*
X132709774Y-126070600D01*
X132709774Y-126070600D02*
X132566917Y-125999171D01*
X132566917Y-125999171D02*
X132424060Y-125999171D01*
X89671671Y-119086653D02*
X90385957Y-118586653D01*
X89671671Y-118229510D02*
X91171671Y-118229510D01*
X91171671Y-118229510D02*
X91171671Y-118800939D01*
X91171671Y-118800939D02*
X91100242Y-118943796D01*
X91100242Y-118943796D02*
X91028814Y-119015225D01*
X91028814Y-119015225D02*
X90885957Y-119086653D01*
X90885957Y-119086653D02*
X90671671Y-119086653D01*
X90671671Y-119086653D02*
X90528814Y-119015225D01*
X90528814Y-119015225D02*
X90457385Y-118943796D01*
X90457385Y-118943796D02*
X90385957Y-118800939D01*
X90385957Y-118800939D02*
X90385957Y-118229510D01*
D10*
X216913884Y-96461466D02*
X217675789Y-96461466D01*
X216803884Y-91321466D02*
X217565789Y-91321466D01*
X217184836Y-91702419D02*
X217184836Y-90940514D01*
D11*
X151674510Y-71120828D02*
X151674510Y-72620828D01*
X151674510Y-71192257D02*
X151817368Y-71120828D01*
X151817368Y-71120828D02*
X152103082Y-71120828D01*
X152103082Y-71120828D02*
X152245939Y-71192257D01*
X152245939Y-71192257D02*
X152317368Y-71263685D01*
X152317368Y-71263685D02*
X152388796Y-71406542D01*
X152388796Y-71406542D02*
X152388796Y-71835114D01*
X152388796Y-71835114D02*
X152317368Y-71977971D01*
X152317368Y-71977971D02*
X152245939Y-72049400D01*
X152245939Y-72049400D02*
X152103082Y-72120828D01*
X152103082Y-72120828D02*
X151817368Y-72120828D01*
X151817368Y-72120828D02*
X151674510Y-72049400D01*
X153245939Y-72120828D02*
X153103082Y-72049400D01*
X153103082Y-72049400D02*
X153031653Y-71977971D01*
X153031653Y-71977971D02*
X152960225Y-71835114D01*
X152960225Y-71835114D02*
X152960225Y-71406542D01*
X152960225Y-71406542D02*
X153031653Y-71263685D01*
X153031653Y-71263685D02*
X153103082Y-71192257D01*
X153103082Y-71192257D02*
X153245939Y-71120828D01*
X153245939Y-71120828D02*
X153460225Y-71120828D01*
X153460225Y-71120828D02*
X153603082Y-71192257D01*
X153603082Y-71192257D02*
X153674511Y-71263685D01*
X153674511Y-71263685D02*
X153745939Y-71406542D01*
X153745939Y-71406542D02*
X153745939Y-71835114D01*
X153745939Y-71835114D02*
X153674511Y-71977971D01*
X153674511Y-71977971D02*
X153603082Y-72049400D01*
X153603082Y-72049400D02*
X153460225Y-72120828D01*
X153460225Y-72120828D02*
X153245939Y-72120828D01*
X154174511Y-71120828D02*
X154745939Y-71120828D01*
X154388796Y-70620828D02*
X154388796Y-71906542D01*
X154388796Y-71906542D02*
X154460225Y-72049400D01*
X154460225Y-72049400D02*
X154603082Y-72120828D01*
X154603082Y-72120828D02*
X154745939Y-72120828D01*
D10*
X91991027Y-105342419D02*
X92324360Y-106342419D01*
X92324360Y-106342419D02*
X92657693Y-105342419D01*
X93562455Y-106247180D02*
X93514836Y-106294800D01*
X93514836Y-106294800D02*
X93371979Y-106342419D01*
X93371979Y-106342419D02*
X93276741Y-106342419D01*
X93276741Y-106342419D02*
X93133884Y-106294800D01*
X93133884Y-106294800D02*
X93038646Y-106199561D01*
X93038646Y-106199561D02*
X92991027Y-106104323D01*
X92991027Y-106104323D02*
X92943408Y-105913847D01*
X92943408Y-105913847D02*
X92943408Y-105770990D01*
X92943408Y-105770990D02*
X92991027Y-105580514D01*
X92991027Y-105580514D02*
X93038646Y-105485276D01*
X93038646Y-105485276D02*
X93133884Y-105390038D01*
X93133884Y-105390038D02*
X93276741Y-105342419D01*
X93276741Y-105342419D02*
X93371979Y-105342419D01*
X93371979Y-105342419D02*
X93514836Y-105390038D01*
X93514836Y-105390038D02*
X93562455Y-105437657D01*
X94562455Y-106247180D02*
X94514836Y-106294800D01*
X94514836Y-106294800D02*
X94371979Y-106342419D01*
X94371979Y-106342419D02*
X94276741Y-106342419D01*
X94276741Y-106342419D02*
X94133884Y-106294800D01*
X94133884Y-106294800D02*
X94038646Y-106199561D01*
X94038646Y-106199561D02*
X93991027Y-106104323D01*
X93991027Y-106104323D02*
X93943408Y-105913847D01*
X93943408Y-105913847D02*
X93943408Y-105770990D01*
X93943408Y-105770990D02*
X93991027Y-105580514D01*
X93991027Y-105580514D02*
X94038646Y-105485276D01*
X94038646Y-105485276D02*
X94133884Y-105390038D01*
X94133884Y-105390038D02*
X94276741Y-105342419D01*
X94276741Y-105342419D02*
X94371979Y-105342419D01*
X94371979Y-105342419D02*
X94514836Y-105390038D01*
X94514836Y-105390038D02*
X94562455Y-105437657D01*
X92765193Y-91240038D02*
X92669955Y-91192419D01*
X92669955Y-91192419D02*
X92527098Y-91192419D01*
X92527098Y-91192419D02*
X92384241Y-91240038D01*
X92384241Y-91240038D02*
X92289003Y-91335276D01*
X92289003Y-91335276D02*
X92241384Y-91430514D01*
X92241384Y-91430514D02*
X92193765Y-91620990D01*
X92193765Y-91620990D02*
X92193765Y-91763847D01*
X92193765Y-91763847D02*
X92241384Y-91954323D01*
X92241384Y-91954323D02*
X92289003Y-92049561D01*
X92289003Y-92049561D02*
X92384241Y-92144800D01*
X92384241Y-92144800D02*
X92527098Y-92192419D01*
X92527098Y-92192419D02*
X92622336Y-92192419D01*
X92622336Y-92192419D02*
X92765193Y-92144800D01*
X92765193Y-92144800D02*
X92812812Y-92097180D01*
X92812812Y-92097180D02*
X92812812Y-91763847D01*
X92812812Y-91763847D02*
X92622336Y-91763847D01*
X93241384Y-92192419D02*
X93241384Y-91192419D01*
X93241384Y-91192419D02*
X93812812Y-92192419D01*
X93812812Y-92192419D02*
X93812812Y-91192419D01*
X94289003Y-92192419D02*
X94289003Y-91192419D01*
X94289003Y-91192419D02*
X94527098Y-91192419D01*
X94527098Y-91192419D02*
X94669955Y-91240038D01*
X94669955Y-91240038D02*
X94765193Y-91335276D01*
X94765193Y-91335276D02*
X94812812Y-91430514D01*
X94812812Y-91430514D02*
X94860431Y-91620990D01*
X94860431Y-91620990D02*
X94860431Y-91763847D01*
X94860431Y-91763847D02*
X94812812Y-91954323D01*
X94812812Y-91954323D02*
X94765193Y-92049561D01*
X94765193Y-92049561D02*
X94669955Y-92144800D01*
X94669955Y-92144800D02*
X94527098Y-92192419D01*
X94527098Y-92192419D02*
X94289003Y-92192419D01*
D13*
X211739580Y-79819047D02*
X211787200Y-79866666D01*
X211787200Y-79866666D02*
X211834819Y-80009523D01*
X211834819Y-80009523D02*
X211834819Y-80104761D01*
X211834819Y-80104761D02*
X211787200Y-80247618D01*
X211787200Y-80247618D02*
X211691961Y-80342856D01*
X211691961Y-80342856D02*
X211596723Y-80390475D01*
X211596723Y-80390475D02*
X211406247Y-80438094D01*
X211406247Y-80438094D02*
X211263390Y-80438094D01*
X211263390Y-80438094D02*
X211072914Y-80390475D01*
X211072914Y-80390475D02*
X210977676Y-80342856D01*
X210977676Y-80342856D02*
X210882438Y-80247618D01*
X210882438Y-80247618D02*
X210834819Y-80104761D01*
X210834819Y-80104761D02*
X210834819Y-80009523D01*
X210834819Y-80009523D02*
X210882438Y-79866666D01*
X210882438Y-79866666D02*
X210930057Y-79819047D01*
X210834819Y-79485713D02*
X210834819Y-78819047D01*
X210834819Y-78819047D02*
X211834819Y-79247618D01*
X210834819Y-78247618D02*
X210834819Y-78152380D01*
X210834819Y-78152380D02*
X210882438Y-78057142D01*
X210882438Y-78057142D02*
X210930057Y-78009523D01*
X210930057Y-78009523D02*
X211025295Y-77961904D01*
X211025295Y-77961904D02*
X211215771Y-77914285D01*
X211215771Y-77914285D02*
X211453866Y-77914285D01*
X211453866Y-77914285D02*
X211644342Y-77961904D01*
X211644342Y-77961904D02*
X211739580Y-78009523D01*
X211739580Y-78009523D02*
X211787200Y-78057142D01*
X211787200Y-78057142D02*
X211834819Y-78152380D01*
X211834819Y-78152380D02*
X211834819Y-78247618D01*
X211834819Y-78247618D02*
X211787200Y-78342856D01*
X211787200Y-78342856D02*
X211739580Y-78390475D01*
X211739580Y-78390475D02*
X211644342Y-78438094D01*
X211644342Y-78438094D02*
X211453866Y-78485713D01*
X211453866Y-78485713D02*
X211215771Y-78485713D01*
X211215771Y-78485713D02*
X211025295Y-78438094D01*
X211025295Y-78438094D02*
X210930057Y-78390475D01*
X210930057Y-78390475D02*
X210882438Y-78342856D01*
X210882438Y-78342856D02*
X210834819Y-78247618D01*
X210834819Y-77009523D02*
X210834819Y-77485713D01*
X210834819Y-77485713D02*
X211311009Y-77533332D01*
X211311009Y-77533332D02*
X211263390Y-77485713D01*
X211263390Y-77485713D02*
X211215771Y-77390475D01*
X211215771Y-77390475D02*
X211215771Y-77152380D01*
X211215771Y-77152380D02*
X211263390Y-77057142D01*
X211263390Y-77057142D02*
X211311009Y-77009523D01*
X211311009Y-77009523D02*
X211406247Y-76961904D01*
X211406247Y-76961904D02*
X211644342Y-76961904D01*
X211644342Y-76961904D02*
X211739580Y-77009523D01*
X211739580Y-77009523D02*
X211787200Y-77057142D01*
X211787200Y-77057142D02*
X211834819Y-77152380D01*
X211834819Y-77152380D02*
X211834819Y-77390475D01*
X211834819Y-77390475D02*
X211787200Y-77485713D01*
X211787200Y-77485713D02*
X211739580Y-77533332D01*
X199489580Y-121839047D02*
X199537200Y-121886666D01*
X199537200Y-121886666D02*
X199584819Y-122029523D01*
X199584819Y-122029523D02*
X199584819Y-122124761D01*
X199584819Y-122124761D02*
X199537200Y-122267618D01*
X199537200Y-122267618D02*
X199441961Y-122362856D01*
X199441961Y-122362856D02*
X199346723Y-122410475D01*
X199346723Y-122410475D02*
X199156247Y-122458094D01*
X199156247Y-122458094D02*
X199013390Y-122458094D01*
X199013390Y-122458094D02*
X198822914Y-122410475D01*
X198822914Y-122410475D02*
X198727676Y-122362856D01*
X198727676Y-122362856D02*
X198632438Y-122267618D01*
X198632438Y-122267618D02*
X198584819Y-122124761D01*
X198584819Y-122124761D02*
X198584819Y-122029523D01*
X198584819Y-122029523D02*
X198632438Y-121886666D01*
X198632438Y-121886666D02*
X198680057Y-121839047D01*
X198584819Y-121505713D02*
X198584819Y-120839047D01*
X198584819Y-120839047D02*
X199584819Y-121267618D01*
X198584819Y-120267618D02*
X198584819Y-120172380D01*
X198584819Y-120172380D02*
X198632438Y-120077142D01*
X198632438Y-120077142D02*
X198680057Y-120029523D01*
X198680057Y-120029523D02*
X198775295Y-119981904D01*
X198775295Y-119981904D02*
X198965771Y-119934285D01*
X198965771Y-119934285D02*
X199203866Y-119934285D01*
X199203866Y-119934285D02*
X199394342Y-119981904D01*
X199394342Y-119981904D02*
X199489580Y-120029523D01*
X199489580Y-120029523D02*
X199537200Y-120077142D01*
X199537200Y-120077142D02*
X199584819Y-120172380D01*
X199584819Y-120172380D02*
X199584819Y-120267618D01*
X199584819Y-120267618D02*
X199537200Y-120362856D01*
X199537200Y-120362856D02*
X199489580Y-120410475D01*
X199489580Y-120410475D02*
X199394342Y-120458094D01*
X199394342Y-120458094D02*
X199203866Y-120505713D01*
X199203866Y-120505713D02*
X198965771Y-120505713D01*
X198965771Y-120505713D02*
X198775295Y-120458094D01*
X198775295Y-120458094D02*
X198680057Y-120410475D01*
X198680057Y-120410475D02*
X198632438Y-120362856D01*
X198632438Y-120362856D02*
X198584819Y-120267618D01*
X198584819Y-119077142D02*
X198584819Y-119267618D01*
X198584819Y-119267618D02*
X198632438Y-119362856D01*
X198632438Y-119362856D02*
X198680057Y-119410475D01*
X198680057Y-119410475D02*
X198822914Y-119505713D01*
X198822914Y-119505713D02*
X199013390Y-119553332D01*
X199013390Y-119553332D02*
X199394342Y-119553332D01*
X199394342Y-119553332D02*
X199489580Y-119505713D01*
X199489580Y-119505713D02*
X199537200Y-119458094D01*
X199537200Y-119458094D02*
X199584819Y-119362856D01*
X199584819Y-119362856D02*
X199584819Y-119172380D01*
X199584819Y-119172380D02*
X199537200Y-119077142D01*
X199537200Y-119077142D02*
X199489580Y-119029523D01*
X199489580Y-119029523D02*
X199394342Y-118981904D01*
X199394342Y-118981904D02*
X199156247Y-118981904D01*
X199156247Y-118981904D02*
X199061009Y-119029523D01*
X199061009Y-119029523D02*
X199013390Y-119077142D01*
X199013390Y-119077142D02*
X198965771Y-119172380D01*
X198965771Y-119172380D02*
X198965771Y-119362856D01*
X198965771Y-119362856D02*
X199013390Y-119458094D01*
X199013390Y-119458094D02*
X199061009Y-119505713D01*
X199061009Y-119505713D02*
X199156247Y-119553332D01*
X106583095Y-106879819D02*
X106583095Y-105879819D01*
X107154523Y-106879819D02*
X106725952Y-106308390D01*
X107154523Y-105879819D02*
X106583095Y-106451247D01*
X104513095Y-85449819D02*
X104513095Y-84449819D01*
X105084523Y-85449819D02*
X104655952Y-84878390D01*
X105084523Y-84449819D02*
X104513095Y-85021247D01*
D14*
%TO.C,R502*%
X134505000Y-73357936D02*
X134505000Y-73812064D01*
X135975000Y-73357936D02*
X135975000Y-73812064D01*
%TO.C,R501*%
X139077064Y-71765000D02*
X138622936Y-71765000D01*
X139077064Y-73235000D02*
X138622936Y-73235000D01*
%TO.C,R307*%
X109459564Y-126795000D02*
X109005436Y-126795000D01*
X109459564Y-128265000D02*
X109005436Y-128265000D01*
%TO.C,U402*%
X129680000Y-103150000D02*
X127730000Y-103150000D01*
X129680000Y-103150000D02*
X131630000Y-103150000D01*
X129680000Y-108270000D02*
X127730000Y-108270000D01*
X129680000Y-108270000D02*
X131630000Y-108270000D01*
X126980000Y-103245000D02*
X126740000Y-102915000D01*
X127220000Y-102915000D01*
X126980000Y-103245000D01*
G36*
X126980000Y-103245000D02*
G01*
X126740000Y-102915000D01*
X127220000Y-102915000D01*
X126980000Y-103245000D01*
G37*
%TO.C,R305*%
X113772064Y-126795000D02*
X113317936Y-126795000D01*
X113772064Y-128265000D02*
X113317936Y-128265000D01*
%TO.C,C402*%
X123025000Y-91971252D02*
X123025000Y-91448748D01*
X124495000Y-91971252D02*
X124495000Y-91448748D01*
%TO.C,U701*%
X129480000Y-83090000D02*
X127530000Y-83090000D01*
X129480000Y-83090000D02*
X131430000Y-83090000D01*
X129480000Y-88210000D02*
X127530000Y-88210000D01*
X129480000Y-88210000D02*
X131430000Y-88210000D01*
X126780000Y-83185000D02*
X126540000Y-82855000D01*
X127020000Y-82855000D01*
X126780000Y-83185000D01*
G36*
X126780000Y-83185000D02*
G01*
X126540000Y-82855000D01*
X127020000Y-82855000D01*
X126780000Y-83185000D01*
G37*
%TO.C,C804*%
X170285000Y-101241252D02*
X170285000Y-100718748D01*
X171755000Y-101241252D02*
X171755000Y-100718748D01*
%TO.C,R508*%
X152147500Y-86772936D02*
X152147500Y-87227064D01*
X153617500Y-86772936D02*
X153617500Y-87227064D01*
%TO.C,U602*%
X142235000Y-105325000D02*
X140285000Y-105325000D01*
X142235000Y-105325000D02*
X144185000Y-105325000D01*
X142235000Y-110445000D02*
X140285000Y-110445000D01*
X142235000Y-110445000D02*
X144185000Y-110445000D01*
X139535000Y-105420000D02*
X139295000Y-105090000D01*
X139775000Y-105090000D01*
X139535000Y-105420000D01*
G36*
X139535000Y-105420000D02*
G01*
X139295000Y-105090000D01*
X139775000Y-105090000D01*
X139535000Y-105420000D01*
G37*
%TO.C,R905*%
X177199564Y-106965000D02*
X176745436Y-106965000D01*
X177199564Y-108435000D02*
X176745436Y-108435000D01*
%TO.C,C601*%
X133815000Y-122828748D02*
X133815000Y-123351252D01*
X135285000Y-122828748D02*
X135285000Y-123351252D01*
%TO.C,J701*%
X203050000Y-88595000D02*
X203050000Y-99445000D01*
X203050000Y-99445000D02*
X215650000Y-99445000D01*
X207850000Y-89095000D02*
X208150000Y-88595000D01*
X208150000Y-88595000D02*
X203050000Y-88595000D01*
X213000000Y-88595000D02*
X213250000Y-89095000D01*
X213050000Y-88595000D02*
X213000000Y-88595000D01*
X213250000Y-89095000D02*
X207850000Y-89095000D01*
X214700000Y-89095000D02*
X214950000Y-88595000D01*
X214950000Y-88595000D02*
X213050000Y-88595000D01*
X215650000Y-89095000D02*
X214700000Y-89095000D01*
X215650000Y-99445000D02*
X215650000Y-89095000D01*
%TO.C,R704*%
X146335000Y-96652936D02*
X146335000Y-97107064D01*
X147805000Y-96652936D02*
X147805000Y-97107064D01*
%TO.C,R302*%
X127462936Y-75070000D02*
X127917064Y-75070000D01*
X127462936Y-76540000D02*
X127917064Y-76540000D01*
%TO.C,D401*%
X105847500Y-114715000D02*
X105847500Y-115935000D01*
X105847500Y-115935000D02*
X107662500Y-115935000D01*
X107662500Y-114715000D02*
X105847500Y-114715000D01*
%TO.C,R701*%
X123055000Y-82954564D02*
X123055000Y-82500436D01*
X124525000Y-82954564D02*
X124525000Y-82500436D01*
%TO.C,R901*%
X159290436Y-106935000D02*
X159744564Y-106935000D01*
X159290436Y-108405000D02*
X159744564Y-108405000D01*
%TO.C,R406*%
X120185000Y-101387936D02*
X120185000Y-101842064D01*
X121655000Y-101387936D02*
X121655000Y-101842064D01*
%TO.C,R811*%
X191892064Y-91115000D02*
X191437936Y-91115000D01*
X191892064Y-92585000D02*
X191437936Y-92585000D01*
%TO.C,R706*%
X138425000Y-101452936D02*
X138425000Y-101907064D01*
X139895000Y-101452936D02*
X139895000Y-101907064D01*
%TO.C,R611*%
X147225000Y-112762936D02*
X147225000Y-113217064D01*
X148695000Y-112762936D02*
X148695000Y-113217064D01*
%TO.C,R303*%
X112257064Y-79545000D02*
X111802936Y-79545000D01*
X112257064Y-81015000D02*
X111802936Y-81015000D01*
%TO.C,R709*%
X199725000Y-108667936D02*
X199725000Y-109122064D01*
X201195000Y-108667936D02*
X201195000Y-109122064D01*
%TO.C,C607*%
X148386248Y-104837500D02*
X148908752Y-104837500D01*
X148386248Y-106307500D02*
X148908752Y-106307500D01*
%TO.C,C501*%
X172675000Y-77341252D02*
X172675000Y-76818748D01*
X174145000Y-77341252D02*
X174145000Y-76818748D01*
%TO.C,C203*%
X115395000Y-90206252D02*
X115395000Y-88783748D01*
X118115000Y-90206252D02*
X118115000Y-88783748D01*
%TO.C,U201*%
X107080000Y-93500000D02*
X107080000Y-95310000D01*
X107080000Y-103900000D02*
X107080000Y-102090000D01*
X108445000Y-93500000D02*
X107080000Y-93500000D01*
X108445000Y-103900000D02*
X107080000Y-103900000D01*
X104255000Y-95350000D02*
X103915000Y-94880000D01*
X104595000Y-94880000D01*
X104255000Y-95350000D01*
G36*
X104255000Y-95350000D02*
G01*
X103915000Y-94880000D01*
X104595000Y-94880000D01*
X104255000Y-95350000D01*
G37*
%TO.C,R401*%
X127412936Y-90205000D02*
X127867064Y-90205000D01*
X127412936Y-91675000D02*
X127867064Y-91675000D01*
%TO.C,C201*%
X102413748Y-107790000D02*
X102936252Y-107790000D01*
X102413748Y-109260000D02*
X102936252Y-109260000D01*
%TO.C,C301*%
X110497500Y-72290000D02*
X110497500Y-73990000D01*
X110497500Y-77810000D02*
X110497500Y-76110000D01*
X114953063Y-72290000D02*
X110497500Y-72290000D01*
X114953063Y-77810000D02*
X110497500Y-77810000D01*
X116017500Y-73354437D02*
X114953063Y-72290000D01*
X116017500Y-73354437D02*
X116017500Y-73990000D01*
X116017500Y-76745563D02*
X114953063Y-77810000D01*
X116017500Y-76745563D02*
X116017500Y-76110000D01*
%TO.C,U804*%
X176405000Y-97665000D02*
X174455000Y-97665000D01*
X176405000Y-97665000D02*
X178355000Y-97665000D01*
X176405000Y-102785000D02*
X174455000Y-102785000D01*
X176405000Y-102785000D02*
X178355000Y-102785000D01*
X179345000Y-103020000D02*
X178865000Y-103020000D01*
X179105000Y-102690000D01*
X179345000Y-103020000D01*
G36*
X179345000Y-103020000D02*
G01*
X178865000Y-103020000D01*
X179105000Y-102690000D01*
X179345000Y-103020000D01*
G37*
%TO.C,C801*%
X167898748Y-85075000D02*
X168421252Y-85075000D01*
X167898748Y-86545000D02*
X168421252Y-86545000D01*
%TO.C,R506*%
X155365000Y-91032936D02*
X155365000Y-91487064D01*
X156835000Y-91032936D02*
X156835000Y-91487064D01*
%TO.C,U806*%
X189605000Y-97715000D02*
X187655000Y-97715000D01*
X189605000Y-97715000D02*
X191555000Y-97715000D01*
X189605000Y-102835000D02*
X187655000Y-102835000D01*
X189605000Y-102835000D02*
X191555000Y-102835000D01*
X192545000Y-103070000D02*
X192065000Y-103070000D01*
X192305000Y-102740000D01*
X192545000Y-103070000D01*
G36*
X192545000Y-103070000D02*
G01*
X192065000Y-103070000D01*
X192305000Y-102740000D01*
X192545000Y-103070000D01*
G37*
%TO.C,R703*%
X123055000Y-86400436D02*
X123055000Y-86854564D01*
X124525000Y-86400436D02*
X124525000Y-86854564D01*
%TO.C,R605*%
X124215000Y-116192936D02*
X124215000Y-116647064D01*
X125685000Y-116192936D02*
X125685000Y-116647064D01*
%TO.C,C503*%
X131257500Y-77538748D02*
X131257500Y-78061252D01*
X132727500Y-77538748D02*
X132727500Y-78061252D01*
%TO.C,C705*%
X216720000Y-78650000D02*
G75*
G02*
X200480000Y-78650000I-8120000J0D01*
G01*
X200480000Y-78650000D02*
G75*
G02*
X216720000Y-78650000I8120000J0D01*
G01*
%TO.C,C606*%
X120075000Y-111051252D02*
X120075000Y-110528748D01*
X121545000Y-111051252D02*
X121545000Y-110528748D01*
%TO.C,R503*%
X134505000Y-77552936D02*
X134505000Y-78007064D01*
X135975000Y-77552936D02*
X135975000Y-78007064D01*
%TO.C,R604*%
X111380436Y-111495000D02*
X111834564Y-111495000D01*
X111380436Y-112965000D02*
X111834564Y-112965000D01*
%TO.C,D403*%
X107220000Y-78425000D02*
X107220000Y-80240000D01*
X108440000Y-78425000D02*
X107220000Y-78425000D01*
X108440000Y-80240000D02*
X108440000Y-78425000D01*
%TO.C,C805*%
X191401252Y-82725000D02*
X190878748Y-82725000D01*
X191401252Y-84195000D02*
X190878748Y-84195000D01*
%TO.C,C506*%
X138338748Y-80815000D02*
X138861252Y-80815000D01*
X138338748Y-82285000D02*
X138861252Y-82285000D01*
%TO.C,R801*%
X159877936Y-91455000D02*
X160332064Y-91455000D01*
X159877936Y-92925000D02*
X160332064Y-92925000D01*
%TO.C,R606*%
X133580000Y-112477064D02*
X133580000Y-112022936D01*
X135050000Y-112477064D02*
X135050000Y-112022936D01*
%TO.C,R911*%
X172525436Y-123530000D02*
X172979564Y-123530000D01*
X172525436Y-125000000D02*
X172979564Y-125000000D01*
%TO.C,C603*%
X127346667Y-112531252D02*
X127346667Y-112008748D01*
X128816667Y-112531252D02*
X128816667Y-112008748D01*
%TO.C,C806*%
X183505000Y-101281252D02*
X183505000Y-100758748D01*
X184975000Y-101281252D02*
X184975000Y-100758748D01*
%TO.C,C403*%
X120225000Y-96391248D02*
X120225000Y-96913752D01*
X121695000Y-96391248D02*
X121695000Y-96913752D01*
%TO.C,R904*%
X163984564Y-106935000D02*
X163530436Y-106935000D01*
X163984564Y-108405000D02*
X163530436Y-108405000D01*
%TO.C,R603*%
X124230000Y-112477064D02*
X124230000Y-112022936D01*
X125700000Y-112477064D02*
X125700000Y-112022936D01*
%TO.C,J403*%
X91752500Y-110880000D02*
X91752500Y-126280000D01*
X91752500Y-126280000D02*
X92702500Y-126280000D01*
X92402500Y-126780000D02*
X94402500Y-126780000D01*
X92702500Y-126280000D02*
X92402500Y-126780000D01*
X94152500Y-126280000D02*
X99552500Y-126280000D01*
X94402500Y-126780000D02*
X94152500Y-126280000D01*
X99302500Y-126780000D02*
X104352500Y-126780000D01*
X99552500Y-126280000D02*
X99302500Y-126780000D01*
X104352500Y-110880000D02*
X91752500Y-110880000D01*
X104352500Y-126780000D02*
X104352500Y-110880000D01*
%TO.C,C906*%
X182157500Y-120506252D02*
X182157500Y-119983748D01*
X183627500Y-120506252D02*
X183627500Y-119983748D01*
%TO.C,U301*%
X121227500Y-73285000D02*
X119277500Y-73285000D01*
X121227500Y-73285000D02*
X123177500Y-73285000D01*
X121227500Y-78405000D02*
X119277500Y-78405000D01*
X121227500Y-78405000D02*
X123177500Y-78405000D01*
X118527500Y-73380000D02*
X118287500Y-73050000D01*
X118767500Y-73050000D01*
X118527500Y-73380000D01*
G36*
X118527500Y-73380000D02*
G01*
X118287500Y-73050000D01*
X118767500Y-73050000D01*
X118527500Y-73380000D01*
G37*
%TO.C,C905*%
X168095000Y-120721252D02*
X168095000Y-120198748D01*
X169565000Y-120721252D02*
X169565000Y-120198748D01*
%TO.C,C803*%
X182178748Y-85005000D02*
X182701252Y-85005000D01*
X182178748Y-86475000D02*
X182701252Y-86475000D01*
%TO.C,R201*%
X111194564Y-87410000D02*
X110740436Y-87410000D01*
X111194564Y-88880000D02*
X110740436Y-88880000D01*
%TO.C,U802*%
X162177500Y-97300000D02*
X160227500Y-97300000D01*
X162177500Y-97300000D02*
X164127500Y-97300000D01*
X162177500Y-102420000D02*
X160227500Y-102420000D01*
X162177500Y-102420000D02*
X164127500Y-102420000D01*
X165117500Y-102655000D02*
X164637500Y-102655000D01*
X164877500Y-102325000D01*
X165117500Y-102655000D01*
G36*
X165117500Y-102655000D02*
G01*
X164637500Y-102655000D01*
X164877500Y-102325000D01*
X165117500Y-102655000D01*
G37*
%TO.C,C902*%
X179782500Y-110703748D02*
X179782500Y-111226252D01*
X181252500Y-110703748D02*
X181252500Y-111226252D01*
%TO.C,C202*%
X111238752Y-90080000D02*
X110716248Y-90080000D01*
X111238752Y-91550000D02*
X110716248Y-91550000D01*
%TO.C,C404*%
X120185000Y-106338748D02*
X120185000Y-106861252D01*
X121655000Y-106338748D02*
X121655000Y-106861252D01*
%TO.C,R512*%
X140132936Y-87840000D02*
X140587064Y-87840000D01*
X140132936Y-89310000D02*
X140587064Y-89310000D01*
%TO.C,U702*%
X141950000Y-94025000D02*
X140000000Y-94025000D01*
X141950000Y-94025000D02*
X143900000Y-94025000D01*
X141950000Y-99145000D02*
X140000000Y-99145000D01*
X141950000Y-99145000D02*
X143900000Y-99145000D01*
X144890000Y-99380000D02*
X144410000Y-99380000D01*
X144650000Y-99050000D01*
X144890000Y-99380000D01*
G36*
X144890000Y-99380000D02*
G01*
X144410000Y-99380000D01*
X144650000Y-99050000D01*
X144890000Y-99380000D01*
G37*
%TO.C,R909*%
X190482064Y-123530000D02*
X190027936Y-123530000D01*
X190482064Y-125000000D02*
X190027936Y-125000000D01*
%TO.C,R906*%
X190299564Y-106985000D02*
X189845436Y-106985000D01*
X190299564Y-108455000D02*
X189845436Y-108455000D01*
%TO.C,R608*%
X133580000Y-116647064D02*
X133580000Y-116192936D01*
X135050000Y-116647064D02*
X135050000Y-116192936D01*
%TO.C,U502*%
X147335000Y-83735000D02*
X145385000Y-83735000D01*
X147335000Y-83735000D02*
X149285000Y-83735000D01*
X147335000Y-88855000D02*
X145385000Y-88855000D01*
X147335000Y-88855000D02*
X149285000Y-88855000D01*
X150275000Y-89090000D02*
X149795000Y-89090000D01*
X150035000Y-88760000D01*
X150275000Y-89090000D01*
G36*
X150275000Y-89090000D02*
G01*
X149795000Y-89090000D01*
X150035000Y-88760000D01*
X150275000Y-89090000D01*
G37*
%TO.C,R504*%
X145510000Y-79487064D02*
X145510000Y-79032936D01*
X146980000Y-79487064D02*
X146980000Y-79032936D01*
%TO.C,R707*%
X199965000Y-91889564D02*
X199965000Y-91435436D01*
X201435000Y-91889564D02*
X201435000Y-91435436D01*
%TO.C,U905*%
X174830000Y-116940000D02*
X172880000Y-116940000D01*
X174830000Y-116940000D02*
X176780000Y-116940000D01*
X174830000Y-122060000D02*
X172880000Y-122060000D01*
X174830000Y-122060000D02*
X176780000Y-122060000D01*
X177770000Y-122295000D02*
X177290000Y-122295000D01*
X177530000Y-121965000D01*
X177770000Y-122295000D01*
G36*
X177770000Y-122295000D02*
G01*
X177290000Y-122295000D01*
X177530000Y-121965000D01*
X177770000Y-122295000D01*
G37*
%TO.C,C406*%
X123080000Y-101896252D02*
X123080000Y-101373748D01*
X124550000Y-101896252D02*
X124550000Y-101373748D01*
%TO.C,C704*%
X141130000Y-101438748D02*
X141130000Y-101961252D01*
X142600000Y-101438748D02*
X142600000Y-101961252D01*
%TO.C,R710*%
X199715000Y-105097064D02*
X199715000Y-104642936D01*
X201185000Y-105097064D02*
X201185000Y-104642936D01*
%TO.C,C706*%
X209740000Y-120570000D02*
G75*
G02*
X193500000Y-120570000I-8120000J0D01*
G01*
X193500000Y-120570000D02*
G75*
G02*
X209740000Y-120570000I8120000J0D01*
G01*
%TO.C,C303*%
X107645000Y-119630000D02*
X107645000Y-121330000D01*
X107645000Y-125150000D02*
X107645000Y-123450000D01*
X112100563Y-119630000D02*
X107645000Y-119630000D01*
X112100563Y-125150000D02*
X107645000Y-125150000D01*
X113165000Y-120694437D02*
X112100563Y-119630000D01*
X113165000Y-120694437D02*
X113165000Y-121330000D01*
X113165000Y-124085563D02*
X112100563Y-125150000D01*
X113165000Y-124085563D02*
X113165000Y-123450000D01*
%TO.C,R902*%
X172775436Y-106965000D02*
X173229564Y-106965000D01*
X172775436Y-108435000D02*
X173229564Y-108435000D01*
%TO.C,R308*%
X124602936Y-123135000D02*
X125057064Y-123135000D01*
X124602936Y-124605000D02*
X125057064Y-124605000D01*
%TO.C,R708*%
X199965000Y-96419564D02*
X199965000Y-95965436D01*
X201435000Y-96419564D02*
X201435000Y-95965436D01*
%TO.C,C507*%
X144918748Y-91245000D02*
X145441252Y-91245000D01*
X144918748Y-92715000D02*
X145441252Y-92715000D01*
%TO.C,R805*%
X174262936Y-91405000D02*
X174717064Y-91405000D01*
X174262936Y-92875000D02*
X174717064Y-92875000D01*
%TO.C,U302*%
X118325000Y-120715000D02*
X116375000Y-120715000D01*
X118325000Y-120715000D02*
X120275000Y-120715000D01*
X118325000Y-125835000D02*
X116375000Y-125835000D01*
X118325000Y-125835000D02*
X120275000Y-125835000D01*
X115625000Y-120810000D02*
X115385000Y-120480000D01*
X115865000Y-120480000D01*
X115625000Y-120810000D01*
G36*
X115625000Y-120810000D02*
G01*
X115385000Y-120480000D01*
X115865000Y-120480000D01*
X115625000Y-120810000D01*
G37*
%TO.C,R612*%
X149977500Y-109049564D02*
X149977500Y-108595436D01*
X151447500Y-109049564D02*
X151447500Y-108595436D01*
%TO.C,C504*%
X155395000Y-86758748D02*
X155395000Y-87281252D01*
X156865000Y-86758748D02*
X156865000Y-87281252D01*
%TO.C,R810*%
X174162936Y-95115000D02*
X174617064Y-95115000D01*
X174162936Y-96585000D02*
X174617064Y-96585000D01*
%TO.C,C604*%
X130473333Y-116661252D02*
X130473333Y-116138748D01*
X131943333Y-116661252D02*
X131943333Y-116138748D01*
%TO.C,R402*%
X131897064Y-90205000D02*
X131442936Y-90205000D01*
X131897064Y-91675000D02*
X131442936Y-91675000D01*
%TO.C,C502*%
X145555000Y-75591252D02*
X145555000Y-75068748D01*
X147025000Y-75591252D02*
X147025000Y-75068748D01*
%TO.C,C304*%
X124548748Y-120645000D02*
X125071252Y-120645000D01*
X124548748Y-122115000D02*
X125071252Y-122115000D01*
%TO.C,J501*%
X156015000Y-70450000D02*
X156015000Y-72450000D01*
X156015000Y-72450000D02*
X156515000Y-72200000D01*
X156015000Y-77350000D02*
X156015000Y-82400000D01*
X156015000Y-82400000D02*
X171915000Y-82400000D01*
X156515000Y-69800000D02*
X156515000Y-70750000D01*
X156515000Y-70750000D02*
X156015000Y-70450000D01*
X156515000Y-72200000D02*
X156515000Y-77600000D01*
X156515000Y-77600000D02*
X156015000Y-77350000D01*
X171915000Y-69800000D02*
X156515000Y-69800000D01*
X171915000Y-82400000D02*
X171915000Y-69800000D01*
%TO.C,R702*%
X129727064Y-80715000D02*
X129272936Y-80715000D01*
X129727064Y-82185000D02*
X129272936Y-82185000D01*
%TO.C,RV201*%
X92500000Y-83425000D02*
X102250000Y-83425000D01*
X92500000Y-89745000D02*
X92500000Y-83425000D01*
X102250000Y-83425000D02*
X102250000Y-89745000D01*
X102250000Y-89745000D02*
X92500000Y-89745000D01*
%TO.C,R602*%
X127366667Y-116647064D02*
X127366667Y-116192936D01*
X128836667Y-116647064D02*
X128836667Y-116192936D01*
%TO.C,U904*%
X161960000Y-116940000D02*
X160010000Y-116940000D01*
X161960000Y-116940000D02*
X163910000Y-116940000D01*
X161960000Y-122060000D02*
X160010000Y-122060000D01*
X161960000Y-122060000D02*
X163910000Y-122060000D01*
X164900000Y-122295000D02*
X164420000Y-122295000D01*
X164660000Y-121965000D01*
X164900000Y-122295000D01*
G36*
X164900000Y-122295000D02*
G01*
X164420000Y-122295000D01*
X164660000Y-121965000D01*
X164900000Y-122295000D01*
G37*
%TO.C,U902*%
X174922500Y-109535000D02*
X172972500Y-109535000D01*
X174922500Y-109535000D02*
X176872500Y-109535000D01*
X174922500Y-114655000D02*
X172972500Y-114655000D01*
X174922500Y-114655000D02*
X176872500Y-114655000D01*
X172222500Y-109630000D02*
X171982500Y-109300000D01*
X172462500Y-109300000D01*
X172222500Y-109630000D01*
G36*
X172222500Y-109630000D02*
G01*
X171982500Y-109300000D01*
X172462500Y-109300000D01*
X172222500Y-109630000D01*
G37*
%TO.C,J402*%
X88115000Y-72510000D02*
X89315000Y-72510000D01*
X88115000Y-78710000D02*
X88115000Y-72510000D01*
X92515000Y-72510000D02*
X99015000Y-72510000D01*
X97015000Y-78710000D02*
X88115000Y-78710000D01*
X99015000Y-72510000D02*
X99015000Y-70510000D01*
X101615000Y-72510000D02*
X101615000Y-70510000D01*
X101615000Y-72510000D02*
X102815000Y-72510000D01*
X102815000Y-72510000D02*
X102815000Y-73010000D01*
X102815000Y-73010000D02*
X105315000Y-73010000D01*
X102815000Y-78210000D02*
X102815000Y-78710000D01*
X102815000Y-78710000D02*
X99615000Y-78710000D01*
X105315000Y-73010000D02*
X105315000Y-78210000D01*
X105315000Y-78210000D02*
X102815000Y-78210000D01*
%TO.C,R705*%
X143835000Y-101452936D02*
X143835000Y-101907064D01*
X145305000Y-101452936D02*
X145305000Y-101907064D01*
%TO.C,R804*%
X159927936Y-94640000D02*
X160382064Y-94640000D01*
X159927936Y-96110000D02*
X160382064Y-96110000D01*
%TO.C,D201*%
X108185000Y-108525000D02*
X109205000Y-108525000D01*
X109985000Y-107055000D02*
X109985000Y-109995000D01*
X110105000Y-107055000D02*
X110105000Y-109995000D01*
X110225000Y-107055000D02*
X110225000Y-109995000D01*
X115665000Y-108525000D02*
X114645000Y-108525000D01*
X109205000Y-107055000D02*
X114645000Y-107055000D01*
X114645000Y-109995000D01*
X109205000Y-109995000D01*
X109205000Y-107055000D01*
%TO.C,C703*%
X140581252Y-91245000D02*
X140058748Y-91245000D01*
X140581252Y-92715000D02*
X140058748Y-92715000D01*
%TO.C,C903*%
X192847500Y-110703748D02*
X192847500Y-111226252D01*
X194317500Y-110703748D02*
X194317500Y-111226252D01*
%TO.C,C802*%
X156002500Y-100896252D02*
X156002500Y-100373748D01*
X157472500Y-100896252D02*
X157472500Y-100373748D01*
%TO.C,R807*%
X178674564Y-95115000D02*
X178220436Y-95115000D01*
X178674564Y-96585000D02*
X178220436Y-96585000D01*
%TO.C,R908*%
X177069564Y-123530000D02*
X176615436Y-123530000D01*
X177069564Y-125000000D02*
X176615436Y-125000000D01*
%TO.C,U901*%
X161567500Y-109535000D02*
X159617500Y-109535000D01*
X161567500Y-109535000D02*
X163517500Y-109535000D01*
X161567500Y-114655000D02*
X159617500Y-114655000D01*
X161567500Y-114655000D02*
X163517500Y-114655000D01*
X158867500Y-109630000D02*
X158627500Y-109300000D01*
X159107500Y-109300000D01*
X158867500Y-109630000D01*
G36*
X158867500Y-109630000D02*
G01*
X158627500Y-109300000D01*
X159107500Y-109300000D01*
X158867500Y-109630000D01*
G37*
%TO.C,R903*%
X185775436Y-106985000D02*
X186229564Y-106985000D01*
X185775436Y-108455000D02*
X186229564Y-108455000D01*
%TO.C,R609*%
X143995000Y-112742936D02*
X143995000Y-113197064D01*
X145465000Y-112742936D02*
X145465000Y-113197064D01*
%TO.C,C302*%
X127428748Y-72585000D02*
X127951252Y-72585000D01*
X127428748Y-74055000D02*
X127951252Y-74055000D01*
%TO.C,R607*%
X141215000Y-112752936D02*
X141215000Y-113207064D01*
X142685000Y-112752936D02*
X142685000Y-113207064D01*
%TO.C,R407*%
X127472936Y-100150000D02*
X127927064Y-100150000D01*
X127472936Y-101620000D02*
X127927064Y-101620000D01*
%TO.C,R802*%
X164392064Y-91455000D02*
X163937936Y-91455000D01*
X164392064Y-92925000D02*
X163937936Y-92925000D01*
%TO.C,D404*%
X107230000Y-72945000D02*
X107230000Y-74760000D01*
X107230000Y-74760000D02*
X108450000Y-74760000D01*
X108450000Y-74760000D02*
X108450000Y-72945000D01*
%TO.C,U401*%
X129630000Y-93250000D02*
X127680000Y-93250000D01*
X129630000Y-93250000D02*
X131580000Y-93250000D01*
X129630000Y-98370000D02*
X127680000Y-98370000D01*
X129630000Y-98370000D02*
X131580000Y-98370000D01*
X126930000Y-93345000D02*
X126690000Y-93015000D01*
X127170000Y-93015000D01*
X126930000Y-93345000D01*
G36*
X126930000Y-93345000D02*
G01*
X126690000Y-93015000D01*
X127170000Y-93015000D01*
X126930000Y-93345000D01*
G37*
%TO.C,R507*%
X151345000Y-79549564D02*
X151345000Y-79095436D01*
X152815000Y-79549564D02*
X152815000Y-79095436D01*
%TO.C,R912*%
X185952936Y-123530000D02*
X186407064Y-123530000D01*
X185952936Y-125000000D02*
X186407064Y-125000000D01*
%TO.C,R306*%
X124602936Y-125505000D02*
X125057064Y-125505000D01*
X124602936Y-126975000D02*
X125057064Y-126975000D01*
%TO.C,R403*%
X123015000Y-96405436D02*
X123015000Y-96859564D01*
X124485000Y-96405436D02*
X124485000Y-96859564D01*
%TO.C,R803*%
X164442064Y-94640000D02*
X163987936Y-94640000D01*
X164442064Y-96110000D02*
X163987936Y-96110000D01*
%TO.C,C904*%
X155575000Y-120671252D02*
X155575000Y-120148748D01*
X157045000Y-120671252D02*
X157045000Y-120148748D01*
%TO.C,R404*%
X120235000Y-91462936D02*
X120235000Y-91917064D01*
X121705000Y-91462936D02*
X121705000Y-91917064D01*
%TO.C,D402*%
X105847500Y-111630000D02*
X105847500Y-112850000D01*
X105847500Y-112850000D02*
X107662500Y-112850000D01*
X107662500Y-111630000D02*
X105847500Y-111630000D01*
%TO.C,C901*%
X166337500Y-110703748D02*
X166337500Y-111226252D01*
X167807500Y-110703748D02*
X167807500Y-111226252D01*
%TO.C,C505*%
X140118748Y-84985000D02*
X140641252Y-84985000D01*
X140118748Y-86455000D02*
X140641252Y-86455000D01*
%TO.C,R806*%
X178747064Y-91395000D02*
X178292936Y-91395000D01*
X178747064Y-92865000D02*
X178292936Y-92865000D01*
%TO.C,R505*%
X142982936Y-80865000D02*
X143437064Y-80865000D01*
X142982936Y-82335000D02*
X143437064Y-82335000D01*
%TO.C,U801*%
X162155000Y-85165000D02*
X160205000Y-85165000D01*
X162155000Y-85165000D02*
X164105000Y-85165000D01*
X162155000Y-90285000D02*
X160205000Y-90285000D01*
X162155000Y-90285000D02*
X164105000Y-90285000D01*
X159455000Y-85260000D02*
X159215000Y-84930000D01*
X159695000Y-84930000D01*
X159455000Y-85260000D01*
G36*
X159455000Y-85260000D02*
G01*
X159215000Y-84930000D01*
X159695000Y-84930000D01*
X159455000Y-85260000D01*
G37*
%TO.C,R408*%
X131947064Y-100150000D02*
X131492936Y-100150000D01*
X131947064Y-101620000D02*
X131492936Y-101620000D01*
%TO.C,J601*%
X137120000Y-115510000D02*
X137120000Y-128110000D01*
X137120000Y-128110000D02*
X152520000Y-128110000D01*
X152520000Y-120310000D02*
X153020000Y-120560000D01*
X152520000Y-125710000D02*
X152520000Y-120310000D01*
X152520000Y-127160000D02*
X153020000Y-127460000D01*
X152520000Y-128110000D02*
X152520000Y-127160000D01*
X153020000Y-115510000D02*
X137120000Y-115510000D01*
X153020000Y-120560000D02*
X153020000Y-115510000D01*
X153020000Y-125460000D02*
X152520000Y-125710000D01*
X153020000Y-127460000D02*
X153020000Y-125460000D01*
%TO.C,R509*%
X148455000Y-79549564D02*
X148455000Y-79095436D01*
X149925000Y-79549564D02*
X149925000Y-79095436D01*
%TO.C,R601*%
X129192936Y-123125000D02*
X129647064Y-123125000D01*
X129192936Y-124595000D02*
X129647064Y-124595000D01*
%TO.C,R301*%
X116587064Y-79545000D02*
X116132936Y-79545000D01*
X116587064Y-81015000D02*
X116132936Y-81015000D01*
%TO.C,C401*%
X134375000Y-94568748D02*
X134375000Y-95091252D01*
X135845000Y-94568748D02*
X135845000Y-95091252D01*
%TO.C,C701*%
X134988748Y-83345000D02*
X135511252Y-83345000D01*
X134988748Y-84815000D02*
X135511252Y-84815000D01*
%TO.C,C605*%
X147247500Y-109083752D02*
X147247500Y-108561248D01*
X148717500Y-109083752D02*
X148717500Y-108561248D01*
%TO.C,U601*%
X118320000Y-112885000D02*
X116370000Y-112885000D01*
X118320000Y-112885000D02*
X120270000Y-112885000D01*
X118320000Y-118005000D02*
X116370000Y-118005000D01*
X118320000Y-118005000D02*
X120270000Y-118005000D01*
X115620000Y-112980000D02*
X115380000Y-112650000D01*
X115860000Y-112650000D01*
X115620000Y-112980000D01*
G36*
X115620000Y-112980000D02*
G01*
X115380000Y-112650000D01*
X115860000Y-112650000D01*
X115620000Y-112980000D01*
G37*
%TO.C,J702*%
X203200000Y-100745000D02*
X203200000Y-111595000D01*
X203200000Y-111595000D02*
X215800000Y-111595000D01*
X208000000Y-101245000D02*
X208300000Y-100745000D01*
X208300000Y-100745000D02*
X203200000Y-100745000D01*
X213150000Y-100745000D02*
X213400000Y-101245000D01*
X213200000Y-100745000D02*
X213150000Y-100745000D01*
X213400000Y-101245000D02*
X208000000Y-101245000D01*
X214850000Y-101245000D02*
X215100000Y-100745000D01*
X215100000Y-100745000D02*
X213200000Y-100745000D01*
X215800000Y-101245000D02*
X214850000Y-101245000D01*
X215800000Y-111595000D02*
X215800000Y-101245000D01*
%TO.C,U906*%
X188175000Y-116940000D02*
X186225000Y-116940000D01*
X188175000Y-116940000D02*
X190125000Y-116940000D01*
X188175000Y-122060000D02*
X186225000Y-122060000D01*
X188175000Y-122060000D02*
X190125000Y-122060000D01*
X191115000Y-122295000D02*
X190635000Y-122295000D01*
X190875000Y-121965000D01*
X191115000Y-122295000D01*
G36*
X191115000Y-122295000D02*
G01*
X190635000Y-122295000D01*
X190875000Y-121965000D01*
X191115000Y-122295000D01*
G37*
%TO.C,R511*%
X153994564Y-82325000D02*
X153540436Y-82325000D01*
X153994564Y-83795000D02*
X153540436Y-83795000D01*
%TO.C,C405*%
X134395000Y-104518748D02*
X134395000Y-105041252D01*
X135865000Y-104518748D02*
X135865000Y-105041252D01*
%TO.C,R809*%
X191927064Y-95115000D02*
X191472936Y-95115000D01*
X191927064Y-96585000D02*
X191472936Y-96585000D01*
%TO.C,R812*%
X187362936Y-95115000D02*
X187817064Y-95115000D01*
X187362936Y-96585000D02*
X187817064Y-96585000D01*
%TO.C,U803*%
X176450000Y-85060000D02*
X174500000Y-85060000D01*
X176450000Y-85060000D02*
X178400000Y-85060000D01*
X176450000Y-90180000D02*
X174500000Y-90180000D01*
X176450000Y-90180000D02*
X178400000Y-90180000D01*
X173750000Y-85155000D02*
X173510000Y-84825000D01*
X173990000Y-84825000D01*
X173750000Y-85155000D01*
G36*
X173750000Y-85155000D02*
G01*
X173510000Y-84825000D01*
X173990000Y-84825000D01*
X173750000Y-85155000D01*
G37*
%TO.C,D202*%
X108185000Y-84825000D02*
X109205000Y-84825000D01*
X109985000Y-83355000D02*
X109985000Y-86295000D01*
X110105000Y-83355000D02*
X110105000Y-86295000D01*
X110225000Y-83355000D02*
X110225000Y-86295000D01*
X115665000Y-84825000D02*
X114645000Y-84825000D01*
X109205000Y-83355000D02*
X114645000Y-83355000D01*
X114645000Y-86295000D01*
X109205000Y-86295000D01*
X109205000Y-83355000D01*
%TO.C,R405*%
X123045000Y-106827064D02*
X123045000Y-106372936D01*
X124515000Y-106827064D02*
X124515000Y-106372936D01*
%TO.C,R910*%
X159502936Y-123420000D02*
X159957064Y-123420000D01*
X159502936Y-124890000D02*
X159957064Y-124890000D01*
%TO.C,C702*%
X135511252Y-86355000D02*
X134988748Y-86355000D01*
X135511252Y-87825000D02*
X134988748Y-87825000D01*
%TO.C,U903*%
X187982500Y-109535000D02*
X186032500Y-109535000D01*
X187982500Y-109535000D02*
X189932500Y-109535000D01*
X187982500Y-114655000D02*
X186032500Y-114655000D01*
X187982500Y-114655000D02*
X189932500Y-114655000D01*
X185282500Y-109630000D02*
X185042500Y-109300000D01*
X185522500Y-109300000D01*
X185282500Y-109630000D01*
G36*
X185282500Y-109630000D02*
G01*
X185042500Y-109300000D01*
X185522500Y-109300000D01*
X185282500Y-109630000D01*
G37*
%TO.C,R510*%
X152220000Y-91032936D02*
X152220000Y-91487064D01*
X153690000Y-91032936D02*
X153690000Y-91487064D01*
%TO.C,R304*%
X127452936Y-77555000D02*
X127907064Y-77555000D01*
X127452936Y-79025000D02*
X127907064Y-79025000D01*
%TO.C,R907*%
X164312064Y-123420000D02*
X163857936Y-123420000D01*
X164312064Y-124890000D02*
X163857936Y-124890000D01*
%TO.C,J201*%
X89817500Y-93785000D02*
X99057500Y-93785000D01*
X89817500Y-96105000D02*
X89817500Y-93785000D01*
X89817500Y-104025000D02*
X89817500Y-96705000D01*
X91937500Y-93785000D02*
X91937500Y-104025000D01*
X99057500Y-93785000D02*
X99057500Y-104025000D01*
X99057500Y-104025000D02*
X89817500Y-104025000D01*
X98137500Y-96405000D02*
G75*
G02*
X96137500Y-96405000I-1000000J0D01*
G01*
X96137500Y-96405000D02*
G75*
G02*
X98137500Y-96405000I1000000J0D01*
G01*
X98137500Y-101405000D02*
G75*
G02*
X96137500Y-101405000I-1000000J0D01*
G01*
X96137500Y-101405000D02*
G75*
G02*
X98137500Y-101405000I1000000J0D01*
G01*
X89817500Y-96405000D02*
X89207500Y-96845000D01*
X89207500Y-95965000D01*
X89817500Y-96405000D01*
G36*
X89817500Y-96405000D02*
G01*
X89207500Y-96845000D01*
X89207500Y-95965000D01*
X89817500Y-96405000D01*
G37*
%TO.C,U501*%
X140840000Y-74350000D02*
X138890000Y-74350000D01*
X140840000Y-74350000D02*
X142790000Y-74350000D01*
X140840000Y-79470000D02*
X138890000Y-79470000D01*
X140840000Y-79470000D02*
X142790000Y-79470000D01*
X143780000Y-79705000D02*
X143300000Y-79705000D01*
X143540000Y-79375000D01*
X143780000Y-79705000D01*
G36*
X143780000Y-79705000D02*
G01*
X143300000Y-79705000D01*
X143540000Y-79375000D01*
X143780000Y-79705000D01*
G37*
%TO.C,R610*%
X130463333Y-112022936D02*
X130463333Y-112477064D01*
X131933333Y-112022936D02*
X131933333Y-112477064D01*
%TO.C,R808*%
X187357936Y-91115000D02*
X187812064Y-91115000D01*
X187357936Y-92585000D02*
X187812064Y-92585000D01*
%TO.C,C602*%
X111785000Y-115748748D02*
X111785000Y-116271252D01*
X113255000Y-115748748D02*
X113255000Y-116271252D01*
%TO.C,U805*%
X189640000Y-84965000D02*
X187690000Y-84965000D01*
X189640000Y-84965000D02*
X191590000Y-84965000D01*
X189640000Y-90085000D02*
X187690000Y-90085000D01*
X189640000Y-90085000D02*
X191590000Y-90085000D01*
X186940000Y-85060000D02*
X186700000Y-84730000D01*
X187180000Y-84730000D01*
X186940000Y-85060000D01*
G36*
X186940000Y-85060000D02*
G01*
X186700000Y-84730000D01*
X187180000Y-84730000D01*
X186940000Y-85060000D01*
G37*
%TD*%
M02*
