%TF.GenerationSoftware,KiCad,Pcbnew,9.0.4-9.0.4-0~ubuntu24.04.1*%
%TF.CreationDate,2025-09-01T10:39:58-05:00*%
%TF.ProjectId,amplifier,616d706c-6966-4696-9572-2e6b69636164,rev?*%
%TF.SameCoordinates,Original*%
%TF.FileFunction,Copper,L3,Inr*%
%TF.FilePolarity,Positive*%
%FSLAX46Y46*%
G04 Gerber Fmt 4.6, Leading zero omitted, Abs format (unit mm)*
G04 Created by KiCad (PCBNEW 9.0.4-9.0.4-0~ubuntu24.04.1) date 2025-09-01 10:39:58*
%MOMM*%
%LPD*%
G01*
G04 APERTURE LIST*
G04 Aperture macros list*
%AMRoundRect*
0 Rectangle with rounded corners*
0 $1 Rounding radius*
0 $2 $3 $4 $5 $6 $7 $8 $9 X,Y pos of 4 corners*
0 Add a 4 corners polygon primitive as box body*
4,1,4,$2,$3,$4,$5,$6,$7,$8,$9,$2,$3,0*
0 Add four circle primitives for the rounded corners*
1,1,$1+$1,$2,$3*
1,1,$1+$1,$4,$5*
1,1,$1+$1,$6,$7*
1,1,$1+$1,$8,$9*
0 Add four rect primitives between the rounded corners*
20,1,$1+$1,$2,$3,$4,$5,0*
20,1,$1+$1,$4,$5,$6,$7,0*
20,1,$1+$1,$6,$7,$8,$9,0*
20,1,$1+$1,$8,$9,$2,$3,0*%
G04 Aperture macros list end*
%TA.AperFunction,ComponentPad*%
%ADD10R,3.960000X1.980000*%
%TD*%
%TA.AperFunction,ComponentPad*%
%ADD11O,3.960000X1.980000*%
%TD*%
%TA.AperFunction,ComponentPad*%
%ADD12C,2.000000*%
%TD*%
%TA.AperFunction,ComponentPad*%
%ADD13R,1.980000X3.960000*%
%TD*%
%TA.AperFunction,ComponentPad*%
%ADD14O,1.980000X3.960000*%
%TD*%
%TA.AperFunction,ComponentPad*%
%ADD15C,1.440000*%
%TD*%
%TA.AperFunction,ComponentPad*%
%ADD16RoundRect,0.249999X-0.850001X-0.850001X0.850001X-0.850001X0.850001X0.850001X-0.850001X0.850001X0*%
%TD*%
%TA.AperFunction,ComponentPad*%
%ADD17C,2.200000*%
%TD*%
%TA.AperFunction,ComponentPad*%
%ADD18RoundRect,0.249999X-1.250001X1.250001X-1.250001X-1.250001X1.250001X-1.250001X1.250001X1.250001X0*%
%TD*%
%TA.AperFunction,ComponentPad*%
%ADD19C,3.000000*%
%TD*%
%TA.AperFunction,ViaPad*%
%ADD20C,0.600000*%
%TD*%
G04 APERTURE END LIST*
D10*
%TO.N,GND*%
%TO.C,J701*%
X209350000Y-96795000D03*
D11*
%TO.N,hp_out_left*%
X209350000Y-91795000D03*
%TD*%
D12*
%TO.N,Net-(C705-Pad1)*%
%TO.C,C705*%
X208600000Y-74900000D03*
%TO.N,hp_out_left*%
X208600000Y-82400000D03*
%TD*%
D10*
%TO.N,GND*%
%TO.C,J403*%
X98052500Y-113530000D03*
D11*
%TO.N,/input_buffers/audio_in_right*%
X98052500Y-118530000D03*
%TO.N,/input_buffers/audio_in_left*%
X98052500Y-123530000D03*
%TD*%
D12*
%TO.N,Net-(C706-Pad1)*%
%TO.C,C706*%
X201620000Y-124320000D03*
%TO.N,hp_out_right*%
X201620000Y-116820000D03*
%TD*%
D13*
%TO.N,Net-(J501-Pin_1)*%
%TO.C,J501*%
X169265000Y-76100000D03*
D14*
%TO.N,Net-(J501-Pin_2)*%
X164265000Y-76100000D03*
%TO.N,Net-(J501-Pin_3)*%
X159265000Y-76100000D03*
%TD*%
D15*
%TO.N,Net-(U201-ADJ)*%
%TO.C,RV201*%
X99915000Y-85445000D03*
%TO.N,GND*%
X97375000Y-85445000D03*
X94835000Y-85445000D03*
%TD*%
D16*
%TO.N,VCC*%
%TO.C,D201*%
X106845000Y-108525000D03*
D17*
%TO.N,+15V*%
X117005000Y-108525000D03*
%TD*%
D13*
%TO.N,Net-(J601-Pin_1)*%
%TO.C,J601*%
X139770000Y-121810000D03*
D14*
%TO.N,Net-(J601-Pin_2)*%
X144770000Y-121810000D03*
%TO.N,Net-(J601-Pin_3)*%
X149770000Y-121810000D03*
%TD*%
D10*
%TO.N,GND*%
%TO.C,J702*%
X209500000Y-108945000D03*
D11*
%TO.N,hp_out_right*%
X209500000Y-103945000D03*
%TD*%
D16*
%TO.N,+15V*%
%TO.C,D202*%
X106845000Y-84825000D03*
D17*
%TO.N,/power/dout*%
X117005000Y-84825000D03*
%TD*%
D18*
%TO.N,GND*%
%TO.C,J201*%
X93937500Y-96405000D03*
D19*
%TO.N,VCC*%
X93937500Y-101405000D03*
%TD*%
D20*
%TO.N,GND*%
X129970000Y-73310000D03*
X166560000Y-97950000D03*
X151820000Y-84600000D03*
X182730000Y-100060000D03*
X137120000Y-95770000D03*
X143300000Y-73580000D03*
X188830000Y-83460000D03*
X193570000Y-113320000D03*
X175630000Y-89530000D03*
X156307500Y-117685000D03*
X192520000Y-117590000D03*
X187210000Y-114000000D03*
X116382500Y-78310000D03*
X128710000Y-97720000D03*
X174170000Y-114010000D03*
X137090000Y-105720000D03*
X184890000Y-85710000D03*
X123740000Y-89370000D03*
X113760000Y-90970000D03*
X180550000Y-113060000D03*
X159010000Y-90710000D03*
X139550000Y-80140000D03*
X123830000Y-99330000D03*
X128740000Y-107610000D03*
X117650000Y-125190000D03*
X104290000Y-71910000D03*
X155240000Y-99670000D03*
X198670000Y-105800000D03*
X189000000Y-89430000D03*
X139210000Y-111150000D03*
X128640000Y-87520000D03*
X166150000Y-117580000D03*
X117600000Y-117350000D03*
X141850000Y-103850000D03*
X170390000Y-85820000D03*
X111117500Y-78810000D03*
X108320000Y-126030000D03*
X182890000Y-118030000D03*
X146130000Y-93650000D03*
X179110000Y-117590000D03*
X167080000Y-113130000D03*
X150960000Y-105580000D03*
X160690000Y-113990000D03*
X169360000Y-100010000D03*
X168827500Y-118285000D03*
X127150000Y-121350000D03*
X194110000Y-97940000D03*
X137710000Y-84080000D03*
X200700000Y-98560000D03*
%TO.N,+15V*%
X182750000Y-101980000D03*
X170480000Y-121405000D03*
X182890000Y-122500000D03*
X125440000Y-73080000D03*
X162510000Y-86010000D03*
X180500000Y-108610000D03*
X176880000Y-86080000D03*
X116060000Y-127530000D03*
X157770000Y-121405000D03*
X155230000Y-101580000D03*
X118882500Y-80280000D03*
X169330000Y-101930000D03*
X119110000Y-113980000D03*
X143160000Y-105970000D03*
X122530000Y-121270000D03*
X134320000Y-82610000D03*
X193580000Y-108430000D03*
X137110000Y-93870000D03*
X141850000Y-98490000D03*
X137110000Y-103850000D03*
X138045000Y-80065000D03*
X190050000Y-85870000D03*
X167060000Y-108650000D03*
X144230000Y-90040000D03*
%TO.N,buff_out_left*%
X190760000Y-93740000D03*
X177610000Y-93740000D03*
X188510000Y-93740000D03*
X130760000Y-89400000D03*
X163260000Y-93750000D03*
X175300000Y-93750000D03*
X198695000Y-92575000D03*
X161070000Y-93750000D03*
%TO.N,bax_out_left*%
X136200000Y-85680000D03*
X135200000Y-80140000D03*
%TO.N,Net-(U502B--)*%
X138330000Y-85670000D03*
X154670000Y-84420000D03*
X142920000Y-85660000D03*
%TO.N,buff_out_right*%
X128590000Y-102480000D03*
X163180000Y-126170000D03*
X176050000Y-105260000D03*
X162845000Y-106165000D03*
X175930000Y-126170000D03*
X163170000Y-122790000D03*
X189150000Y-105260000D03*
X138320000Y-113390000D03*
%TO.N,Net-(J601-Pin_2)*%
X112520000Y-118210000D03*
%TO.N,bax_out_right*%
X141270000Y-93300000D03*
X129610000Y-111340000D03*
%TO.N,Net-(U602A--)*%
X137010000Y-112060000D03*
X137010000Y-110420000D03*
%TO.N,Net-(C604-Pad2)*%
X136110000Y-112070000D03*
X136090000Y-110440000D03*
%TO.N,Net-(C605-Pad2)*%
X135030000Y-109500000D03*
X143130000Y-107250000D03*
%TO.N,hp_out_right*%
X202330000Y-103945000D03*
%TO.N,/input_buffers/audio_in_right*%
X119600000Y-100700000D03*
X95590000Y-79300000D03*
X105450000Y-112240000D03*
%TO.N,vbias_right*%
X107850000Y-80760000D03*
X147060000Y-99910000D03*
X109350000Y-112240000D03*
X147130000Y-116990000D03*
X128480000Y-125320000D03*
X123770000Y-108830000D03*
%TO.N,vbias_left*%
X107470000Y-113980000D03*
X149170000Y-75800000D03*
X129980000Y-75800000D03*
X109290000Y-73130000D03*
X141260000Y-75780000D03*
%TO.N,Net-(J501-Pin_3)*%
X159280000Y-78760000D03*
X144640000Y-72700000D03*
X159280000Y-81050000D03*
X133480000Y-72680000D03*
%TO.N,Net-(U301A--)*%
X125500000Y-75800000D03*
X120720000Y-75230000D03*
%TO.N,Net-(U302A--)*%
X118540000Y-122650000D03*
X122650000Y-126240000D03*
%TO.N,Net-(R505-Pad1)*%
X142290000Y-83050000D03*
X151610000Y-83060000D03*
%TO.N,Net-(U601B-+)*%
X120800000Y-118920000D03*
X128740000Y-119680000D03*
%TO.N,Net-(U601A--)*%
X117680000Y-113540000D03*
%TO.N,Net-(R605-Pad1)*%
X146230000Y-114950000D03*
X126510000Y-115530000D03*
%TO.N,buff_in_left*%
X127260000Y-81450000D03*
X166500000Y-89620000D03*
%TO.N,buff_in_right*%
X159490000Y-115770000D03*
X177380000Y-115770000D03*
X172350000Y-115770000D03*
X164040000Y-115770000D03*
X185710000Y-115770000D03*
%TO.N,Net-(U801B--)*%
X167250000Y-88730000D03*
X166860000Y-92160000D03*
%TO.N,Net-(U802A--)*%
X167000000Y-100500000D03*
X167000000Y-95500000D03*
%TO.N,Net-(U803A--)*%
X170460000Y-88340000D03*
X170890000Y-92110000D03*
%TO.N,Net-(U803B--)*%
X181010000Y-92150000D03*
X181010000Y-88540000D03*
%TO.N,Net-(U804A--)*%
X180710000Y-95870000D03*
X180870000Y-100400000D03*
%TO.N,Net-(U805A--)*%
X185470000Y-86890000D03*
X185290000Y-91840000D03*
%TO.N,Net-(U806A--)*%
X194120000Y-95860000D03*
X196090000Y-95860000D03*
%TO.N,Net-(U804B--)*%
X172000000Y-96000000D03*
X172000000Y-99000000D03*
%TO.N,Net-(U805B--)*%
X193960000Y-91430000D03*
X194040000Y-88750000D03*
%TO.N,Net-(U806B--)*%
X185520000Y-99020000D03*
X185060000Y-95850000D03*
%TD*%
%TA.AperFunction,Conductor*%
%TO.N,GND*%
G36*
X218232539Y-70590185D02*
G01*
X218278294Y-70642989D01*
X218289500Y-70694500D01*
X218289500Y-128825500D01*
X218269815Y-128892539D01*
X218217011Y-128938294D01*
X218165500Y-128949500D01*
X88924500Y-128949500D01*
X88857461Y-128929815D01*
X88811706Y-128877011D01*
X88800500Y-128825500D01*
X88800500Y-127464108D01*
X115559500Y-127464108D01*
X115559500Y-127595891D01*
X115593608Y-127723187D01*
X115626554Y-127780250D01*
X115659500Y-127837314D01*
X115752686Y-127930500D01*
X115866814Y-127996392D01*
X115994108Y-128030500D01*
X115994110Y-128030500D01*
X116125890Y-128030500D01*
X116125892Y-128030500D01*
X116253186Y-127996392D01*
X116367314Y-127930500D01*
X116460500Y-127837314D01*
X116526392Y-127723186D01*
X116560500Y-127595892D01*
X116560500Y-127464108D01*
X116526392Y-127336814D01*
X116460500Y-127222686D01*
X116367314Y-127129500D01*
X116310250Y-127096554D01*
X116253187Y-127063608D01*
X116189539Y-127046554D01*
X116125892Y-127029500D01*
X115994108Y-127029500D01*
X115866812Y-127063608D01*
X115752686Y-127129500D01*
X115752683Y-127129502D01*
X115659502Y-127222683D01*
X115659500Y-127222686D01*
X115593608Y-127336812D01*
X115559500Y-127464108D01*
X88800500Y-127464108D01*
X88800500Y-126174108D01*
X122149500Y-126174108D01*
X122149500Y-126305891D01*
X122183608Y-126433187D01*
X122216554Y-126490250D01*
X122249500Y-126547314D01*
X122342686Y-126640500D01*
X122456814Y-126706392D01*
X122584108Y-126740500D01*
X122584110Y-126740500D01*
X122715890Y-126740500D01*
X122715892Y-126740500D01*
X122843186Y-126706392D01*
X122957314Y-126640500D01*
X123050500Y-126547314D01*
X123116392Y-126433186D01*
X123150500Y-126305892D01*
X123150500Y-126174108D01*
X123131744Y-126104108D01*
X162679500Y-126104108D01*
X162679500Y-126235891D01*
X162713608Y-126363187D01*
X162746554Y-126420250D01*
X162779500Y-126477314D01*
X162872686Y-126570500D01*
X162986814Y-126636392D01*
X163114108Y-126670500D01*
X163114110Y-126670500D01*
X163245890Y-126670500D01*
X163245892Y-126670500D01*
X163373186Y-126636392D01*
X163487314Y-126570500D01*
X163580500Y-126477314D01*
X163646392Y-126363186D01*
X163680500Y-126235892D01*
X163680500Y-126104108D01*
X175429500Y-126104108D01*
X175429500Y-126235891D01*
X175463608Y-126363187D01*
X175496554Y-126420250D01*
X175529500Y-126477314D01*
X175622686Y-126570500D01*
X175736814Y-126636392D01*
X175864108Y-126670500D01*
X175864110Y-126670500D01*
X175995890Y-126670500D01*
X175995892Y-126670500D01*
X176123186Y-126636392D01*
X176237314Y-126570500D01*
X176330500Y-126477314D01*
X176396392Y-126363186D01*
X176430500Y-126235892D01*
X176430500Y-126104108D01*
X176396392Y-125976814D01*
X176330500Y-125862686D01*
X176237314Y-125769500D01*
X176152439Y-125720497D01*
X176123187Y-125703608D01*
X176059539Y-125686554D01*
X175995892Y-125669500D01*
X175864108Y-125669500D01*
X175736812Y-125703608D01*
X175622686Y-125769500D01*
X175622683Y-125769502D01*
X175529502Y-125862683D01*
X175529500Y-125862686D01*
X175463608Y-125976812D01*
X175429500Y-126104108D01*
X163680500Y-126104108D01*
X163646392Y-125976814D01*
X163580500Y-125862686D01*
X163487314Y-125769500D01*
X163402439Y-125720497D01*
X163373187Y-125703608D01*
X163309539Y-125686554D01*
X163245892Y-125669500D01*
X163114108Y-125669500D01*
X162986812Y-125703608D01*
X162872686Y-125769500D01*
X162872683Y-125769502D01*
X162779502Y-125862683D01*
X162779500Y-125862686D01*
X162713608Y-125976812D01*
X162679500Y-126104108D01*
X123131744Y-126104108D01*
X123116392Y-126046814D01*
X123050500Y-125932686D01*
X122957314Y-125839500D01*
X122900250Y-125806554D01*
X122843187Y-125773608D01*
X122779539Y-125756554D01*
X122715892Y-125739500D01*
X122584108Y-125739500D01*
X122456812Y-125773608D01*
X122342686Y-125839500D01*
X122342683Y-125839502D01*
X122249502Y-125932683D01*
X122249500Y-125932686D01*
X122183608Y-126046812D01*
X122149500Y-126174108D01*
X88800500Y-126174108D01*
X88800500Y-125254108D01*
X127979500Y-125254108D01*
X127979500Y-125385891D01*
X128013608Y-125513187D01*
X128037084Y-125553847D01*
X128079500Y-125627314D01*
X128172686Y-125720500D01*
X128286814Y-125786392D01*
X128414108Y-125820500D01*
X128414110Y-125820500D01*
X128545890Y-125820500D01*
X128545892Y-125820500D01*
X128673186Y-125786392D01*
X128787314Y-125720500D01*
X128880500Y-125627314D01*
X128946392Y-125513186D01*
X128980500Y-125385892D01*
X128980500Y-125254108D01*
X128946392Y-125126814D01*
X128880500Y-125012686D01*
X128787314Y-124919500D01*
X128730250Y-124886554D01*
X128673187Y-124853608D01*
X128609539Y-124836554D01*
X128545892Y-124819500D01*
X128414108Y-124819500D01*
X128286812Y-124853608D01*
X128172686Y-124919500D01*
X128172683Y-124919502D01*
X128079502Y-125012683D01*
X128079500Y-125012686D01*
X128013608Y-125126812D01*
X127979500Y-125254108D01*
X88800500Y-125254108D01*
X88800500Y-123436300D01*
X95872000Y-123436300D01*
X95872000Y-123623699D01*
X95888587Y-123728422D01*
X95901314Y-123808776D01*
X95959221Y-123986993D01*
X95985659Y-124038882D01*
X96044294Y-124153959D01*
X96044295Y-124153962D01*
X96090087Y-124216988D01*
X96154438Y-124305559D01*
X96286941Y-124438062D01*
X96320372Y-124462351D01*
X96438537Y-124548204D01*
X96438538Y-124548204D01*
X96438542Y-124548207D01*
X96605507Y-124633279D01*
X96783724Y-124691186D01*
X96876265Y-124705843D01*
X96968801Y-124720500D01*
X96968806Y-124720500D01*
X99136199Y-124720500D01*
X99220322Y-124707175D01*
X99321276Y-124691186D01*
X99499493Y-124633279D01*
X99666458Y-124548207D01*
X99818059Y-124438062D01*
X99950562Y-124305559D01*
X100008719Y-124225513D01*
X200419500Y-124225513D01*
X200419500Y-124414486D01*
X200449059Y-124601118D01*
X200507454Y-124780836D01*
X200583484Y-124930051D01*
X200593240Y-124949199D01*
X200704310Y-125102073D01*
X200837927Y-125235690D01*
X200990801Y-125346760D01*
X201023630Y-125363487D01*
X201159163Y-125432545D01*
X201159165Y-125432545D01*
X201159168Y-125432547D01*
X201255497Y-125463846D01*
X201338881Y-125490940D01*
X201525514Y-125520500D01*
X201525519Y-125520500D01*
X201714486Y-125520500D01*
X201901118Y-125490940D01*
X202080832Y-125432547D01*
X202249199Y-125346760D01*
X202402073Y-125235690D01*
X202535690Y-125102073D01*
X202646760Y-124949199D01*
X202732547Y-124780832D01*
X202790940Y-124601118D01*
X202799320Y-124548207D01*
X202820500Y-124414486D01*
X202820500Y-124408034D01*
X209989500Y-124408034D01*
X209989500Y-124751965D01*
X210023210Y-125094249D01*
X210090308Y-125431572D01*
X210190150Y-125760706D01*
X210232392Y-125862686D01*
X210320284Y-126074878D01*
X210321770Y-126078464D01*
X210321772Y-126078469D01*
X210483893Y-126381775D01*
X210483904Y-126381793D01*
X210674975Y-126667751D01*
X210674985Y-126667765D01*
X210893176Y-126933632D01*
X211136367Y-127176823D01*
X211136372Y-127176827D01*
X211136373Y-127176828D01*
X211402240Y-127395019D01*
X211688213Y-127586100D01*
X211688222Y-127586105D01*
X211688224Y-127586106D01*
X211991530Y-127748227D01*
X211991532Y-127748227D01*
X211991538Y-127748231D01*
X212309295Y-127879850D01*
X212638422Y-127979690D01*
X212975750Y-128046789D01*
X213318031Y-128080500D01*
X213318034Y-128080500D01*
X213661966Y-128080500D01*
X213661969Y-128080500D01*
X214004250Y-128046789D01*
X214341578Y-127979690D01*
X214670705Y-127879850D01*
X214988462Y-127748231D01*
X215291787Y-127586100D01*
X215577760Y-127395019D01*
X215843627Y-127176828D01*
X216086828Y-126933627D01*
X216305019Y-126667760D01*
X216496100Y-126381787D01*
X216658231Y-126078462D01*
X216789850Y-125760705D01*
X216889690Y-125431578D01*
X216956789Y-125094250D01*
X216990500Y-124751969D01*
X216990500Y-124408031D01*
X216956789Y-124065750D01*
X216889690Y-123728422D01*
X216789850Y-123399295D01*
X216658231Y-123081538D01*
X216656751Y-123078770D01*
X216496106Y-122778224D01*
X216496105Y-122778222D01*
X216496100Y-122778213D01*
X216305019Y-122492240D01*
X216086828Y-122226373D01*
X216086827Y-122226372D01*
X216086823Y-122226367D01*
X215843632Y-121983176D01*
X215577765Y-121764985D01*
X215577764Y-121764984D01*
X215577760Y-121764981D01*
X215291787Y-121573900D01*
X215291782Y-121573897D01*
X215291775Y-121573893D01*
X214988469Y-121411772D01*
X214988464Y-121411770D01*
X214670706Y-121280150D01*
X214341572Y-121180308D01*
X214004248Y-121113210D01*
X214004249Y-121113210D01*
X213746456Y-121087821D01*
X213661969Y-121079500D01*
X213318031Y-121079500D01*
X213239966Y-121087188D01*
X212975750Y-121113210D01*
X212638427Y-121180308D01*
X212309293Y-121280150D01*
X211991535Y-121411770D01*
X211991530Y-121411772D01*
X211688224Y-121573893D01*
X211688206Y-121573904D01*
X211402248Y-121764975D01*
X211402234Y-121764985D01*
X211136367Y-121983176D01*
X210893176Y-122226367D01*
X210674985Y-122492234D01*
X210674975Y-122492248D01*
X210483904Y-122778206D01*
X210483893Y-122778224D01*
X210321772Y-123081530D01*
X210321770Y-123081535D01*
X210190150Y-123399293D01*
X210090308Y-123728427D01*
X210023210Y-124065750D01*
X209989500Y-124408034D01*
X202820500Y-124408034D01*
X202820500Y-124225513D01*
X202790940Y-124038881D01*
X202757041Y-123934552D01*
X202732547Y-123859168D01*
X202732545Y-123859165D01*
X202732545Y-123859163D01*
X202646759Y-123690800D01*
X202535690Y-123537927D01*
X202402073Y-123404310D01*
X202249199Y-123293240D01*
X202243821Y-123290500D01*
X202080836Y-123207454D01*
X201901118Y-123149059D01*
X201714486Y-123119500D01*
X201714481Y-123119500D01*
X201525519Y-123119500D01*
X201525514Y-123119500D01*
X201338881Y-123149059D01*
X201159163Y-123207454D01*
X200990800Y-123293240D01*
X200903579Y-123356610D01*
X200837927Y-123404310D01*
X200837925Y-123404312D01*
X200837924Y-123404312D01*
X200704312Y-123537924D01*
X200704312Y-123537925D01*
X200704310Y-123537927D01*
X200676969Y-123575559D01*
X200593240Y-123690800D01*
X200507454Y-123859163D01*
X200449059Y-124038881D01*
X200419500Y-124225513D01*
X100008719Y-124225513D01*
X100060707Y-124153958D01*
X100145779Y-123986993D01*
X100203686Y-123808776D01*
X100222371Y-123690801D01*
X100233000Y-123623699D01*
X100233000Y-123436300D01*
X100217010Y-123335352D01*
X100203686Y-123251224D01*
X100145779Y-123073007D01*
X100060707Y-122906042D01*
X100060704Y-122906038D01*
X100060704Y-122906037D01*
X100015039Y-122843186D01*
X99950562Y-122754441D01*
X99818059Y-122621938D01*
X99765991Y-122584108D01*
X118039500Y-122584108D01*
X118039500Y-122715892D01*
X118041702Y-122724110D01*
X118073608Y-122843187D01*
X118102769Y-122893694D01*
X118139500Y-122957314D01*
X118232686Y-123050500D01*
X118346814Y-123116392D01*
X118474108Y-123150500D01*
X118474110Y-123150500D01*
X118605890Y-123150500D01*
X118605892Y-123150500D01*
X118733186Y-123116392D01*
X118847314Y-123050500D01*
X118940500Y-122957314D01*
X119006392Y-122843186D01*
X119040500Y-122715892D01*
X119040500Y-122584108D01*
X119006392Y-122456814D01*
X118940500Y-122342686D01*
X118847314Y-122249500D01*
X118748910Y-122192686D01*
X118733187Y-122183608D01*
X118669539Y-122166554D01*
X118605892Y-122149500D01*
X118474108Y-122149500D01*
X118346812Y-122183608D01*
X118232686Y-122249500D01*
X118232683Y-122249502D01*
X118139502Y-122342683D01*
X118139500Y-122342686D01*
X118073608Y-122456812D01*
X118058876Y-122511794D01*
X118039500Y-122584108D01*
X99765991Y-122584108D01*
X99740916Y-122565890D01*
X99666462Y-122511795D01*
X99666459Y-122511794D01*
X99666460Y-122511794D01*
X99666458Y-122511793D01*
X99499493Y-122426721D01*
X99321276Y-122368814D01*
X99321270Y-122368813D01*
X99136199Y-122339500D01*
X99136194Y-122339500D01*
X96968806Y-122339500D01*
X96968801Y-122339500D01*
X96783729Y-122368813D01*
X96783727Y-122368813D01*
X96783724Y-122368814D01*
X96605507Y-122426721D01*
X96605504Y-122426722D01*
X96605502Y-122426723D01*
X96438540Y-122511794D01*
X96438537Y-122511795D01*
X96324977Y-122594302D01*
X96286941Y-122621938D01*
X96286939Y-122621940D01*
X96286938Y-122621940D01*
X96154440Y-122754438D01*
X96154440Y-122754439D01*
X96154438Y-122754441D01*
X96137172Y-122778206D01*
X96044295Y-122906037D01*
X96044294Y-122906040D01*
X95959223Y-123073002D01*
X95959222Y-123073004D01*
X95959221Y-123073007D01*
X95901314Y-123251224D01*
X95901313Y-123251227D01*
X95901313Y-123251229D01*
X95872000Y-123436300D01*
X88800500Y-123436300D01*
X88800500Y-121204108D01*
X122029500Y-121204108D01*
X122029500Y-121335892D01*
X122046554Y-121399539D01*
X122063608Y-121463187D01*
X122068056Y-121470891D01*
X122129500Y-121577314D01*
X122222686Y-121670500D01*
X122336814Y-121736392D01*
X122464108Y-121770500D01*
X122464110Y-121770500D01*
X122595890Y-121770500D01*
X122595892Y-121770500D01*
X122723186Y-121736392D01*
X122837314Y-121670500D01*
X122930500Y-121577314D01*
X122996392Y-121463186D01*
X123030500Y-121335892D01*
X123030500Y-121204108D01*
X122996392Y-121076814D01*
X122930500Y-120962686D01*
X122837314Y-120869500D01*
X122780250Y-120836554D01*
X122723187Y-120803608D01*
X122659539Y-120786554D01*
X122595892Y-120769500D01*
X122464108Y-120769500D01*
X122336812Y-120803608D01*
X122222686Y-120869500D01*
X122222683Y-120869502D01*
X122129502Y-120962683D01*
X122129500Y-120962686D01*
X122063608Y-121076812D01*
X122029500Y-121204108D01*
X88800500Y-121204108D01*
X88800500Y-118436300D01*
X95872000Y-118436300D01*
X95872000Y-118623699D01*
X95901313Y-118808770D01*
X95901314Y-118808776D01*
X95959221Y-118986993D01*
X96023519Y-119113187D01*
X96044294Y-119153959D01*
X96044295Y-119153962D01*
X96062850Y-119179500D01*
X96154438Y-119305559D01*
X96286941Y-119438062D01*
X96354042Y-119486814D01*
X96438537Y-119548204D01*
X96438538Y-119548204D01*
X96438542Y-119548207D01*
X96605507Y-119633279D01*
X96783724Y-119691186D01*
X96876265Y-119705843D01*
X96968801Y-119720500D01*
X96968806Y-119720500D01*
X99136199Y-119720500D01*
X99220322Y-119707175D01*
X99321276Y-119691186D01*
X99499493Y-119633279D01*
X99537119Y-119614108D01*
X128239500Y-119614108D01*
X128239500Y-119745892D01*
X128254479Y-119801794D01*
X128273608Y-119873187D01*
X128295983Y-119911940D01*
X128339500Y-119987314D01*
X128432686Y-120080500D01*
X128546814Y-120146392D01*
X128674108Y-120180500D01*
X128674110Y-120180500D01*
X128805890Y-120180500D01*
X128805892Y-120180500D01*
X128933186Y-120146392D01*
X129047314Y-120080500D01*
X129140500Y-119987314D01*
X129206392Y-119873186D01*
X129223256Y-119810247D01*
X138579500Y-119810247D01*
X138579500Y-123809752D01*
X138591131Y-123868229D01*
X138591132Y-123868230D01*
X138635447Y-123934552D01*
X138701769Y-123978867D01*
X138701770Y-123978868D01*
X138760247Y-123990499D01*
X138760250Y-123990500D01*
X138760252Y-123990500D01*
X140779750Y-123990500D01*
X140779751Y-123990499D01*
X140797379Y-123986993D01*
X140838229Y-123978868D01*
X140838229Y-123978867D01*
X140838231Y-123978867D01*
X140904552Y-123934552D01*
X140948867Y-123868231D01*
X140948867Y-123868229D01*
X140948868Y-123868229D01*
X140960499Y-123809752D01*
X140960500Y-123809750D01*
X140960500Y-120726300D01*
X143579500Y-120726300D01*
X143579500Y-122893699D01*
X143607899Y-123073002D01*
X143608814Y-123078776D01*
X143666721Y-123256993D01*
X143683793Y-123290500D01*
X143751794Y-123423959D01*
X143751795Y-123423962D01*
X143797587Y-123486988D01*
X143861938Y-123575559D01*
X143994441Y-123708062D01*
X144080025Y-123770243D01*
X144146037Y-123818204D01*
X144146038Y-123818204D01*
X144146042Y-123818207D01*
X144313007Y-123903279D01*
X144491224Y-123961186D01*
X144583765Y-123975843D01*
X144676301Y-123990500D01*
X144676306Y-123990500D01*
X144863699Y-123990500D01*
X144947822Y-123977175D01*
X145048776Y-123961186D01*
X145226993Y-123903279D01*
X145393958Y-123818207D01*
X145545559Y-123708062D01*
X145678062Y-123575559D01*
X145788207Y-123423958D01*
X145873279Y-123256993D01*
X145931186Y-123078776D01*
X145950424Y-122957313D01*
X145960500Y-122893699D01*
X145960500Y-120726300D01*
X148579500Y-120726300D01*
X148579500Y-122893699D01*
X148607899Y-123073002D01*
X148608814Y-123078776D01*
X148666721Y-123256993D01*
X148683793Y-123290500D01*
X148751794Y-123423959D01*
X148751795Y-123423962D01*
X148797587Y-123486988D01*
X148861938Y-123575559D01*
X148994441Y-123708062D01*
X149080025Y-123770243D01*
X149146037Y-123818204D01*
X149146038Y-123818204D01*
X149146042Y-123818207D01*
X149313007Y-123903279D01*
X149491224Y-123961186D01*
X149583765Y-123975843D01*
X149676301Y-123990500D01*
X149676306Y-123990500D01*
X149863699Y-123990500D01*
X149947822Y-123977175D01*
X150048776Y-123961186D01*
X150226993Y-123903279D01*
X150393958Y-123818207D01*
X150545559Y-123708062D01*
X150678062Y-123575559D01*
X150788207Y-123423958D01*
X150873279Y-123256993D01*
X150931186Y-123078776D01*
X150950424Y-122957313D01*
X150960500Y-122893699D01*
X150960500Y-122724108D01*
X162669500Y-122724108D01*
X162669500Y-122855891D01*
X162703608Y-122983187D01*
X162713604Y-123000500D01*
X162769500Y-123097314D01*
X162862686Y-123190500D01*
X162976814Y-123256392D01*
X163104108Y-123290500D01*
X163104110Y-123290500D01*
X163235890Y-123290500D01*
X163235892Y-123290500D01*
X163363186Y-123256392D01*
X163477314Y-123190500D01*
X163570500Y-123097314D01*
X163636392Y-122983186D01*
X163670500Y-122855892D01*
X163670500Y-122724108D01*
X163636392Y-122596814D01*
X163570500Y-122482686D01*
X163521922Y-122434108D01*
X182389500Y-122434108D01*
X182389500Y-122565892D01*
X182404517Y-122621938D01*
X182423608Y-122693187D01*
X182436717Y-122715892D01*
X182489500Y-122807314D01*
X182582686Y-122900500D01*
X182696814Y-122966392D01*
X182824108Y-123000500D01*
X182824110Y-123000500D01*
X182955890Y-123000500D01*
X182955892Y-123000500D01*
X183083186Y-122966392D01*
X183197314Y-122900500D01*
X183290500Y-122807314D01*
X183356392Y-122693186D01*
X183390500Y-122565892D01*
X183390500Y-122434108D01*
X183356392Y-122306814D01*
X183290500Y-122192686D01*
X183197314Y-122099500D01*
X183140250Y-122066554D01*
X183083187Y-122033608D01*
X183019539Y-122016554D01*
X182955892Y-121999500D01*
X182824108Y-121999500D01*
X182696812Y-122033608D01*
X182582686Y-122099500D01*
X182582683Y-122099502D01*
X182489502Y-122192683D01*
X182489500Y-122192686D01*
X182423608Y-122306812D01*
X182401452Y-122389502D01*
X182389500Y-122434108D01*
X163521922Y-122434108D01*
X163477314Y-122389500D01*
X163390712Y-122339500D01*
X163363187Y-122323608D01*
X163299539Y-122306554D01*
X163235892Y-122289500D01*
X163104108Y-122289500D01*
X162976812Y-122323608D01*
X162862686Y-122389500D01*
X162862683Y-122389502D01*
X162769502Y-122482683D01*
X162769500Y-122482686D01*
X162703608Y-122596812D01*
X162669500Y-122724108D01*
X150960500Y-122724108D01*
X150960500Y-121339108D01*
X157269500Y-121339108D01*
X157269500Y-121470891D01*
X157303608Y-121598187D01*
X157336554Y-121655250D01*
X157369500Y-121712314D01*
X157462686Y-121805500D01*
X157576814Y-121871392D01*
X157704108Y-121905500D01*
X157704110Y-121905500D01*
X157835890Y-121905500D01*
X157835892Y-121905500D01*
X157963186Y-121871392D01*
X158077314Y-121805500D01*
X158170500Y-121712314D01*
X158236392Y-121598186D01*
X158270500Y-121470892D01*
X158270500Y-121339108D01*
X169979500Y-121339108D01*
X169979500Y-121470891D01*
X170013608Y-121598187D01*
X170046554Y-121655250D01*
X170079500Y-121712314D01*
X170172686Y-121805500D01*
X170286814Y-121871392D01*
X170414108Y-121905500D01*
X170414110Y-121905500D01*
X170545890Y-121905500D01*
X170545892Y-121905500D01*
X170673186Y-121871392D01*
X170787314Y-121805500D01*
X170880500Y-121712314D01*
X170946392Y-121598186D01*
X170980500Y-121470892D01*
X170980500Y-121339108D01*
X170946392Y-121211814D01*
X170880500Y-121097686D01*
X170787314Y-121004500D01*
X170714885Y-120962683D01*
X170673187Y-120938608D01*
X170609539Y-120921554D01*
X170545892Y-120904500D01*
X170414108Y-120904500D01*
X170286812Y-120938608D01*
X170172686Y-121004500D01*
X170172683Y-121004502D01*
X170079502Y-121097683D01*
X170079500Y-121097686D01*
X170013608Y-121211812D01*
X169979500Y-121339108D01*
X158270500Y-121339108D01*
X158236392Y-121211814D01*
X158170500Y-121097686D01*
X158077314Y-121004500D01*
X158004885Y-120962683D01*
X157963187Y-120938608D01*
X157899539Y-120921554D01*
X157835892Y-120904500D01*
X157704108Y-120904500D01*
X157576812Y-120938608D01*
X157462686Y-121004500D01*
X157462683Y-121004502D01*
X157369502Y-121097683D01*
X157369500Y-121097686D01*
X157303608Y-121211812D01*
X157269500Y-121339108D01*
X150960500Y-121339108D01*
X150960500Y-120726300D01*
X150944510Y-120625352D01*
X150931186Y-120541224D01*
X150873279Y-120363007D01*
X150788207Y-120196042D01*
X150788204Y-120196038D01*
X150788204Y-120196037D01*
X150752133Y-120146391D01*
X150678062Y-120044441D01*
X150545559Y-119911938D01*
X150488502Y-119870484D01*
X150393962Y-119801795D01*
X150393959Y-119801794D01*
X150393960Y-119801794D01*
X150393958Y-119801793D01*
X150226993Y-119716721D01*
X150048776Y-119658814D01*
X150048770Y-119658813D01*
X149863699Y-119629500D01*
X149863694Y-119629500D01*
X149676306Y-119629500D01*
X149676301Y-119629500D01*
X149491229Y-119658813D01*
X149491227Y-119658813D01*
X149491224Y-119658814D01*
X149313007Y-119716721D01*
X149313004Y-119716722D01*
X149313002Y-119716723D01*
X149146040Y-119801794D01*
X149146037Y-119801795D01*
X149047778Y-119873186D01*
X148994441Y-119911938D01*
X148994439Y-119911940D01*
X148994438Y-119911940D01*
X148861940Y-120044438D01*
X148861940Y-120044439D01*
X148861938Y-120044441D01*
X148835742Y-120080497D01*
X148751795Y-120196037D01*
X148751794Y-120196040D01*
X148666723Y-120363002D01*
X148666722Y-120363004D01*
X148666721Y-120363007D01*
X148608814Y-120541224D01*
X148608813Y-120541227D01*
X148608813Y-120541229D01*
X148579500Y-120726300D01*
X145960500Y-120726300D01*
X145944510Y-120625352D01*
X145931186Y-120541224D01*
X145873279Y-120363007D01*
X145788207Y-120196042D01*
X145788204Y-120196038D01*
X145788204Y-120196037D01*
X145752133Y-120146391D01*
X145678062Y-120044441D01*
X145545559Y-119911938D01*
X145488502Y-119870484D01*
X145393962Y-119801795D01*
X145393959Y-119801794D01*
X145393960Y-119801794D01*
X145393958Y-119801793D01*
X145226993Y-119716721D01*
X145048776Y-119658814D01*
X145048770Y-119658813D01*
X144863699Y-119629500D01*
X144863694Y-119629500D01*
X144676306Y-119629500D01*
X144676301Y-119629500D01*
X144491229Y-119658813D01*
X144491227Y-119658813D01*
X144491224Y-119658814D01*
X144313007Y-119716721D01*
X144313004Y-119716722D01*
X144313002Y-119716723D01*
X144146040Y-119801794D01*
X144146037Y-119801795D01*
X144047778Y-119873186D01*
X143994441Y-119911938D01*
X143994439Y-119911940D01*
X143994438Y-119911940D01*
X143861940Y-120044438D01*
X143861940Y-120044439D01*
X143861938Y-120044441D01*
X143835742Y-120080497D01*
X143751795Y-120196037D01*
X143751794Y-120196040D01*
X143666723Y-120363002D01*
X143666722Y-120363004D01*
X143666721Y-120363007D01*
X143608814Y-120541224D01*
X143608813Y-120541227D01*
X143608813Y-120541229D01*
X143579500Y-120726300D01*
X140960500Y-120726300D01*
X140960500Y-119810249D01*
X140960499Y-119810247D01*
X140948868Y-119751770D01*
X140948867Y-119751769D01*
X140904552Y-119685447D01*
X140838230Y-119641132D01*
X140838229Y-119641131D01*
X140779752Y-119629500D01*
X140779748Y-119629500D01*
X138760252Y-119629500D01*
X138760247Y-119629500D01*
X138701770Y-119641131D01*
X138701769Y-119641132D01*
X138635447Y-119685447D01*
X138591132Y-119751769D01*
X138591131Y-119751770D01*
X138579500Y-119810247D01*
X129223256Y-119810247D01*
X129240500Y-119745892D01*
X129240500Y-119614108D01*
X129206392Y-119486814D01*
X129140500Y-119372686D01*
X129047314Y-119279500D01*
X128956929Y-119227316D01*
X128933187Y-119213608D01*
X128869539Y-119196554D01*
X128805892Y-119179500D01*
X128674108Y-119179500D01*
X128546812Y-119213608D01*
X128432686Y-119279500D01*
X128432683Y-119279502D01*
X128339502Y-119372683D01*
X128339500Y-119372686D01*
X128273608Y-119486812D01*
X128257158Y-119548205D01*
X128239500Y-119614108D01*
X99537119Y-119614108D01*
X99666458Y-119548207D01*
X99818059Y-119438062D01*
X99950562Y-119305559D01*
X100060707Y-119153958D01*
X100145779Y-118986993D01*
X100188957Y-118854108D01*
X120299500Y-118854108D01*
X120299500Y-118985891D01*
X120333608Y-119113187D01*
X120357148Y-119153958D01*
X120399500Y-119227314D01*
X120492686Y-119320500D01*
X120606814Y-119386392D01*
X120734108Y-119420500D01*
X120734110Y-119420500D01*
X120865890Y-119420500D01*
X120865892Y-119420500D01*
X120993186Y-119386392D01*
X121107314Y-119320500D01*
X121200500Y-119227314D01*
X121266392Y-119113186D01*
X121300500Y-118985892D01*
X121300500Y-118854108D01*
X121266392Y-118726814D01*
X121200500Y-118612686D01*
X121107314Y-118519500D01*
X121050250Y-118486554D01*
X120993187Y-118453608D01*
X120928591Y-118436300D01*
X120865892Y-118419500D01*
X120734108Y-118419500D01*
X120606812Y-118453608D01*
X120492686Y-118519500D01*
X120492683Y-118519502D01*
X120399502Y-118612683D01*
X120399500Y-118612686D01*
X120333608Y-118726812D01*
X120299500Y-118854108D01*
X100188957Y-118854108D01*
X100203686Y-118808776D01*
X100219251Y-118710500D01*
X100233000Y-118623699D01*
X100233000Y-118436300D01*
X100207593Y-118275891D01*
X100203686Y-118251224D01*
X100168881Y-118144108D01*
X112019500Y-118144108D01*
X112019500Y-118275891D01*
X112053608Y-118403187D01*
X112063027Y-118419500D01*
X112119500Y-118517314D01*
X112212686Y-118610500D01*
X112326814Y-118676392D01*
X112454108Y-118710500D01*
X112454110Y-118710500D01*
X112585890Y-118710500D01*
X112585892Y-118710500D01*
X112713186Y-118676392D01*
X112827314Y-118610500D01*
X112920500Y-118517314D01*
X112986392Y-118403186D01*
X113020500Y-118275892D01*
X113020500Y-118144108D01*
X112986392Y-118016814D01*
X112920500Y-117902686D01*
X112827314Y-117809500D01*
X112770250Y-117776554D01*
X112713187Y-117743608D01*
X112649539Y-117726554D01*
X112585892Y-117709500D01*
X112454108Y-117709500D01*
X112326812Y-117743608D01*
X112212686Y-117809500D01*
X112212683Y-117809502D01*
X112119502Y-117902683D01*
X112119500Y-117902686D01*
X112053608Y-118016812D01*
X112019500Y-118144108D01*
X100168881Y-118144108D01*
X100145779Y-118073007D01*
X100145777Y-118073004D01*
X100145777Y-118073002D01*
X100103964Y-117990940D01*
X100060707Y-117906042D01*
X100060704Y-117906038D01*
X100060704Y-117906037D01*
X99990566Y-117809502D01*
X99950562Y-117754441D01*
X99818059Y-117621938D01*
X99761002Y-117580484D01*
X99666462Y-117511795D01*
X99666459Y-117511794D01*
X99666460Y-117511794D01*
X99666458Y-117511793D01*
X99499493Y-117426721D01*
X99321276Y-117368814D01*
X99321270Y-117368813D01*
X99136199Y-117339500D01*
X99136194Y-117339500D01*
X96968806Y-117339500D01*
X96968801Y-117339500D01*
X96783729Y-117368813D01*
X96783727Y-117368813D01*
X96783724Y-117368814D01*
X96605507Y-117426721D01*
X96605504Y-117426722D01*
X96605502Y-117426723D01*
X96438540Y-117511794D01*
X96438537Y-117511795D01*
X96324977Y-117594302D01*
X96286941Y-117621938D01*
X96286939Y-117621940D01*
X96286938Y-117621940D01*
X96154440Y-117754438D01*
X96154440Y-117754439D01*
X96154438Y-117754441D01*
X96126802Y-117792477D01*
X96044295Y-117906037D01*
X96044294Y-117906040D01*
X95959223Y-118073002D01*
X95959222Y-118073004D01*
X95959221Y-118073007D01*
X95901314Y-118251224D01*
X95901313Y-118251227D01*
X95901313Y-118251229D01*
X95872000Y-118436300D01*
X88800500Y-118436300D01*
X88800500Y-116924108D01*
X146629500Y-116924108D01*
X146629500Y-117055891D01*
X146663608Y-117183187D01*
X146696554Y-117240250D01*
X146729500Y-117297314D01*
X146822686Y-117390500D01*
X146936814Y-117456392D01*
X147064108Y-117490500D01*
X147064110Y-117490500D01*
X147195890Y-117490500D01*
X147195892Y-117490500D01*
X147323186Y-117456392D01*
X147437314Y-117390500D01*
X147530500Y-117297314D01*
X147596392Y-117183186D01*
X147630500Y-117055892D01*
X147630500Y-116924108D01*
X147596392Y-116796814D01*
X147555226Y-116725513D01*
X200419500Y-116725513D01*
X200419500Y-116914486D01*
X200449059Y-117101118D01*
X200507454Y-117280836D01*
X200563330Y-117390497D01*
X200593240Y-117449199D01*
X200704310Y-117602073D01*
X200837927Y-117735690D01*
X200990801Y-117846760D01*
X201070347Y-117887290D01*
X201159163Y-117932545D01*
X201159165Y-117932545D01*
X201159168Y-117932547D01*
X201255497Y-117963846D01*
X201338881Y-117990940D01*
X201525514Y-118020500D01*
X201525519Y-118020500D01*
X201714486Y-118020500D01*
X201901118Y-117990940D01*
X202080832Y-117932547D01*
X202249199Y-117846760D01*
X202402073Y-117735690D01*
X202535690Y-117602073D01*
X202646760Y-117449199D01*
X202732547Y-117280832D01*
X202790940Y-117101118D01*
X202798103Y-117055891D01*
X202820500Y-116914486D01*
X202820500Y-116725513D01*
X202790940Y-116538881D01*
X202732545Y-116359163D01*
X202687290Y-116270347D01*
X202646760Y-116190801D01*
X202535690Y-116037927D01*
X202402073Y-115904310D01*
X202249199Y-115793240D01*
X202080836Y-115707454D01*
X201901118Y-115649059D01*
X201714486Y-115619500D01*
X201714481Y-115619500D01*
X201525519Y-115619500D01*
X201525514Y-115619500D01*
X201338881Y-115649059D01*
X201159163Y-115707454D01*
X200990800Y-115793240D01*
X200930136Y-115837316D01*
X200837927Y-115904310D01*
X200837925Y-115904312D01*
X200837924Y-115904312D01*
X200704312Y-116037924D01*
X200704312Y-116037925D01*
X200704310Y-116037927D01*
X200675694Y-116077313D01*
X200593240Y-116190800D01*
X200507454Y-116359163D01*
X200449059Y-116538881D01*
X200419500Y-116725513D01*
X147555226Y-116725513D01*
X147530500Y-116682686D01*
X147437314Y-116589500D01*
X147380250Y-116556554D01*
X147323187Y-116523608D01*
X147259539Y-116506554D01*
X147195892Y-116489500D01*
X147064108Y-116489500D01*
X146936812Y-116523608D01*
X146822686Y-116589500D01*
X146822683Y-116589502D01*
X146729502Y-116682683D01*
X146729500Y-116682686D01*
X146663608Y-116796812D01*
X146629500Y-116924108D01*
X88800500Y-116924108D01*
X88800500Y-115464108D01*
X126009500Y-115464108D01*
X126009500Y-115595891D01*
X126043608Y-115723187D01*
X126076554Y-115780250D01*
X126109500Y-115837314D01*
X126202686Y-115930500D01*
X126316814Y-115996392D01*
X126444108Y-116030500D01*
X126444110Y-116030500D01*
X126575890Y-116030500D01*
X126575892Y-116030500D01*
X126703186Y-115996392D01*
X126817314Y-115930500D01*
X126910500Y-115837314D01*
X126976392Y-115723186D01*
X126981504Y-115704108D01*
X158989500Y-115704108D01*
X158989500Y-115835891D01*
X159023608Y-115963187D01*
X159056554Y-116020250D01*
X159089500Y-116077314D01*
X159182686Y-116170500D01*
X159296814Y-116236392D01*
X159424108Y-116270500D01*
X159424110Y-116270500D01*
X159555890Y-116270500D01*
X159555892Y-116270500D01*
X159683186Y-116236392D01*
X159797314Y-116170500D01*
X159890500Y-116077314D01*
X159956392Y-115963186D01*
X159990500Y-115835892D01*
X159990500Y-115704108D01*
X163539500Y-115704108D01*
X163539500Y-115835891D01*
X163573608Y-115963187D01*
X163606554Y-116020250D01*
X163639500Y-116077314D01*
X163732686Y-116170500D01*
X163846814Y-116236392D01*
X163974108Y-116270500D01*
X163974110Y-116270500D01*
X164105890Y-116270500D01*
X164105892Y-116270500D01*
X164233186Y-116236392D01*
X164347314Y-116170500D01*
X164440500Y-116077314D01*
X164506392Y-115963186D01*
X164540500Y-115835892D01*
X164540500Y-115704108D01*
X171849500Y-115704108D01*
X171849500Y-115835891D01*
X171883608Y-115963187D01*
X171916554Y-116020250D01*
X171949500Y-116077314D01*
X172042686Y-116170500D01*
X172156814Y-116236392D01*
X172284108Y-116270500D01*
X172284110Y-116270500D01*
X172415890Y-116270500D01*
X172415892Y-116270500D01*
X172543186Y-116236392D01*
X172657314Y-116170500D01*
X172750500Y-116077314D01*
X172816392Y-115963186D01*
X172850500Y-115835892D01*
X172850500Y-115704108D01*
X176879500Y-115704108D01*
X176879500Y-115835891D01*
X176913608Y-115963187D01*
X176946554Y-116020250D01*
X176979500Y-116077314D01*
X177072686Y-116170500D01*
X177186814Y-116236392D01*
X177314108Y-116270500D01*
X177314110Y-116270500D01*
X177445890Y-116270500D01*
X177445892Y-116270500D01*
X177573186Y-116236392D01*
X177687314Y-116170500D01*
X177780500Y-116077314D01*
X177846392Y-115963186D01*
X177880500Y-115835892D01*
X177880500Y-115704108D01*
X185209500Y-115704108D01*
X185209500Y-115835891D01*
X185243608Y-115963187D01*
X185276554Y-116020250D01*
X185309500Y-116077314D01*
X185402686Y-116170500D01*
X185516814Y-116236392D01*
X185644108Y-116270500D01*
X185644110Y-116270500D01*
X185775890Y-116270500D01*
X185775892Y-116270500D01*
X185903186Y-116236392D01*
X186017314Y-116170500D01*
X186110500Y-116077314D01*
X186176392Y-115963186D01*
X186210500Y-115835892D01*
X186210500Y-115704108D01*
X186176392Y-115576814D01*
X186110500Y-115462686D01*
X186017314Y-115369500D01*
X185960250Y-115336554D01*
X185903187Y-115303608D01*
X185839539Y-115286554D01*
X185775892Y-115269500D01*
X185644108Y-115269500D01*
X185516812Y-115303608D01*
X185402686Y-115369500D01*
X185402683Y-115369502D01*
X185309502Y-115462683D01*
X185309500Y-115462686D01*
X185243608Y-115576812D01*
X185209500Y-115704108D01*
X177880500Y-115704108D01*
X177846392Y-115576814D01*
X177780500Y-115462686D01*
X177687314Y-115369500D01*
X177630250Y-115336554D01*
X177573187Y-115303608D01*
X177509539Y-115286554D01*
X177445892Y-115269500D01*
X177314108Y-115269500D01*
X177186812Y-115303608D01*
X177072686Y-115369500D01*
X177072683Y-115369502D01*
X176979502Y-115462683D01*
X176979500Y-115462686D01*
X176913608Y-115576812D01*
X176879500Y-115704108D01*
X172850500Y-115704108D01*
X172816392Y-115576814D01*
X172750500Y-115462686D01*
X172657314Y-115369500D01*
X172600250Y-115336554D01*
X172543187Y-115303608D01*
X172479539Y-115286554D01*
X172415892Y-115269500D01*
X172284108Y-115269500D01*
X172156812Y-115303608D01*
X172042686Y-115369500D01*
X172042683Y-115369502D01*
X171949502Y-115462683D01*
X171949500Y-115462686D01*
X171883608Y-115576812D01*
X171849500Y-115704108D01*
X164540500Y-115704108D01*
X164506392Y-115576814D01*
X164440500Y-115462686D01*
X164347314Y-115369500D01*
X164290250Y-115336554D01*
X164233187Y-115303608D01*
X164169539Y-115286554D01*
X164105892Y-115269500D01*
X163974108Y-115269500D01*
X163846812Y-115303608D01*
X163732686Y-115369500D01*
X163732683Y-115369502D01*
X163639502Y-115462683D01*
X163639500Y-115462686D01*
X163573608Y-115576812D01*
X163539500Y-115704108D01*
X159990500Y-115704108D01*
X159956392Y-115576814D01*
X159890500Y-115462686D01*
X159797314Y-115369500D01*
X159740250Y-115336554D01*
X159683187Y-115303608D01*
X159619539Y-115286554D01*
X159555892Y-115269500D01*
X159424108Y-115269500D01*
X159296812Y-115303608D01*
X159182686Y-115369500D01*
X159182683Y-115369502D01*
X159089502Y-115462683D01*
X159089500Y-115462686D01*
X159023608Y-115576812D01*
X158989500Y-115704108D01*
X126981504Y-115704108D01*
X127010500Y-115595892D01*
X127010500Y-115464108D01*
X126976392Y-115336814D01*
X126910500Y-115222686D01*
X126817314Y-115129500D01*
X126760250Y-115096554D01*
X126703187Y-115063608D01*
X126639539Y-115046554D01*
X126575892Y-115029500D01*
X126444108Y-115029500D01*
X126316812Y-115063608D01*
X126202686Y-115129500D01*
X126202683Y-115129502D01*
X126109502Y-115222683D01*
X126109500Y-115222686D01*
X126043608Y-115336812D01*
X126009500Y-115464108D01*
X88800500Y-115464108D01*
X88800500Y-114884108D01*
X145729500Y-114884108D01*
X145729500Y-115015891D01*
X145763608Y-115143187D01*
X145796554Y-115200250D01*
X145829500Y-115257314D01*
X145922686Y-115350500D01*
X146036814Y-115416392D01*
X146164108Y-115450500D01*
X146164110Y-115450500D01*
X146295890Y-115450500D01*
X146295892Y-115450500D01*
X146423186Y-115416392D01*
X146537314Y-115350500D01*
X146630500Y-115257314D01*
X146696392Y-115143186D01*
X146730500Y-115015892D01*
X146730500Y-114884108D01*
X146696392Y-114756814D01*
X146630500Y-114642686D01*
X146537314Y-114549500D01*
X146480250Y-114516554D01*
X146423187Y-114483608D01*
X146359539Y-114466554D01*
X146295892Y-114449500D01*
X146164108Y-114449500D01*
X146036812Y-114483608D01*
X145922686Y-114549500D01*
X145922683Y-114549502D01*
X145829502Y-114642683D01*
X145829500Y-114642686D01*
X145763608Y-114756812D01*
X145729500Y-114884108D01*
X88800500Y-114884108D01*
X88800500Y-113914108D01*
X106969500Y-113914108D01*
X106969500Y-114045891D01*
X107003608Y-114173187D01*
X107036554Y-114230250D01*
X107069500Y-114287314D01*
X107162686Y-114380500D01*
X107276814Y-114446392D01*
X107404108Y-114480500D01*
X107404110Y-114480500D01*
X107535890Y-114480500D01*
X107535892Y-114480500D01*
X107663186Y-114446392D01*
X107777314Y-114380500D01*
X107870500Y-114287314D01*
X107936392Y-114173186D01*
X107970500Y-114045892D01*
X107970500Y-113914108D01*
X107936392Y-113786814D01*
X107870500Y-113672686D01*
X107777314Y-113579500D01*
X107712672Y-113542179D01*
X107663187Y-113513608D01*
X107599539Y-113496554D01*
X107535892Y-113479500D01*
X107404108Y-113479500D01*
X107276812Y-113513608D01*
X107162686Y-113579500D01*
X107162683Y-113579502D01*
X107069502Y-113672683D01*
X107069500Y-113672686D01*
X107003608Y-113786812D01*
X106969500Y-113914108D01*
X88800500Y-113914108D01*
X88800500Y-113474108D01*
X117179500Y-113474108D01*
X117179500Y-113605891D01*
X117213608Y-113733187D01*
X117244569Y-113786812D01*
X117279500Y-113847314D01*
X117372686Y-113940500D01*
X117486814Y-114006392D01*
X117614108Y-114040500D01*
X117614110Y-114040500D01*
X117745890Y-114040500D01*
X117745892Y-114040500D01*
X117873186Y-114006392D01*
X117987314Y-113940500D01*
X118013706Y-113914108D01*
X118609500Y-113914108D01*
X118609500Y-114045891D01*
X118643608Y-114173187D01*
X118676554Y-114230250D01*
X118709500Y-114287314D01*
X118802686Y-114380500D01*
X118916814Y-114446392D01*
X119044108Y-114480500D01*
X119044110Y-114480500D01*
X119175890Y-114480500D01*
X119175892Y-114480500D01*
X119303186Y-114446392D01*
X119417314Y-114380500D01*
X119510500Y-114287314D01*
X119576392Y-114173186D01*
X119610500Y-114045892D01*
X119610500Y-113914108D01*
X119576392Y-113786814D01*
X119510500Y-113672686D01*
X119417314Y-113579500D01*
X119360250Y-113546554D01*
X119303187Y-113513608D01*
X119239539Y-113496554D01*
X119175892Y-113479500D01*
X119044108Y-113479500D01*
X118916812Y-113513608D01*
X118802686Y-113579500D01*
X118802683Y-113579502D01*
X118709502Y-113672683D01*
X118709500Y-113672686D01*
X118643608Y-113786812D01*
X118609500Y-113914108D01*
X118013706Y-113914108D01*
X118080500Y-113847314D01*
X118146392Y-113733186D01*
X118180500Y-113605892D01*
X118180500Y-113474108D01*
X118146392Y-113346814D01*
X118133283Y-113324108D01*
X137819500Y-113324108D01*
X137819500Y-113455892D01*
X137825826Y-113479500D01*
X137853608Y-113583187D01*
X137866717Y-113605892D01*
X137919500Y-113697314D01*
X138012686Y-113790500D01*
X138126814Y-113856392D01*
X138254108Y-113890500D01*
X138254110Y-113890500D01*
X138385890Y-113890500D01*
X138385892Y-113890500D01*
X138513186Y-113856392D01*
X138627314Y-113790500D01*
X138720500Y-113697314D01*
X138786392Y-113583186D01*
X138820500Y-113455892D01*
X138820500Y-113324108D01*
X138786392Y-113196814D01*
X138720500Y-113082686D01*
X138627314Y-112989500D01*
X138570250Y-112956554D01*
X138513187Y-112923608D01*
X138449539Y-112906554D01*
X138385892Y-112889500D01*
X138254108Y-112889500D01*
X138126812Y-112923608D01*
X138012686Y-112989500D01*
X138012683Y-112989502D01*
X137919502Y-113082683D01*
X137919500Y-113082686D01*
X137853608Y-113196812D01*
X137843997Y-113232683D01*
X137819500Y-113324108D01*
X118133283Y-113324108D01*
X118080500Y-113232686D01*
X117987314Y-113139500D01*
X117888910Y-113082686D01*
X117873187Y-113073608D01*
X117809539Y-113056554D01*
X117745892Y-113039500D01*
X117614108Y-113039500D01*
X117486812Y-113073608D01*
X117372686Y-113139500D01*
X117372683Y-113139502D01*
X117279502Y-113232683D01*
X117279500Y-113232686D01*
X117213608Y-113346812D01*
X117179500Y-113474108D01*
X88800500Y-113474108D01*
X88800500Y-112174108D01*
X104949500Y-112174108D01*
X104949500Y-112305891D01*
X104983608Y-112433187D01*
X105005151Y-112470499D01*
X105049500Y-112547314D01*
X105142686Y-112640500D01*
X105256814Y-112706392D01*
X105384108Y-112740500D01*
X105384110Y-112740500D01*
X105515890Y-112740500D01*
X105515892Y-112740500D01*
X105643186Y-112706392D01*
X105757314Y-112640500D01*
X105850500Y-112547314D01*
X105916392Y-112433186D01*
X105950500Y-112305892D01*
X105950500Y-112174108D01*
X108849500Y-112174108D01*
X108849500Y-112305891D01*
X108883608Y-112433187D01*
X108905151Y-112470499D01*
X108949500Y-112547314D01*
X109042686Y-112640500D01*
X109156814Y-112706392D01*
X109284108Y-112740500D01*
X109284110Y-112740500D01*
X109415890Y-112740500D01*
X109415892Y-112740500D01*
X109543186Y-112706392D01*
X109657314Y-112640500D01*
X109750500Y-112547314D01*
X109816392Y-112433186D01*
X109850500Y-112305892D01*
X109850500Y-112174108D01*
X109816392Y-112046814D01*
X109791736Y-112004108D01*
X135609500Y-112004108D01*
X135609500Y-112135891D01*
X135643608Y-112263187D01*
X135668263Y-112305890D01*
X135709500Y-112377314D01*
X135802686Y-112470500D01*
X135916814Y-112536392D01*
X136044108Y-112570500D01*
X136044110Y-112570500D01*
X136175890Y-112570500D01*
X136175892Y-112570500D01*
X136303186Y-112536392D01*
X136417314Y-112470500D01*
X136477319Y-112410495D01*
X136538642Y-112377010D01*
X136608334Y-112381994D01*
X136652681Y-112410495D01*
X136702686Y-112460500D01*
X136816814Y-112526392D01*
X136944108Y-112560500D01*
X136944110Y-112560500D01*
X137075890Y-112560500D01*
X137075892Y-112560500D01*
X137203186Y-112526392D01*
X137317314Y-112460500D01*
X137410500Y-112367314D01*
X137476392Y-112253186D01*
X137510500Y-112125892D01*
X137510500Y-111994108D01*
X137476392Y-111866814D01*
X137410500Y-111752686D01*
X137317314Y-111659500D01*
X137260250Y-111626554D01*
X137203187Y-111593608D01*
X137139539Y-111576554D01*
X137075892Y-111559500D01*
X136944108Y-111559500D01*
X136816812Y-111593608D01*
X136702686Y-111659500D01*
X136702683Y-111659502D01*
X136642681Y-111719505D01*
X136581358Y-111752990D01*
X136511666Y-111748006D01*
X136467319Y-111719505D01*
X136417316Y-111669502D01*
X136417314Y-111669500D01*
X136360250Y-111636554D01*
X136303187Y-111603608D01*
X136239539Y-111586554D01*
X136175892Y-111569500D01*
X136044108Y-111569500D01*
X135916812Y-111603608D01*
X135802686Y-111669500D01*
X135802683Y-111669502D01*
X135709502Y-111762683D01*
X135709500Y-111762686D01*
X135643608Y-111876812D01*
X135609500Y-112004108D01*
X109791736Y-112004108D01*
X109750500Y-111932686D01*
X109657314Y-111839500D01*
X109599968Y-111806391D01*
X109543187Y-111773608D01*
X109447637Y-111748006D01*
X109415892Y-111739500D01*
X109284108Y-111739500D01*
X109156812Y-111773608D01*
X109042686Y-111839500D01*
X109042683Y-111839502D01*
X108949502Y-111932683D01*
X108949500Y-111932686D01*
X108883608Y-112046812D01*
X108849500Y-112174108D01*
X105950500Y-112174108D01*
X105916392Y-112046814D01*
X105850500Y-111932686D01*
X105757314Y-111839500D01*
X105699968Y-111806391D01*
X105643187Y-111773608D01*
X105547637Y-111748006D01*
X105515892Y-111739500D01*
X105384108Y-111739500D01*
X105256812Y-111773608D01*
X105142686Y-111839500D01*
X105142683Y-111839502D01*
X105049502Y-111932683D01*
X105049500Y-111932686D01*
X104983608Y-112046812D01*
X104949500Y-112174108D01*
X88800500Y-112174108D01*
X88800500Y-111274108D01*
X129109500Y-111274108D01*
X129109500Y-111405891D01*
X129143608Y-111533187D01*
X129158800Y-111559500D01*
X129209500Y-111647314D01*
X129302686Y-111740500D01*
X129416814Y-111806392D01*
X129544108Y-111840500D01*
X129544110Y-111840500D01*
X129675890Y-111840500D01*
X129675892Y-111840500D01*
X129803186Y-111806392D01*
X129917314Y-111740500D01*
X130010500Y-111647314D01*
X130076392Y-111533186D01*
X130110500Y-111405892D01*
X130110500Y-111274108D01*
X130076392Y-111146814D01*
X130010500Y-111032686D01*
X129917314Y-110939500D01*
X129859968Y-110906391D01*
X129803187Y-110873608D01*
X129739539Y-110856554D01*
X129675892Y-110839500D01*
X129544108Y-110839500D01*
X129416812Y-110873608D01*
X129302686Y-110939500D01*
X129302683Y-110939502D01*
X129209502Y-111032683D01*
X129209500Y-111032686D01*
X129143608Y-111146812D01*
X129109500Y-111274108D01*
X88800500Y-111274108D01*
X88800500Y-110374108D01*
X135589500Y-110374108D01*
X135589500Y-110505891D01*
X135623608Y-110633187D01*
X135624226Y-110634257D01*
X135689500Y-110747314D01*
X135782686Y-110840500D01*
X135896814Y-110906392D01*
X136024108Y-110940500D01*
X136024110Y-110940500D01*
X136155890Y-110940500D01*
X136155892Y-110940500D01*
X136283186Y-110906392D01*
X136397314Y-110840500D01*
X136472319Y-110765495D01*
X136533642Y-110732010D01*
X136603334Y-110736994D01*
X136647681Y-110765495D01*
X136702686Y-110820500D01*
X136816814Y-110886392D01*
X136944108Y-110920500D01*
X136944110Y-110920500D01*
X137075890Y-110920500D01*
X137075892Y-110920500D01*
X137203186Y-110886392D01*
X137317314Y-110820500D01*
X137410500Y-110727314D01*
X137476392Y-110613186D01*
X137510500Y-110485892D01*
X137510500Y-110354108D01*
X137476392Y-110226814D01*
X137410500Y-110112686D01*
X137317314Y-110019500D01*
X137237827Y-109973608D01*
X137203187Y-109953608D01*
X137139539Y-109936554D01*
X137075892Y-109919500D01*
X136944108Y-109919500D01*
X136816812Y-109953608D01*
X136702686Y-110019500D01*
X136702683Y-110019502D01*
X136627681Y-110094505D01*
X136566358Y-110127990D01*
X136496666Y-110123006D01*
X136452319Y-110094505D01*
X136397316Y-110039502D01*
X136397314Y-110039500D01*
X136329764Y-110000500D01*
X136283187Y-109973608D01*
X136208544Y-109953608D01*
X136155892Y-109939500D01*
X136024108Y-109939500D01*
X135896812Y-109973608D01*
X135782686Y-110039500D01*
X135782683Y-110039502D01*
X135689502Y-110132683D01*
X135689500Y-110132686D01*
X135623608Y-110246812D01*
X135589500Y-110374108D01*
X88800500Y-110374108D01*
X88800500Y-107620729D01*
X105544500Y-107620729D01*
X105544500Y-109429260D01*
X105544501Y-109429266D01*
X105547354Y-109459700D01*
X105547354Y-109459702D01*
X105547355Y-109459703D01*
X105547355Y-109459705D01*
X105592206Y-109587882D01*
X105672849Y-109697150D01*
X105717655Y-109730218D01*
X105782117Y-109777793D01*
X105824844Y-109792744D01*
X105910298Y-109822646D01*
X105917323Y-109823304D01*
X105940733Y-109825500D01*
X107749266Y-109825499D01*
X107779700Y-109822646D01*
X107907883Y-109777793D01*
X108017150Y-109697150D01*
X108097793Y-109587883D01*
X108122608Y-109516966D01*
X108142646Y-109459702D01*
X108142646Y-109459700D01*
X108145500Y-109429267D01*
X108145499Y-108422648D01*
X115704500Y-108422648D01*
X115704500Y-108627351D01*
X115736522Y-108829534D01*
X115799781Y-109024223D01*
X115857404Y-109137313D01*
X115885618Y-109192686D01*
X115892715Y-109206613D01*
X116013028Y-109372213D01*
X116157786Y-109516971D01*
X116312749Y-109629556D01*
X116323390Y-109637287D01*
X116433098Y-109693186D01*
X116505776Y-109730218D01*
X116505778Y-109730218D01*
X116505781Y-109730220D01*
X116610137Y-109764127D01*
X116700465Y-109793477D01*
X116801557Y-109809488D01*
X116902648Y-109825500D01*
X116902649Y-109825500D01*
X117107351Y-109825500D01*
X117107352Y-109825500D01*
X117309534Y-109793477D01*
X117504219Y-109730220D01*
X117686610Y-109637287D01*
X117784880Y-109565890D01*
X117852213Y-109516971D01*
X117852215Y-109516968D01*
X117852219Y-109516966D01*
X117935077Y-109434108D01*
X134529500Y-109434108D01*
X134529500Y-109565892D01*
X134546554Y-109629539D01*
X134563608Y-109693187D01*
X134596554Y-109750250D01*
X134629500Y-109807314D01*
X134722686Y-109900500D01*
X134836814Y-109966392D01*
X134964108Y-110000500D01*
X134964110Y-110000500D01*
X135095890Y-110000500D01*
X135095892Y-110000500D01*
X135223186Y-109966392D01*
X135337314Y-109900500D01*
X135430500Y-109807314D01*
X135496392Y-109693186D01*
X135530500Y-109565892D01*
X135530500Y-109434108D01*
X135496392Y-109306814D01*
X135430500Y-109192686D01*
X135337314Y-109099500D01*
X135252439Y-109050497D01*
X135223187Y-109033608D01*
X135136941Y-109010499D01*
X135095892Y-108999500D01*
X134964108Y-108999500D01*
X134836812Y-109033608D01*
X134722686Y-109099500D01*
X134722683Y-109099502D01*
X134629502Y-109192683D01*
X134629500Y-109192686D01*
X134563608Y-109306812D01*
X134546083Y-109372219D01*
X134529500Y-109434108D01*
X117935077Y-109434108D01*
X117996966Y-109372219D01*
X117996968Y-109372215D01*
X117996971Y-109372213D01*
X118052058Y-109296391D01*
X118117287Y-109206610D01*
X118210220Y-109024219D01*
X118273477Y-108829534D01*
X118283840Y-108764108D01*
X123269500Y-108764108D01*
X123269500Y-108895892D01*
X123278773Y-108930499D01*
X123303608Y-109023187D01*
X123334326Y-109076391D01*
X123369500Y-109137314D01*
X123462686Y-109230500D01*
X123576814Y-109296392D01*
X123704108Y-109330500D01*
X123704110Y-109330500D01*
X123835890Y-109330500D01*
X123835892Y-109330500D01*
X123963186Y-109296392D01*
X124077314Y-109230500D01*
X124170500Y-109137314D01*
X124236392Y-109023186D01*
X124270500Y-108895892D01*
X124270500Y-108764108D01*
X124236392Y-108636814D01*
X124205962Y-108584108D01*
X166559500Y-108584108D01*
X166559500Y-108715892D01*
X166572419Y-108764108D01*
X166593608Y-108843187D01*
X166624037Y-108895890D01*
X166659500Y-108957314D01*
X166752686Y-109050500D01*
X166866814Y-109116392D01*
X166994108Y-109150500D01*
X166994110Y-109150500D01*
X167125890Y-109150500D01*
X167125892Y-109150500D01*
X167253186Y-109116392D01*
X167367314Y-109050500D01*
X167460500Y-108957314D01*
X167526392Y-108843186D01*
X167560500Y-108715892D01*
X167560500Y-108584108D01*
X167549782Y-108544108D01*
X179999500Y-108544108D01*
X179999500Y-108675891D01*
X180033608Y-108803187D01*
X180066554Y-108860250D01*
X180099500Y-108917314D01*
X180192686Y-109010500D01*
X180306814Y-109076392D01*
X180434108Y-109110500D01*
X180434110Y-109110500D01*
X180565890Y-109110500D01*
X180565892Y-109110500D01*
X180693186Y-109076392D01*
X180807314Y-109010500D01*
X180900500Y-108917314D01*
X180966392Y-108803186D01*
X181000500Y-108675892D01*
X181000500Y-108544108D01*
X180966392Y-108416814D01*
X180935962Y-108364108D01*
X193079500Y-108364108D01*
X193079500Y-108495892D01*
X193086680Y-108522689D01*
X193113608Y-108623187D01*
X193116013Y-108627352D01*
X193179500Y-108737314D01*
X193272686Y-108830500D01*
X193371521Y-108887563D01*
X193385944Y-108895890D01*
X193386814Y-108896392D01*
X193514108Y-108930500D01*
X193514110Y-108930500D01*
X193645890Y-108930500D01*
X193645892Y-108930500D01*
X193773186Y-108896392D01*
X193887314Y-108830500D01*
X193980500Y-108737314D01*
X194046392Y-108623186D01*
X194080500Y-108495892D01*
X194080500Y-108364108D01*
X194046392Y-108236814D01*
X193980500Y-108122686D01*
X193887314Y-108029500D01*
X193830250Y-107996554D01*
X193773187Y-107963608D01*
X193709539Y-107946554D01*
X193645892Y-107929500D01*
X193514108Y-107929500D01*
X193386812Y-107963608D01*
X193272686Y-108029500D01*
X193272683Y-108029502D01*
X193179502Y-108122683D01*
X193179500Y-108122686D01*
X193113608Y-108236812D01*
X193095958Y-108302686D01*
X193079500Y-108364108D01*
X180935962Y-108364108D01*
X180900500Y-108302686D01*
X180807314Y-108209500D01*
X180750250Y-108176554D01*
X180693187Y-108143608D01*
X180615092Y-108122683D01*
X180565892Y-108109500D01*
X180434108Y-108109500D01*
X180306812Y-108143608D01*
X180192686Y-108209500D01*
X180192683Y-108209502D01*
X180099502Y-108302683D01*
X180099500Y-108302686D01*
X180033608Y-108416812D01*
X179999500Y-108544108D01*
X167549782Y-108544108D01*
X167526392Y-108456814D01*
X167460500Y-108342686D01*
X167367314Y-108249500D01*
X167298032Y-108209500D01*
X167253187Y-108183608D01*
X167189539Y-108166554D01*
X167125892Y-108149500D01*
X166994108Y-108149500D01*
X166866812Y-108183608D01*
X166752686Y-108249500D01*
X166752683Y-108249502D01*
X166659502Y-108342683D01*
X166659500Y-108342686D01*
X166593608Y-108456812D01*
X166575958Y-108522686D01*
X166559500Y-108584108D01*
X124205962Y-108584108D01*
X124170500Y-108522686D01*
X124077314Y-108429500D01*
X124020250Y-108396554D01*
X123963187Y-108363608D01*
X123885092Y-108342683D01*
X123835892Y-108329500D01*
X123704108Y-108329500D01*
X123576812Y-108363608D01*
X123462686Y-108429500D01*
X123462683Y-108429502D01*
X123369502Y-108522683D01*
X123369500Y-108522686D01*
X123303608Y-108636812D01*
X123282419Y-108715892D01*
X123269500Y-108764108D01*
X118283840Y-108764108D01*
X118305500Y-108627352D01*
X118305500Y-108422648D01*
X118273477Y-108220466D01*
X118210220Y-108025781D01*
X118210218Y-108025778D01*
X118210218Y-108025776D01*
X118161162Y-107929500D01*
X118117287Y-107843390D01*
X118109556Y-107832749D01*
X117996971Y-107677786D01*
X117852213Y-107533028D01*
X117686613Y-107412715D01*
X117686612Y-107412714D01*
X117686610Y-107412713D01*
X117629653Y-107383691D01*
X117504223Y-107319781D01*
X117424605Y-107293912D01*
X117309534Y-107256522D01*
X117125371Y-107227354D01*
X117107352Y-107224500D01*
X116902648Y-107224500D01*
X116884635Y-107227353D01*
X116700465Y-107256522D01*
X116505776Y-107319781D01*
X116323386Y-107412715D01*
X116157786Y-107533028D01*
X116013028Y-107677786D01*
X115892715Y-107843386D01*
X115799781Y-108025776D01*
X115736522Y-108220465D01*
X115704500Y-108422648D01*
X108145499Y-108422648D01*
X108145499Y-107620734D01*
X108142646Y-107590300D01*
X108131104Y-107557316D01*
X108097793Y-107462117D01*
X108017150Y-107352849D01*
X107937292Y-107293912D01*
X107907883Y-107272207D01*
X107907881Y-107272206D01*
X107779701Y-107227353D01*
X107749270Y-107224500D01*
X105940739Y-107224500D01*
X105926751Y-107225811D01*
X105910300Y-107227354D01*
X105910297Y-107227354D01*
X105910296Y-107227355D01*
X105910294Y-107227355D01*
X105782117Y-107272206D01*
X105672849Y-107352849D01*
X105592206Y-107462118D01*
X105547353Y-107590297D01*
X105547353Y-107590299D01*
X105544500Y-107620729D01*
X88800500Y-107620729D01*
X88800500Y-107184108D01*
X142629500Y-107184108D01*
X142629500Y-107315891D01*
X142663608Y-107443187D01*
X142674538Y-107462118D01*
X142729500Y-107557314D01*
X142822686Y-107650500D01*
X142936814Y-107716392D01*
X143064108Y-107750500D01*
X143064110Y-107750500D01*
X143195890Y-107750500D01*
X143195892Y-107750500D01*
X143323186Y-107716392D01*
X143437314Y-107650500D01*
X143530500Y-107557314D01*
X143596392Y-107443186D01*
X143630500Y-107315892D01*
X143630500Y-107184108D01*
X143596392Y-107056814D01*
X143530500Y-106942686D01*
X143437314Y-106849500D01*
X143380250Y-106816554D01*
X143323187Y-106783608D01*
X143259539Y-106766554D01*
X143195892Y-106749500D01*
X143064108Y-106749500D01*
X142936812Y-106783608D01*
X142822686Y-106849500D01*
X142822683Y-106849502D01*
X142729502Y-106942683D01*
X142729500Y-106942686D01*
X142663608Y-107056812D01*
X142629500Y-107184108D01*
X88800500Y-107184108D01*
X88800500Y-105904108D01*
X142659500Y-105904108D01*
X142659500Y-106035891D01*
X142693608Y-106163187D01*
X142726554Y-106220250D01*
X142759500Y-106277314D01*
X142852686Y-106370500D01*
X142966814Y-106436392D01*
X143094108Y-106470500D01*
X143094110Y-106470500D01*
X143225890Y-106470500D01*
X143225892Y-106470500D01*
X143353186Y-106436392D01*
X143467314Y-106370500D01*
X143560500Y-106277314D01*
X143626392Y-106163186D01*
X143643561Y-106099108D01*
X162344500Y-106099108D01*
X162344500Y-106230891D01*
X162378608Y-106358187D01*
X162411554Y-106415250D01*
X162444500Y-106472314D01*
X162537686Y-106565500D01*
X162651814Y-106631392D01*
X162779108Y-106665500D01*
X162779110Y-106665500D01*
X162910890Y-106665500D01*
X162910892Y-106665500D01*
X163038186Y-106631392D01*
X163152314Y-106565500D01*
X163245500Y-106472314D01*
X163311392Y-106358186D01*
X163345500Y-106230892D01*
X163345500Y-106099108D01*
X163311392Y-105971814D01*
X163245500Y-105857686D01*
X163152314Y-105764500D01*
X163086309Y-105726392D01*
X163038187Y-105698608D01*
X162974539Y-105681554D01*
X162910892Y-105664500D01*
X162779108Y-105664500D01*
X162651812Y-105698608D01*
X162537686Y-105764500D01*
X162537683Y-105764502D01*
X162444502Y-105857683D01*
X162444500Y-105857686D01*
X162378608Y-105971812D01*
X162344500Y-106099108D01*
X143643561Y-106099108D01*
X143660500Y-106035892D01*
X143660500Y-105904108D01*
X143626392Y-105776814D01*
X143619282Y-105764500D01*
X143616973Y-105760500D01*
X143560500Y-105662686D01*
X143467314Y-105569500D01*
X143410250Y-105536554D01*
X143353187Y-105503608D01*
X143289539Y-105486554D01*
X143225892Y-105469500D01*
X143094108Y-105469500D01*
X142966812Y-105503608D01*
X142852686Y-105569500D01*
X142852683Y-105569502D01*
X142759502Y-105662683D01*
X142759500Y-105662686D01*
X142693608Y-105776812D01*
X142659500Y-105904108D01*
X88800500Y-105904108D01*
X88800500Y-105194108D01*
X175549500Y-105194108D01*
X175549500Y-105325891D01*
X175583608Y-105453187D01*
X175593027Y-105469500D01*
X175649500Y-105567314D01*
X175742686Y-105660500D01*
X175856814Y-105726392D01*
X175984108Y-105760500D01*
X175984110Y-105760500D01*
X176115890Y-105760500D01*
X176115892Y-105760500D01*
X176243186Y-105726392D01*
X176357314Y-105660500D01*
X176450500Y-105567314D01*
X176516392Y-105453186D01*
X176550500Y-105325892D01*
X176550500Y-105194108D01*
X188649500Y-105194108D01*
X188649500Y-105325891D01*
X188683608Y-105453187D01*
X188693027Y-105469500D01*
X188749500Y-105567314D01*
X188842686Y-105660500D01*
X188956814Y-105726392D01*
X189084108Y-105760500D01*
X189084110Y-105760500D01*
X189215890Y-105760500D01*
X189215892Y-105760500D01*
X189343186Y-105726392D01*
X189457314Y-105660500D01*
X189550500Y-105567314D01*
X189616392Y-105453186D01*
X189650500Y-105325892D01*
X189650500Y-105194108D01*
X189616392Y-105066814D01*
X189550500Y-104952686D01*
X189457314Y-104859500D01*
X189400250Y-104826554D01*
X189343187Y-104793608D01*
X189279539Y-104776554D01*
X189215892Y-104759500D01*
X189084108Y-104759500D01*
X188956812Y-104793608D01*
X188842686Y-104859500D01*
X188842683Y-104859502D01*
X188749502Y-104952683D01*
X188749500Y-104952686D01*
X188683608Y-105066812D01*
X188649500Y-105194108D01*
X176550500Y-105194108D01*
X176516392Y-105066814D01*
X176450500Y-104952686D01*
X176357314Y-104859500D01*
X176300250Y-104826554D01*
X176243187Y-104793608D01*
X176179539Y-104776554D01*
X176115892Y-104759500D01*
X175984108Y-104759500D01*
X175856812Y-104793608D01*
X175742686Y-104859500D01*
X175742683Y-104859502D01*
X175649502Y-104952683D01*
X175649500Y-104952686D01*
X175583608Y-105066812D01*
X175549500Y-105194108D01*
X88800500Y-105194108D01*
X88800500Y-103784108D01*
X136609500Y-103784108D01*
X136609500Y-103915891D01*
X136643608Y-104043187D01*
X136676554Y-104100250D01*
X136709500Y-104157314D01*
X136802686Y-104250500D01*
X136916814Y-104316392D01*
X137044108Y-104350500D01*
X137044110Y-104350500D01*
X137175890Y-104350500D01*
X137175892Y-104350500D01*
X137303186Y-104316392D01*
X137417314Y-104250500D01*
X137510500Y-104157314D01*
X137576392Y-104043186D01*
X137610500Y-103915892D01*
X137610500Y-103879108D01*
X201829500Y-103879108D01*
X201829500Y-104010892D01*
X201836951Y-104038699D01*
X201863608Y-104138187D01*
X201896554Y-104195250D01*
X201929500Y-104252314D01*
X202022686Y-104345500D01*
X202136814Y-104411392D01*
X202264108Y-104445500D01*
X202264110Y-104445500D01*
X202395890Y-104445500D01*
X202395892Y-104445500D01*
X202523186Y-104411392D01*
X202637314Y-104345500D01*
X202730500Y-104252314D01*
X202796392Y-104138186D01*
X202830500Y-104010892D01*
X202830500Y-103879108D01*
X202823049Y-103851300D01*
X207319500Y-103851300D01*
X207319500Y-104038699D01*
X207348813Y-104223770D01*
X207348814Y-104223776D01*
X207406721Y-104401993D01*
X207406722Y-104401996D01*
X207406723Y-104401997D01*
X207491794Y-104568959D01*
X207491795Y-104568962D01*
X207537587Y-104631988D01*
X207601938Y-104720559D01*
X207734441Y-104853062D01*
X207820025Y-104915243D01*
X207886037Y-104963204D01*
X207886038Y-104963204D01*
X207886042Y-104963207D01*
X208053007Y-105048279D01*
X208231224Y-105106186D01*
X208323765Y-105120843D01*
X208416301Y-105135500D01*
X208416306Y-105135500D01*
X210583699Y-105135500D01*
X210667822Y-105122175D01*
X210768776Y-105106186D01*
X210946993Y-105048279D01*
X211113958Y-104963207D01*
X211265559Y-104853062D01*
X211398062Y-104720559D01*
X211508207Y-104568958D01*
X211593279Y-104401993D01*
X211651186Y-104223776D01*
X211667175Y-104122822D01*
X211680500Y-104038699D01*
X211680500Y-103851300D01*
X211664510Y-103750352D01*
X211651186Y-103666224D01*
X211593279Y-103488007D01*
X211508207Y-103321042D01*
X211508204Y-103321038D01*
X211508204Y-103321037D01*
X211476230Y-103277029D01*
X211398062Y-103169441D01*
X211265559Y-103036938D01*
X211140934Y-102946392D01*
X211113962Y-102926795D01*
X211113959Y-102926794D01*
X211113960Y-102926794D01*
X211113958Y-102926793D01*
X210946993Y-102841721D01*
X210768776Y-102783814D01*
X210768770Y-102783813D01*
X210583699Y-102754500D01*
X210583694Y-102754500D01*
X208416306Y-102754500D01*
X208416301Y-102754500D01*
X208231229Y-102783813D01*
X208231227Y-102783813D01*
X208231224Y-102783814D01*
X208053007Y-102841721D01*
X208053004Y-102841722D01*
X208053002Y-102841723D01*
X207886040Y-102926794D01*
X207886037Y-102926795D01*
X207772477Y-103009302D01*
X207734441Y-103036938D01*
X207734439Y-103036940D01*
X207734438Y-103036940D01*
X207601940Y-103169438D01*
X207601940Y-103169439D01*
X207601938Y-103169441D01*
X207574302Y-103207477D01*
X207491795Y-103321037D01*
X207491794Y-103321040D01*
X207406723Y-103488002D01*
X207406722Y-103488004D01*
X207406721Y-103488007D01*
X207348814Y-103666224D01*
X207348813Y-103666227D01*
X207348813Y-103666229D01*
X207319500Y-103851300D01*
X202823049Y-103851300D01*
X202796392Y-103751814D01*
X202730500Y-103637686D01*
X202637314Y-103544500D01*
X202539466Y-103488007D01*
X202523187Y-103478608D01*
X202459539Y-103461554D01*
X202395892Y-103444500D01*
X202264108Y-103444500D01*
X202136812Y-103478608D01*
X202022686Y-103544500D01*
X202022683Y-103544502D01*
X201929502Y-103637683D01*
X201929500Y-103637686D01*
X201863608Y-103751812D01*
X201854955Y-103784108D01*
X201829500Y-103879108D01*
X137610500Y-103879108D01*
X137610500Y-103784108D01*
X137576392Y-103656814D01*
X137510500Y-103542686D01*
X137417314Y-103449500D01*
X137360250Y-103416554D01*
X137303187Y-103383608D01*
X137239539Y-103366554D01*
X137175892Y-103349500D01*
X137044108Y-103349500D01*
X136916812Y-103383608D01*
X136802686Y-103449500D01*
X136802683Y-103449502D01*
X136709502Y-103542683D01*
X136709500Y-103542686D01*
X136643608Y-103656812D01*
X136609500Y-103784108D01*
X88800500Y-103784108D01*
X88800500Y-101293549D01*
X92237000Y-101293549D01*
X92237000Y-101516450D01*
X92237001Y-101516466D01*
X92266094Y-101737452D01*
X92266095Y-101737457D01*
X92266096Y-101737463D01*
X92306249Y-101887316D01*
X92323790Y-101952780D01*
X92323793Y-101952790D01*
X92394374Y-102123187D01*
X92409095Y-102158726D01*
X92520552Y-102351774D01*
X92520557Y-102351780D01*
X92520558Y-102351782D01*
X92656251Y-102528622D01*
X92656257Y-102528629D01*
X92813870Y-102686242D01*
X92813877Y-102686248D01*
X92939794Y-102782867D01*
X92990726Y-102821948D01*
X93183774Y-102933405D01*
X93389719Y-103018710D01*
X93605037Y-103076404D01*
X93826043Y-103105500D01*
X93826050Y-103105500D01*
X94048950Y-103105500D01*
X94048957Y-103105500D01*
X94269963Y-103076404D01*
X94485281Y-103018710D01*
X94691226Y-102933405D01*
X94884274Y-102821948D01*
X95061124Y-102686247D01*
X95218747Y-102528624D01*
X95306618Y-102414108D01*
X128089500Y-102414108D01*
X128089500Y-102545891D01*
X128123608Y-102673187D01*
X128131149Y-102686248D01*
X128189500Y-102787314D01*
X128282686Y-102880500D01*
X128396814Y-102946392D01*
X128524108Y-102980500D01*
X128524110Y-102980500D01*
X128655890Y-102980500D01*
X128655892Y-102980500D01*
X128783186Y-102946392D01*
X128897314Y-102880500D01*
X128990500Y-102787314D01*
X129056392Y-102673186D01*
X129090500Y-102545892D01*
X129090500Y-102414108D01*
X129056392Y-102286814D01*
X128990500Y-102172686D01*
X128897314Y-102079500D01*
X128839100Y-102045890D01*
X128783187Y-102013608D01*
X128717061Y-101995890D01*
X128655892Y-101979500D01*
X128524108Y-101979500D01*
X128396812Y-102013608D01*
X128282686Y-102079500D01*
X128282683Y-102079502D01*
X128189502Y-102172683D01*
X128189500Y-102172686D01*
X128123608Y-102286812D01*
X128089500Y-102414108D01*
X95306618Y-102414108D01*
X95354448Y-102351774D01*
X95465905Y-102158726D01*
X95551210Y-101952781D01*
X95608904Y-101737463D01*
X95638000Y-101516457D01*
X95638000Y-101514108D01*
X154729500Y-101514108D01*
X154729500Y-101645892D01*
X154746554Y-101709539D01*
X154763608Y-101773187D01*
X154763609Y-101773188D01*
X154829500Y-101887314D01*
X154922686Y-101980500D01*
X154980031Y-102013608D01*
X155035944Y-102045890D01*
X155036814Y-102046392D01*
X155164108Y-102080500D01*
X155164110Y-102080500D01*
X155295890Y-102080500D01*
X155295892Y-102080500D01*
X155423186Y-102046392D01*
X155537314Y-101980500D01*
X155630500Y-101887314D01*
X155643898Y-101864108D01*
X168829500Y-101864108D01*
X168829500Y-101995891D01*
X168863608Y-102123187D01*
X168884125Y-102158722D01*
X168929500Y-102237314D01*
X169022686Y-102330500D01*
X169136814Y-102396392D01*
X169264108Y-102430500D01*
X169264110Y-102430500D01*
X169395890Y-102430500D01*
X169395892Y-102430500D01*
X169523186Y-102396392D01*
X169637314Y-102330500D01*
X169730500Y-102237314D01*
X169796392Y-102123186D01*
X169830500Y-101995892D01*
X169830500Y-101914108D01*
X182249500Y-101914108D01*
X182249500Y-102045891D01*
X182283608Y-102173187D01*
X182316554Y-102230250D01*
X182349500Y-102287314D01*
X182442686Y-102380500D01*
X182556814Y-102446392D01*
X182684108Y-102480500D01*
X182684110Y-102480500D01*
X182815890Y-102480500D01*
X182815892Y-102480500D01*
X182943186Y-102446392D01*
X183057314Y-102380500D01*
X183150500Y-102287314D01*
X183216392Y-102173186D01*
X183250500Y-102045892D01*
X183250500Y-101914108D01*
X183216392Y-101786814D01*
X183150500Y-101672686D01*
X183057314Y-101579500D01*
X183000250Y-101546554D01*
X182943187Y-101513608D01*
X182879539Y-101496554D01*
X182815892Y-101479500D01*
X182684108Y-101479500D01*
X182556812Y-101513608D01*
X182442686Y-101579500D01*
X182442683Y-101579502D01*
X182349502Y-101672683D01*
X182349500Y-101672686D01*
X182283608Y-101786812D01*
X182249500Y-101914108D01*
X169830500Y-101914108D01*
X169830500Y-101864108D01*
X169796392Y-101736814D01*
X169730500Y-101622686D01*
X169637314Y-101529500D01*
X169550712Y-101479500D01*
X169523187Y-101463608D01*
X169459539Y-101446554D01*
X169395892Y-101429500D01*
X169264108Y-101429500D01*
X169136812Y-101463608D01*
X169022686Y-101529500D01*
X169022683Y-101529502D01*
X168929502Y-101622683D01*
X168929500Y-101622686D01*
X168863608Y-101736812D01*
X168829500Y-101864108D01*
X155643898Y-101864108D01*
X155696392Y-101773186D01*
X155730500Y-101645892D01*
X155730500Y-101514108D01*
X155696392Y-101386814D01*
X155630500Y-101272686D01*
X155537314Y-101179500D01*
X155480250Y-101146554D01*
X155423187Y-101113608D01*
X155359539Y-101096554D01*
X155295892Y-101079500D01*
X155164108Y-101079500D01*
X155036812Y-101113608D01*
X154922686Y-101179500D01*
X154922683Y-101179502D01*
X154829502Y-101272683D01*
X154829500Y-101272686D01*
X154763608Y-101386812D01*
X154752170Y-101429500D01*
X154729500Y-101514108D01*
X95638000Y-101514108D01*
X95638000Y-101293543D01*
X95608904Y-101072537D01*
X95551210Y-100857219D01*
X95489117Y-100707314D01*
X95475084Y-100673434D01*
X95475083Y-100673432D01*
X95465909Y-100651282D01*
X95465904Y-100651273D01*
X95455994Y-100634108D01*
X119099500Y-100634108D01*
X119099500Y-100765892D01*
X119116554Y-100829539D01*
X119133608Y-100893187D01*
X119166554Y-100950250D01*
X119199500Y-101007314D01*
X119292686Y-101100500D01*
X119406814Y-101166392D01*
X119534108Y-101200500D01*
X119534110Y-101200500D01*
X119665890Y-101200500D01*
X119665892Y-101200500D01*
X119793186Y-101166392D01*
X119907314Y-101100500D01*
X120000500Y-101007314D01*
X120066392Y-100893186D01*
X120100500Y-100765892D01*
X120100500Y-100634108D01*
X120066392Y-100506814D01*
X120024415Y-100434108D01*
X166499500Y-100434108D01*
X166499500Y-100565891D01*
X166533608Y-100693187D01*
X166541766Y-100707316D01*
X166599500Y-100807314D01*
X166692686Y-100900500D01*
X166806814Y-100966392D01*
X166934108Y-101000500D01*
X166934110Y-101000500D01*
X167065890Y-101000500D01*
X167065892Y-101000500D01*
X167193186Y-100966392D01*
X167307314Y-100900500D01*
X167400500Y-100807314D01*
X167466392Y-100693186D01*
X167500500Y-100565892D01*
X167500500Y-100434108D01*
X167473705Y-100334108D01*
X180369500Y-100334108D01*
X180369500Y-100465891D01*
X180403608Y-100593187D01*
X180436554Y-100650250D01*
X180469500Y-100707314D01*
X180562686Y-100800500D01*
X180676814Y-100866392D01*
X180804108Y-100900500D01*
X180804110Y-100900500D01*
X180935890Y-100900500D01*
X180935892Y-100900500D01*
X181063186Y-100866392D01*
X181177314Y-100800500D01*
X181270500Y-100707314D01*
X181336392Y-100593186D01*
X181370500Y-100465892D01*
X181370500Y-100334108D01*
X181336392Y-100206814D01*
X181270500Y-100092686D01*
X181177314Y-99999500D01*
X181080091Y-99943368D01*
X181063187Y-99933608D01*
X180999539Y-99916554D01*
X180935892Y-99899500D01*
X180804108Y-99899500D01*
X180676812Y-99933608D01*
X180562686Y-99999500D01*
X180562683Y-99999502D01*
X180469502Y-100092683D01*
X180469500Y-100092686D01*
X180403608Y-100206812D01*
X180369500Y-100334108D01*
X167473705Y-100334108D01*
X167466392Y-100306814D01*
X167400500Y-100192686D01*
X167307314Y-100099500D01*
X167250250Y-100066554D01*
X167193187Y-100033608D01*
X167129539Y-100016554D01*
X167065892Y-99999500D01*
X166934108Y-99999500D01*
X166806812Y-100033608D01*
X166692686Y-100099500D01*
X166692683Y-100099502D01*
X166599502Y-100192683D01*
X166599500Y-100192686D01*
X166533608Y-100306812D01*
X166499500Y-100434108D01*
X120024415Y-100434108D01*
X120000500Y-100392686D01*
X119907314Y-100299500D01*
X119850250Y-100266554D01*
X119793187Y-100233608D01*
X119693188Y-100206814D01*
X119665892Y-100199500D01*
X119534108Y-100199500D01*
X119406812Y-100233608D01*
X119292686Y-100299500D01*
X119292683Y-100299502D01*
X119199502Y-100392683D01*
X119199500Y-100392686D01*
X119133608Y-100506812D01*
X119099500Y-100634108D01*
X95455994Y-100634108D01*
X95432368Y-100593187D01*
X95354448Y-100458226D01*
X95259211Y-100334110D01*
X95218748Y-100281377D01*
X95218742Y-100281370D01*
X95061129Y-100123757D01*
X95061122Y-100123751D01*
X94884282Y-99988058D01*
X94884280Y-99988057D01*
X94884274Y-99988052D01*
X94691226Y-99876595D01*
X94691222Y-99876593D01*
X94612796Y-99844108D01*
X146559500Y-99844108D01*
X146559500Y-99975891D01*
X146593608Y-100103187D01*
X146626554Y-100160250D01*
X146659500Y-100217314D01*
X146752686Y-100310500D01*
X146851521Y-100367563D01*
X146866810Y-100376390D01*
X146866814Y-100376392D01*
X146994108Y-100410500D01*
X146994110Y-100410500D01*
X147125890Y-100410500D01*
X147125892Y-100410500D01*
X147253186Y-100376392D01*
X147367314Y-100310500D01*
X147460500Y-100217314D01*
X147526392Y-100103186D01*
X147560500Y-99975892D01*
X147560500Y-99844108D01*
X147526392Y-99716814D01*
X147519282Y-99704500D01*
X147517563Y-99701521D01*
X147460500Y-99602686D01*
X147367314Y-99509500D01*
X147292649Y-99466392D01*
X147253187Y-99443608D01*
X147166941Y-99420499D01*
X147125892Y-99409500D01*
X146994108Y-99409500D01*
X146866812Y-99443608D01*
X146752686Y-99509500D01*
X146752683Y-99509502D01*
X146659502Y-99602683D01*
X146659500Y-99602686D01*
X146593608Y-99716812D01*
X146559500Y-99844108D01*
X94612796Y-99844108D01*
X94485290Y-99791293D01*
X94485283Y-99791291D01*
X94485281Y-99791290D01*
X94269963Y-99733596D01*
X94269957Y-99733595D01*
X94269952Y-99733594D01*
X94048966Y-99704501D01*
X94048963Y-99704500D01*
X94048957Y-99704500D01*
X93826043Y-99704500D01*
X93826037Y-99704500D01*
X93826033Y-99704501D01*
X93605047Y-99733594D01*
X93605040Y-99733595D01*
X93605037Y-99733596D01*
X93389719Y-99791290D01*
X93389709Y-99791293D01*
X93183777Y-99876593D01*
X93183773Y-99876595D01*
X92990726Y-99988052D01*
X92990717Y-99988058D01*
X92813877Y-100123751D01*
X92813870Y-100123757D01*
X92656257Y-100281370D01*
X92656251Y-100281377D01*
X92520558Y-100458217D01*
X92520552Y-100458226D01*
X92409095Y-100651273D01*
X92409093Y-100651277D01*
X92323793Y-100857209D01*
X92323790Y-100857219D01*
X92283573Y-101007314D01*
X92266097Y-101072534D01*
X92266094Y-101072547D01*
X92237001Y-101293533D01*
X92237000Y-101293549D01*
X88800500Y-101293549D01*
X88800500Y-98424108D01*
X141349500Y-98424108D01*
X141349500Y-98555891D01*
X141383608Y-98683187D01*
X141400638Y-98712683D01*
X141449500Y-98797314D01*
X141542686Y-98890500D01*
X141656814Y-98956392D01*
X141784108Y-98990500D01*
X141784110Y-98990500D01*
X141915890Y-98990500D01*
X141915892Y-98990500D01*
X142043186Y-98956392D01*
X142081783Y-98934108D01*
X171499500Y-98934108D01*
X171499500Y-99065892D01*
X171504859Y-99085891D01*
X171533608Y-99193187D01*
X171566554Y-99250250D01*
X171599500Y-99307314D01*
X171692686Y-99400500D01*
X171806814Y-99466392D01*
X171934108Y-99500500D01*
X171934110Y-99500500D01*
X172065890Y-99500500D01*
X172065892Y-99500500D01*
X172193186Y-99466392D01*
X172307314Y-99400500D01*
X172400500Y-99307314D01*
X172466392Y-99193186D01*
X172500500Y-99065892D01*
X172500500Y-98954108D01*
X185019500Y-98954108D01*
X185019500Y-99085891D01*
X185053608Y-99213187D01*
X185086554Y-99270250D01*
X185119500Y-99327314D01*
X185212686Y-99420500D01*
X185326814Y-99486392D01*
X185454108Y-99520500D01*
X185454110Y-99520500D01*
X185585890Y-99520500D01*
X185585892Y-99520500D01*
X185713186Y-99486392D01*
X185827314Y-99420500D01*
X185920500Y-99327314D01*
X185986392Y-99213186D01*
X186020500Y-99085892D01*
X186020500Y-98954108D01*
X185986392Y-98826814D01*
X185920500Y-98712686D01*
X185827314Y-98619500D01*
X185770250Y-98586554D01*
X185713187Y-98553608D01*
X185638544Y-98533608D01*
X185585892Y-98519500D01*
X185454108Y-98519500D01*
X185326812Y-98553608D01*
X185212686Y-98619500D01*
X185212683Y-98619502D01*
X185119502Y-98712683D01*
X185119500Y-98712686D01*
X185053608Y-98826812D01*
X185019500Y-98954108D01*
X172500500Y-98954108D01*
X172500500Y-98934108D01*
X172466392Y-98806814D01*
X172400500Y-98692686D01*
X172307314Y-98599500D01*
X172231783Y-98555892D01*
X172193187Y-98533608D01*
X172129539Y-98516554D01*
X172065892Y-98499500D01*
X171934108Y-98499500D01*
X171806812Y-98533608D01*
X171692686Y-98599500D01*
X171692683Y-98599502D01*
X171599502Y-98692683D01*
X171599500Y-98692686D01*
X171533608Y-98806812D01*
X171499500Y-98934108D01*
X142081783Y-98934108D01*
X142157314Y-98890500D01*
X142250500Y-98797314D01*
X142316392Y-98683186D01*
X142350500Y-98555892D01*
X142350500Y-98424108D01*
X142316392Y-98296814D01*
X142250500Y-98182686D01*
X142157314Y-98089500D01*
X142100250Y-98056554D01*
X142043187Y-98023608D01*
X141979539Y-98006554D01*
X141915892Y-97989500D01*
X141784108Y-97989500D01*
X141656812Y-98023608D01*
X141542686Y-98089500D01*
X141542683Y-98089502D01*
X141449502Y-98182683D01*
X141449500Y-98182686D01*
X141383608Y-98296812D01*
X141349500Y-98424108D01*
X88800500Y-98424108D01*
X88800500Y-95434108D01*
X166499500Y-95434108D01*
X166499500Y-95565891D01*
X166533608Y-95693187D01*
X166566554Y-95750250D01*
X166599500Y-95807314D01*
X166692686Y-95900500D01*
X166806814Y-95966392D01*
X166934108Y-96000500D01*
X166934110Y-96000500D01*
X167065890Y-96000500D01*
X167065892Y-96000500D01*
X167193186Y-95966392D01*
X167249103Y-95934108D01*
X171499500Y-95934108D01*
X171499500Y-96065891D01*
X171533608Y-96193187D01*
X171566554Y-96250250D01*
X171599500Y-96307314D01*
X171692686Y-96400500D01*
X171806814Y-96466392D01*
X171934108Y-96500500D01*
X171934110Y-96500500D01*
X172065890Y-96500500D01*
X172065892Y-96500500D01*
X172193186Y-96466392D01*
X172307314Y-96400500D01*
X172400500Y-96307314D01*
X172466392Y-96193186D01*
X172500500Y-96065892D01*
X172500500Y-95934108D01*
X172466392Y-95806814D01*
X172464830Y-95804108D01*
X180209500Y-95804108D01*
X180209500Y-95935892D01*
X180226554Y-95999539D01*
X180243608Y-96063187D01*
X180245170Y-96065892D01*
X180309500Y-96177314D01*
X180402686Y-96270500D01*
X180516814Y-96336392D01*
X180644108Y-96370500D01*
X180644110Y-96370500D01*
X180775890Y-96370500D01*
X180775892Y-96370500D01*
X180903186Y-96336392D01*
X181017314Y-96270500D01*
X181110500Y-96177314D01*
X181176392Y-96063186D01*
X181210500Y-95935892D01*
X181210500Y-95804108D01*
X181205141Y-95784108D01*
X184559500Y-95784108D01*
X184559500Y-95915892D01*
X184564859Y-95935891D01*
X184593608Y-96043187D01*
X184606717Y-96065892D01*
X184659500Y-96157314D01*
X184752686Y-96250500D01*
X184866814Y-96316392D01*
X184994108Y-96350500D01*
X184994110Y-96350500D01*
X185125890Y-96350500D01*
X185125892Y-96350500D01*
X185253186Y-96316392D01*
X185367314Y-96250500D01*
X185460500Y-96157314D01*
X185526392Y-96043186D01*
X185560500Y-95915892D01*
X185560500Y-95794108D01*
X193619500Y-95794108D01*
X193619500Y-95925892D01*
X193630352Y-95966391D01*
X193653608Y-96053187D01*
X193686554Y-96110250D01*
X193719500Y-96167314D01*
X193812686Y-96260500D01*
X193926814Y-96326392D01*
X194054108Y-96360500D01*
X194054110Y-96360500D01*
X194185890Y-96360500D01*
X194185892Y-96360500D01*
X194313186Y-96326392D01*
X194427314Y-96260500D01*
X194520500Y-96167314D01*
X194586392Y-96053186D01*
X194620500Y-95925892D01*
X194620500Y-95794108D01*
X195589500Y-95794108D01*
X195589500Y-95925892D01*
X195600352Y-95966391D01*
X195623608Y-96053187D01*
X195656554Y-96110250D01*
X195689500Y-96167314D01*
X195782686Y-96260500D01*
X195896814Y-96326392D01*
X196024108Y-96360500D01*
X196024110Y-96360500D01*
X196155890Y-96360500D01*
X196155892Y-96360500D01*
X196283186Y-96326392D01*
X196397314Y-96260500D01*
X196490500Y-96167314D01*
X196556392Y-96053186D01*
X196590500Y-95925892D01*
X196590500Y-95794108D01*
X196556392Y-95666814D01*
X196550618Y-95656814D01*
X196517528Y-95599500D01*
X196490500Y-95552686D01*
X196397314Y-95459500D01*
X196340250Y-95426554D01*
X196283187Y-95393608D01*
X196219539Y-95376554D01*
X196155892Y-95359500D01*
X196024108Y-95359500D01*
X195896812Y-95393608D01*
X195782686Y-95459500D01*
X195782683Y-95459502D01*
X195689502Y-95552683D01*
X195689500Y-95552686D01*
X195623608Y-95666812D01*
X195616541Y-95693187D01*
X195589500Y-95794108D01*
X194620500Y-95794108D01*
X194586392Y-95666814D01*
X194580618Y-95656814D01*
X194547528Y-95599500D01*
X194520500Y-95552686D01*
X194427314Y-95459500D01*
X194370250Y-95426554D01*
X194313187Y-95393608D01*
X194249539Y-95376554D01*
X194185892Y-95359500D01*
X194054108Y-95359500D01*
X193926812Y-95393608D01*
X193812686Y-95459500D01*
X193812683Y-95459502D01*
X193719502Y-95552683D01*
X193719500Y-95552686D01*
X193653608Y-95666812D01*
X193646541Y-95693187D01*
X193619500Y-95794108D01*
X185560500Y-95794108D01*
X185560500Y-95784108D01*
X185526392Y-95656814D01*
X185460500Y-95542686D01*
X185367314Y-95449500D01*
X185287827Y-95403608D01*
X185253187Y-95383608D01*
X185189539Y-95366554D01*
X185125892Y-95349500D01*
X184994108Y-95349500D01*
X184866812Y-95383608D01*
X184752686Y-95449500D01*
X184752683Y-95449502D01*
X184659502Y-95542683D01*
X184659500Y-95542686D01*
X184593608Y-95656812D01*
X184588249Y-95676814D01*
X184559500Y-95784108D01*
X181205141Y-95784108D01*
X181176392Y-95676814D01*
X181170618Y-95666814D01*
X181164844Y-95656812D01*
X181110500Y-95562686D01*
X181017314Y-95469500D01*
X180956013Y-95434108D01*
X180903187Y-95403608D01*
X180828544Y-95383608D01*
X180775892Y-95369500D01*
X180644108Y-95369500D01*
X180516812Y-95403608D01*
X180402686Y-95469500D01*
X180402683Y-95469502D01*
X180309502Y-95562683D01*
X180309500Y-95562686D01*
X180243608Y-95676812D01*
X180214859Y-95784108D01*
X180209500Y-95804108D01*
X172464830Y-95804108D01*
X172400500Y-95692686D01*
X172307314Y-95599500D01*
X172249100Y-95565890D01*
X172193187Y-95533608D01*
X172129539Y-95516554D01*
X172065892Y-95499500D01*
X171934108Y-95499500D01*
X171806812Y-95533608D01*
X171692686Y-95599500D01*
X171692683Y-95599502D01*
X171599502Y-95692683D01*
X171599500Y-95692686D01*
X171533608Y-95806812D01*
X171499500Y-95934108D01*
X167249103Y-95934108D01*
X167307314Y-95900500D01*
X167400500Y-95807314D01*
X167466392Y-95693186D01*
X167500500Y-95565892D01*
X167500500Y-95434108D01*
X167466392Y-95306814D01*
X167400500Y-95192686D01*
X167307314Y-95099500D01*
X167250250Y-95066554D01*
X167193187Y-95033608D01*
X167129539Y-95016554D01*
X167065892Y-94999500D01*
X166934108Y-94999500D01*
X166806812Y-95033608D01*
X166692686Y-95099500D01*
X166692683Y-95099502D01*
X166599502Y-95192683D01*
X166599500Y-95192686D01*
X166533608Y-95306812D01*
X166499500Y-95434108D01*
X88800500Y-95434108D01*
X88800500Y-93804108D01*
X136609500Y-93804108D01*
X136609500Y-93935892D01*
X136611455Y-93943187D01*
X136643608Y-94063187D01*
X136676554Y-94120250D01*
X136709500Y-94177314D01*
X136802686Y-94270500D01*
X136916814Y-94336392D01*
X137044108Y-94370500D01*
X137044110Y-94370500D01*
X137175890Y-94370500D01*
X137175892Y-94370500D01*
X137303186Y-94336392D01*
X137417314Y-94270500D01*
X137510500Y-94177314D01*
X137576392Y-94063186D01*
X137610500Y-93935892D01*
X137610500Y-93804108D01*
X137576392Y-93676814D01*
X137510500Y-93562686D01*
X137417314Y-93469500D01*
X137360250Y-93436554D01*
X137303187Y-93403608D01*
X137239539Y-93386554D01*
X137175892Y-93369500D01*
X137044108Y-93369500D01*
X136916812Y-93403608D01*
X136802686Y-93469500D01*
X136802683Y-93469502D01*
X136709502Y-93562683D01*
X136709500Y-93562686D01*
X136643608Y-93676812D01*
X136637261Y-93700500D01*
X136609500Y-93804108D01*
X88800500Y-93804108D01*
X88800500Y-93234108D01*
X140769500Y-93234108D01*
X140769500Y-93365891D01*
X140803608Y-93493187D01*
X140834569Y-93546812D01*
X140869500Y-93607314D01*
X140962686Y-93700500D01*
X141076814Y-93766392D01*
X141204108Y-93800500D01*
X141204110Y-93800500D01*
X141335890Y-93800500D01*
X141335892Y-93800500D01*
X141463186Y-93766392D01*
X141577314Y-93700500D01*
X141593706Y-93684108D01*
X160569500Y-93684108D01*
X160569500Y-93815891D01*
X160603608Y-93943187D01*
X160636554Y-94000250D01*
X160669500Y-94057314D01*
X160762686Y-94150500D01*
X160876814Y-94216392D01*
X161004108Y-94250500D01*
X161004110Y-94250500D01*
X161135890Y-94250500D01*
X161135892Y-94250500D01*
X161263186Y-94216392D01*
X161377314Y-94150500D01*
X161470500Y-94057314D01*
X161536392Y-93943186D01*
X161570500Y-93815892D01*
X161570500Y-93684108D01*
X162759500Y-93684108D01*
X162759500Y-93815891D01*
X162793608Y-93943187D01*
X162826554Y-94000250D01*
X162859500Y-94057314D01*
X162952686Y-94150500D01*
X163066814Y-94216392D01*
X163194108Y-94250500D01*
X163194110Y-94250500D01*
X163325890Y-94250500D01*
X163325892Y-94250500D01*
X163453186Y-94216392D01*
X163567314Y-94150500D01*
X163660500Y-94057314D01*
X163726392Y-93943186D01*
X163760500Y-93815892D01*
X163760500Y-93684108D01*
X174799500Y-93684108D01*
X174799500Y-93815891D01*
X174833608Y-93943187D01*
X174866554Y-94000250D01*
X174899500Y-94057314D01*
X174992686Y-94150500D01*
X175106814Y-94216392D01*
X175234108Y-94250500D01*
X175234110Y-94250500D01*
X175365890Y-94250500D01*
X175365892Y-94250500D01*
X175493186Y-94216392D01*
X175607314Y-94150500D01*
X175700500Y-94057314D01*
X175766392Y-93943186D01*
X175800500Y-93815892D01*
X175800500Y-93684108D01*
X175797821Y-93674108D01*
X177109500Y-93674108D01*
X177109500Y-93805892D01*
X177126554Y-93869539D01*
X177143608Y-93933187D01*
X177149382Y-93943187D01*
X177209500Y-94047314D01*
X177302686Y-94140500D01*
X177416814Y-94206392D01*
X177544108Y-94240500D01*
X177544110Y-94240500D01*
X177675890Y-94240500D01*
X177675892Y-94240500D01*
X177803186Y-94206392D01*
X177917314Y-94140500D01*
X178010500Y-94047314D01*
X178076392Y-93933186D01*
X178110500Y-93805892D01*
X178110500Y-93674108D01*
X188009500Y-93674108D01*
X188009500Y-93805892D01*
X188026554Y-93869539D01*
X188043608Y-93933187D01*
X188049382Y-93943187D01*
X188109500Y-94047314D01*
X188202686Y-94140500D01*
X188316814Y-94206392D01*
X188444108Y-94240500D01*
X188444110Y-94240500D01*
X188575890Y-94240500D01*
X188575892Y-94240500D01*
X188703186Y-94206392D01*
X188817314Y-94140500D01*
X188910500Y-94047314D01*
X188976392Y-93933186D01*
X189010500Y-93805892D01*
X189010500Y-93674108D01*
X190259500Y-93674108D01*
X190259500Y-93805892D01*
X190276554Y-93869539D01*
X190293608Y-93933187D01*
X190299382Y-93943187D01*
X190359500Y-94047314D01*
X190452686Y-94140500D01*
X190566814Y-94206392D01*
X190694108Y-94240500D01*
X190694110Y-94240500D01*
X190825890Y-94240500D01*
X190825892Y-94240500D01*
X190953186Y-94206392D01*
X191067314Y-94140500D01*
X191160500Y-94047314D01*
X191226392Y-93933186D01*
X191260500Y-93805892D01*
X191260500Y-93674108D01*
X191226392Y-93546814D01*
X191160500Y-93432686D01*
X191067314Y-93339500D01*
X191010250Y-93306554D01*
X190953187Y-93273608D01*
X190889539Y-93256554D01*
X190825892Y-93239500D01*
X190694108Y-93239500D01*
X190566812Y-93273608D01*
X190452686Y-93339500D01*
X190452683Y-93339502D01*
X190359502Y-93432683D01*
X190359500Y-93432686D01*
X190293608Y-93546812D01*
X190259500Y-93674108D01*
X189010500Y-93674108D01*
X188976392Y-93546814D01*
X188910500Y-93432686D01*
X188817314Y-93339500D01*
X188760250Y-93306554D01*
X188703187Y-93273608D01*
X188639539Y-93256554D01*
X188575892Y-93239500D01*
X188444108Y-93239500D01*
X188316812Y-93273608D01*
X188202686Y-93339500D01*
X188202683Y-93339502D01*
X188109502Y-93432683D01*
X188109500Y-93432686D01*
X188043608Y-93546812D01*
X188009500Y-93674108D01*
X178110500Y-93674108D01*
X178076392Y-93546814D01*
X178010500Y-93432686D01*
X177917314Y-93339500D01*
X177860250Y-93306554D01*
X177803187Y-93273608D01*
X177739539Y-93256554D01*
X177675892Y-93239500D01*
X177544108Y-93239500D01*
X177416812Y-93273608D01*
X177302686Y-93339500D01*
X177302683Y-93339502D01*
X177209502Y-93432683D01*
X177209500Y-93432686D01*
X177143608Y-93546812D01*
X177109500Y-93674108D01*
X175797821Y-93674108D01*
X175766392Y-93556814D01*
X175760618Y-93546814D01*
X175729657Y-93493188D01*
X175700500Y-93442686D01*
X175607314Y-93349500D01*
X175550250Y-93316554D01*
X175493187Y-93283608D01*
X175429539Y-93266554D01*
X175365892Y-93249500D01*
X175234108Y-93249500D01*
X175106812Y-93283608D01*
X174992686Y-93349500D01*
X174992683Y-93349502D01*
X174899502Y-93442683D01*
X174899500Y-93442686D01*
X174833608Y-93556812D01*
X174799500Y-93684108D01*
X163760500Y-93684108D01*
X163726392Y-93556814D01*
X163720618Y-93546814D01*
X163689657Y-93493188D01*
X163660500Y-93442686D01*
X163567314Y-93349500D01*
X163510250Y-93316554D01*
X163453187Y-93283608D01*
X163389539Y-93266554D01*
X163325892Y-93249500D01*
X163194108Y-93249500D01*
X163066812Y-93283608D01*
X162952686Y-93349500D01*
X162952683Y-93349502D01*
X162859502Y-93442683D01*
X162859500Y-93442686D01*
X162793608Y-93556812D01*
X162759500Y-93684108D01*
X161570500Y-93684108D01*
X161536392Y-93556814D01*
X161530618Y-93546814D01*
X161499657Y-93493188D01*
X161470500Y-93442686D01*
X161377314Y-93349500D01*
X161320250Y-93316554D01*
X161263187Y-93283608D01*
X161199539Y-93266554D01*
X161135892Y-93249500D01*
X161004108Y-93249500D01*
X160876812Y-93283608D01*
X160762686Y-93349500D01*
X160762683Y-93349502D01*
X160669502Y-93442683D01*
X160669500Y-93442686D01*
X160603608Y-93556812D01*
X160569500Y-93684108D01*
X141593706Y-93684108D01*
X141670500Y-93607314D01*
X141736392Y-93493186D01*
X141770500Y-93365892D01*
X141770500Y-93234108D01*
X141736392Y-93106814D01*
X141670500Y-92992686D01*
X141577314Y-92899500D01*
X141520250Y-92866554D01*
X141463187Y-92833608D01*
X141387040Y-92813205D01*
X141335892Y-92799500D01*
X141204108Y-92799500D01*
X141076812Y-92833608D01*
X140962686Y-92899500D01*
X140962683Y-92899502D01*
X140869502Y-92992683D01*
X140869500Y-92992686D01*
X140803608Y-93106812D01*
X140769500Y-93234108D01*
X88800500Y-93234108D01*
X88800500Y-92094108D01*
X166359500Y-92094108D01*
X166359500Y-92225892D01*
X166363414Y-92240499D01*
X166393608Y-92353187D01*
X166410135Y-92381812D01*
X166459500Y-92467314D01*
X166552686Y-92560500D01*
X166666814Y-92626392D01*
X166794108Y-92660500D01*
X166794110Y-92660500D01*
X166925890Y-92660500D01*
X166925892Y-92660500D01*
X167053186Y-92626392D01*
X167167314Y-92560500D01*
X167260500Y-92467314D01*
X167326392Y-92353186D01*
X167360500Y-92225892D01*
X167360500Y-92094108D01*
X167347103Y-92044108D01*
X170389500Y-92044108D01*
X170389500Y-92175891D01*
X170423608Y-92303187D01*
X170446703Y-92343188D01*
X170489500Y-92417314D01*
X170582686Y-92510500D01*
X170696814Y-92576392D01*
X170824108Y-92610500D01*
X170824110Y-92610500D01*
X170955890Y-92610500D01*
X170955892Y-92610500D01*
X171083186Y-92576392D01*
X171197314Y-92510500D01*
X171290500Y-92417314D01*
X171356392Y-92303186D01*
X171390500Y-92175892D01*
X171390500Y-92084108D01*
X180509500Y-92084108D01*
X180509500Y-92215892D01*
X180516094Y-92240500D01*
X180543608Y-92343187D01*
X180549382Y-92353187D01*
X180609500Y-92457314D01*
X180702686Y-92550500D01*
X180816814Y-92616392D01*
X180944108Y-92650500D01*
X180944110Y-92650500D01*
X181075890Y-92650500D01*
X181075892Y-92650500D01*
X181203186Y-92616392D01*
X181317314Y-92550500D01*
X181358706Y-92509108D01*
X198194500Y-92509108D01*
X198194500Y-92640892D01*
X198199754Y-92660499D01*
X198228608Y-92768187D01*
X198246687Y-92799500D01*
X198294500Y-92882314D01*
X198387686Y-92975500D01*
X198501814Y-93041392D01*
X198629108Y-93075500D01*
X198629110Y-93075500D01*
X198760890Y-93075500D01*
X198760892Y-93075500D01*
X198888186Y-93041392D01*
X199002314Y-92975500D01*
X199095500Y-92882314D01*
X199161392Y-92768186D01*
X199195500Y-92640892D01*
X199195500Y-92509108D01*
X199161392Y-92381814D01*
X199095500Y-92267686D01*
X199002314Y-92174500D01*
X198945250Y-92141554D01*
X198888187Y-92108608D01*
X198796757Y-92084110D01*
X198760892Y-92074500D01*
X198629108Y-92074500D01*
X198501812Y-92108608D01*
X198387686Y-92174500D01*
X198387683Y-92174502D01*
X198294502Y-92267683D01*
X198294500Y-92267686D01*
X198228608Y-92381812D01*
X198205698Y-92467316D01*
X198194500Y-92509108D01*
X181358706Y-92509108D01*
X181410500Y-92457314D01*
X181411005Y-92456438D01*
X181421086Y-92438980D01*
X181476390Y-92343189D01*
X181476392Y-92343186D01*
X181510500Y-92215892D01*
X181510500Y-92084108D01*
X181476392Y-91956814D01*
X181410500Y-91842686D01*
X181341922Y-91774108D01*
X184789500Y-91774108D01*
X184789500Y-91905892D01*
X184796094Y-91930500D01*
X184823608Y-92033187D01*
X184847039Y-92073770D01*
X184889500Y-92147314D01*
X184982686Y-92240500D01*
X185096814Y-92306392D01*
X185224108Y-92340500D01*
X185224110Y-92340500D01*
X185355890Y-92340500D01*
X185355892Y-92340500D01*
X185483186Y-92306392D01*
X185597314Y-92240500D01*
X185690500Y-92147314D01*
X185756392Y-92033186D01*
X185790500Y-91905892D01*
X185790500Y-91774108D01*
X185756392Y-91646814D01*
X185690500Y-91532686D01*
X185597314Y-91439500D01*
X185540250Y-91406554D01*
X185483187Y-91373608D01*
X185447732Y-91364108D01*
X193459500Y-91364108D01*
X193459500Y-91495891D01*
X193493608Y-91623187D01*
X193508800Y-91649500D01*
X193559500Y-91737314D01*
X193652686Y-91830500D01*
X193766814Y-91896392D01*
X193894108Y-91930500D01*
X193894110Y-91930500D01*
X194025890Y-91930500D01*
X194025892Y-91930500D01*
X194153186Y-91896392D01*
X194267314Y-91830500D01*
X194360500Y-91737314D01*
X194381293Y-91701300D01*
X207169500Y-91701300D01*
X207169500Y-91888699D01*
X207192385Y-92033186D01*
X207198814Y-92073776D01*
X207256721Y-92251993D01*
X207340956Y-92417316D01*
X207341794Y-92418959D01*
X207341795Y-92418962D01*
X207376925Y-92467313D01*
X207451938Y-92570559D01*
X207584441Y-92703062D01*
X207670025Y-92765243D01*
X207736037Y-92813204D01*
X207736038Y-92813204D01*
X207736042Y-92813207D01*
X207903007Y-92898279D01*
X208081224Y-92956186D01*
X208173765Y-92970843D01*
X208266301Y-92985500D01*
X208266306Y-92985500D01*
X210433699Y-92985500D01*
X210517822Y-92972175D01*
X210618776Y-92956186D01*
X210796993Y-92898279D01*
X210963958Y-92813207D01*
X211115559Y-92703062D01*
X211248062Y-92570559D01*
X211358207Y-92418958D01*
X211443279Y-92251993D01*
X211501186Y-92073776D01*
X211523879Y-91930499D01*
X211530500Y-91888699D01*
X211530500Y-91701300D01*
X211503793Y-91532686D01*
X211501186Y-91516224D01*
X211443279Y-91338007D01*
X211358207Y-91171042D01*
X211358204Y-91171038D01*
X211358204Y-91171037D01*
X211323072Y-91122683D01*
X211248062Y-91019441D01*
X211115559Y-90886938D01*
X211058502Y-90845484D01*
X210963962Y-90776795D01*
X210963959Y-90776794D01*
X210963960Y-90776794D01*
X210963958Y-90776793D01*
X210796993Y-90691721D01*
X210618776Y-90633814D01*
X210618770Y-90633813D01*
X210433699Y-90604500D01*
X210433694Y-90604500D01*
X208266306Y-90604500D01*
X208266301Y-90604500D01*
X208081229Y-90633813D01*
X208081227Y-90633813D01*
X208081224Y-90633814D01*
X207903007Y-90691721D01*
X207903004Y-90691722D01*
X207903002Y-90691723D01*
X207736040Y-90776794D01*
X207736037Y-90776795D01*
X207622477Y-90859302D01*
X207584441Y-90886938D01*
X207584439Y-90886940D01*
X207584438Y-90886940D01*
X207451940Y-91019438D01*
X207451940Y-91019439D01*
X207451938Y-91019441D01*
X207424302Y-91057477D01*
X207341795Y-91171037D01*
X207341794Y-91171040D01*
X207256723Y-91338002D01*
X207256722Y-91338004D01*
X207256721Y-91338007D01*
X207198814Y-91516224D01*
X207198813Y-91516227D01*
X207198813Y-91516229D01*
X207169500Y-91701300D01*
X194381293Y-91701300D01*
X194426392Y-91623186D01*
X194460500Y-91495892D01*
X194460500Y-91364108D01*
X194426392Y-91236814D01*
X194360500Y-91122686D01*
X194267314Y-91029500D01*
X194210250Y-90996554D01*
X194153187Y-90963608D01*
X194089539Y-90946554D01*
X194025892Y-90929500D01*
X193894108Y-90929500D01*
X193766812Y-90963608D01*
X193652686Y-91029500D01*
X193652683Y-91029502D01*
X193559502Y-91122683D01*
X193559500Y-91122686D01*
X193493608Y-91236812D01*
X193459500Y-91364108D01*
X185447732Y-91364108D01*
X185419539Y-91356554D01*
X185355892Y-91339500D01*
X185224108Y-91339500D01*
X185096812Y-91373608D01*
X184982686Y-91439500D01*
X184982683Y-91439502D01*
X184889502Y-91532683D01*
X184889500Y-91532686D01*
X184823608Y-91646812D01*
X184809007Y-91701306D01*
X184789500Y-91774108D01*
X181341922Y-91774108D01*
X181317314Y-91749500D01*
X181233840Y-91701306D01*
X181203187Y-91683608D01*
X181139539Y-91666554D01*
X181075892Y-91649500D01*
X180944108Y-91649500D01*
X180816812Y-91683608D01*
X180702686Y-91749500D01*
X180702683Y-91749502D01*
X180609502Y-91842683D01*
X180609500Y-91842686D01*
X180543608Y-91956812D01*
X180523144Y-92033186D01*
X180509500Y-92084108D01*
X171390500Y-92084108D01*
X171390500Y-92044108D01*
X171356392Y-91916814D01*
X171290500Y-91802686D01*
X171197314Y-91709500D01*
X171110712Y-91659500D01*
X171083187Y-91643608D01*
X171006969Y-91623186D01*
X170955892Y-91609500D01*
X170824108Y-91609500D01*
X170696812Y-91643608D01*
X170582686Y-91709500D01*
X170582683Y-91709502D01*
X170489502Y-91802683D01*
X170489500Y-91802686D01*
X170423608Y-91916812D01*
X170389500Y-92044108D01*
X167347103Y-92044108D01*
X167326392Y-91966814D01*
X167320618Y-91956814D01*
X167297523Y-91916812D01*
X167260500Y-91852686D01*
X167167314Y-91759500D01*
X167110250Y-91726554D01*
X167053187Y-91693608D01*
X166989539Y-91676554D01*
X166925892Y-91659500D01*
X166794108Y-91659500D01*
X166666812Y-91693608D01*
X166552686Y-91759500D01*
X166552683Y-91759502D01*
X166459502Y-91852683D01*
X166459500Y-91852686D01*
X166393608Y-91966812D01*
X166372897Y-92044108D01*
X166359500Y-92094108D01*
X88800500Y-92094108D01*
X88800500Y-89974108D01*
X143729500Y-89974108D01*
X143729500Y-90105891D01*
X143763608Y-90233187D01*
X143796554Y-90290250D01*
X143829500Y-90347314D01*
X143922686Y-90440500D01*
X144036814Y-90506392D01*
X144164108Y-90540500D01*
X144164110Y-90540500D01*
X144295890Y-90540500D01*
X144295892Y-90540500D01*
X144423186Y-90506392D01*
X144537314Y-90440500D01*
X144630500Y-90347314D01*
X144696392Y-90233186D01*
X144730500Y-90105892D01*
X144730500Y-89974108D01*
X144696392Y-89846814D01*
X144630500Y-89732686D01*
X144537314Y-89639500D01*
X144457096Y-89593186D01*
X144423187Y-89573608D01*
X144350410Y-89554108D01*
X165999500Y-89554108D01*
X165999500Y-89685892D01*
X166012038Y-89732686D01*
X166033608Y-89813187D01*
X166053022Y-89846812D01*
X166099500Y-89927314D01*
X166192686Y-90020500D01*
X166306814Y-90086392D01*
X166434108Y-90120500D01*
X166434110Y-90120500D01*
X166565890Y-90120500D01*
X166565892Y-90120500D01*
X166693186Y-90086392D01*
X166807314Y-90020500D01*
X166900500Y-89927314D01*
X166966392Y-89813186D01*
X167000500Y-89685892D01*
X167000500Y-89554108D01*
X166966392Y-89426814D01*
X166942144Y-89384815D01*
X166925670Y-89316916D01*
X166948522Y-89250888D01*
X167003442Y-89207697D01*
X167072995Y-89201055D01*
X167081610Y-89203036D01*
X167184108Y-89230500D01*
X167184110Y-89230500D01*
X167315890Y-89230500D01*
X167315892Y-89230500D01*
X167443186Y-89196392D01*
X167557314Y-89130500D01*
X167650500Y-89037314D01*
X167716392Y-88923186D01*
X167750500Y-88795892D01*
X167750500Y-88664108D01*
X167716392Y-88536814D01*
X167650500Y-88422686D01*
X167557314Y-88329500D01*
X167477827Y-88283608D01*
X167461373Y-88274108D01*
X169959500Y-88274108D01*
X169959500Y-88405892D01*
X169969358Y-88442683D01*
X169993608Y-88533187D01*
X170026554Y-88590250D01*
X170059500Y-88647314D01*
X170152686Y-88740500D01*
X170266814Y-88806392D01*
X170394108Y-88840500D01*
X170394110Y-88840500D01*
X170525890Y-88840500D01*
X170525892Y-88840500D01*
X170653186Y-88806392D01*
X170767314Y-88740500D01*
X170860500Y-88647314D01*
X170926392Y-88533186D01*
X170942222Y-88474108D01*
X180509500Y-88474108D01*
X180509500Y-88605892D01*
X180525099Y-88664108D01*
X180543608Y-88733187D01*
X180576554Y-88790250D01*
X180609500Y-88847314D01*
X180702686Y-88940500D01*
X180816814Y-89006392D01*
X180944108Y-89040500D01*
X180944110Y-89040500D01*
X181075890Y-89040500D01*
X181075892Y-89040500D01*
X181203186Y-89006392D01*
X181317314Y-88940500D01*
X181410500Y-88847314D01*
X181476392Y-88733186D01*
X181489542Y-88684108D01*
X193539500Y-88684108D01*
X193539500Y-88815892D01*
X193547920Y-88847316D01*
X193573608Y-88943187D01*
X193606121Y-88999500D01*
X193639500Y-89057314D01*
X193732686Y-89150500D01*
X193846814Y-89216392D01*
X193974108Y-89250500D01*
X193974110Y-89250500D01*
X194105890Y-89250500D01*
X194105892Y-89250500D01*
X194233186Y-89216392D01*
X194347314Y-89150500D01*
X194440500Y-89057314D01*
X194506392Y-88943186D01*
X194540500Y-88815892D01*
X194540500Y-88684108D01*
X194506392Y-88556814D01*
X194440500Y-88442686D01*
X194347314Y-88349500D01*
X194290250Y-88316554D01*
X194233187Y-88283608D01*
X194158544Y-88263608D01*
X194105892Y-88249500D01*
X193974108Y-88249500D01*
X193846812Y-88283608D01*
X193732686Y-88349500D01*
X193732683Y-88349502D01*
X193639502Y-88442683D01*
X193639500Y-88442686D01*
X193573608Y-88556812D01*
X193550277Y-88643886D01*
X193539500Y-88684108D01*
X181489542Y-88684108D01*
X181510500Y-88605892D01*
X181510500Y-88474108D01*
X181476392Y-88346814D01*
X181410500Y-88232686D01*
X181317314Y-88139500D01*
X181260250Y-88106554D01*
X181203187Y-88073608D01*
X181139539Y-88056554D01*
X181075892Y-88039500D01*
X180944108Y-88039500D01*
X180816812Y-88073608D01*
X180702686Y-88139500D01*
X180702683Y-88139502D01*
X180609502Y-88232683D01*
X180609500Y-88232686D01*
X180543608Y-88346812D01*
X180527778Y-88405892D01*
X180509500Y-88474108D01*
X170942222Y-88474108D01*
X170960500Y-88405892D01*
X170960500Y-88274108D01*
X170926392Y-88146814D01*
X170860500Y-88032686D01*
X170767314Y-87939500D01*
X170710250Y-87906554D01*
X170653187Y-87873608D01*
X170589539Y-87856554D01*
X170525892Y-87839500D01*
X170394108Y-87839500D01*
X170266812Y-87873608D01*
X170152686Y-87939500D01*
X170152683Y-87939502D01*
X170059502Y-88032683D01*
X170059500Y-88032686D01*
X169993608Y-88146812D01*
X169970600Y-88232683D01*
X169959500Y-88274108D01*
X167461373Y-88274108D01*
X167443187Y-88263608D01*
X167327782Y-88232686D01*
X167315892Y-88229500D01*
X167184108Y-88229500D01*
X167056812Y-88263608D01*
X166942686Y-88329500D01*
X166942683Y-88329502D01*
X166849502Y-88422683D01*
X166849500Y-88422686D01*
X166783608Y-88536812D01*
X166778249Y-88556814D01*
X166749500Y-88664108D01*
X166749500Y-88795892D01*
X166754859Y-88815891D01*
X166783608Y-88923187D01*
X166807856Y-88965184D01*
X166824329Y-89033084D01*
X166801477Y-89099111D01*
X166746556Y-89142302D01*
X166677003Y-89148944D01*
X166668376Y-89146960D01*
X166606934Y-89130497D01*
X166565892Y-89119500D01*
X166434108Y-89119500D01*
X166306812Y-89153608D01*
X166192686Y-89219500D01*
X166192683Y-89219502D01*
X166099502Y-89312683D01*
X166099500Y-89312686D01*
X166033608Y-89426812D01*
X166023137Y-89465891D01*
X165999500Y-89554108D01*
X144350410Y-89554108D01*
X144295892Y-89539500D01*
X144164108Y-89539500D01*
X144036812Y-89573608D01*
X143922686Y-89639500D01*
X143922683Y-89639502D01*
X143829502Y-89732683D01*
X143829500Y-89732686D01*
X143763608Y-89846812D01*
X143729500Y-89974108D01*
X88800500Y-89974108D01*
X88800500Y-89334108D01*
X130259500Y-89334108D01*
X130259500Y-89465891D01*
X130293608Y-89593187D01*
X130320347Y-89639500D01*
X130359500Y-89707314D01*
X130452686Y-89800500D01*
X130532901Y-89846812D01*
X130566810Y-89866390D01*
X130566814Y-89866392D01*
X130694108Y-89900500D01*
X130694110Y-89900500D01*
X130825890Y-89900500D01*
X130825892Y-89900500D01*
X130953186Y-89866392D01*
X130955042Y-89865320D01*
X130966692Y-89858595D01*
X130966693Y-89858594D01*
X130987099Y-89846812D01*
X131067314Y-89800500D01*
X131160500Y-89707314D01*
X131226392Y-89593186D01*
X131260500Y-89465892D01*
X131260500Y-89334108D01*
X131226392Y-89206814D01*
X131224212Y-89203039D01*
X131193877Y-89150497D01*
X131160500Y-89092686D01*
X131067314Y-88999500D01*
X131007877Y-88965184D01*
X130953187Y-88933608D01*
X130889539Y-88916554D01*
X130825892Y-88899500D01*
X130694108Y-88899500D01*
X130566812Y-88933608D01*
X130452686Y-88999500D01*
X130452683Y-88999502D01*
X130359502Y-89092683D01*
X130359500Y-89092686D01*
X130293608Y-89206812D01*
X130259500Y-89334108D01*
X88800500Y-89334108D01*
X88800500Y-86824108D01*
X184969500Y-86824108D01*
X184969500Y-86955891D01*
X185003608Y-87083187D01*
X185036554Y-87140250D01*
X185069500Y-87197314D01*
X185162686Y-87290500D01*
X185276814Y-87356392D01*
X185404108Y-87390500D01*
X185404110Y-87390500D01*
X185535890Y-87390500D01*
X185535892Y-87390500D01*
X185663186Y-87356392D01*
X185777314Y-87290500D01*
X185870500Y-87197314D01*
X185936392Y-87083186D01*
X185970500Y-86955892D01*
X185970500Y-86824108D01*
X185936392Y-86696814D01*
X185870500Y-86582686D01*
X185777314Y-86489500D01*
X185720250Y-86456554D01*
X185663187Y-86423608D01*
X185599539Y-86406554D01*
X185535892Y-86389500D01*
X185404108Y-86389500D01*
X185276812Y-86423608D01*
X185162686Y-86489500D01*
X185162683Y-86489502D01*
X185069502Y-86582683D01*
X185069500Y-86582686D01*
X185003608Y-86696812D01*
X184969500Y-86824108D01*
X88800500Y-86824108D01*
X88800500Y-85354334D01*
X98994500Y-85354334D01*
X98994500Y-85535665D01*
X99029872Y-85713492D01*
X99029874Y-85713500D01*
X99099261Y-85881017D01*
X99099266Y-85881026D01*
X99200000Y-86031784D01*
X99200003Y-86031788D01*
X99328211Y-86159996D01*
X99328215Y-86159999D01*
X99478973Y-86260733D01*
X99478982Y-86260738D01*
X99509037Y-86273187D01*
X99646500Y-86330126D01*
X99824334Y-86365499D01*
X99824338Y-86365500D01*
X99824339Y-86365500D01*
X100005662Y-86365500D01*
X100005663Y-86365499D01*
X100183500Y-86330126D01*
X100351020Y-86260737D01*
X100501785Y-86159999D01*
X100629999Y-86031785D01*
X100730737Y-85881020D01*
X100800126Y-85713500D01*
X100835500Y-85535661D01*
X100835500Y-85354339D01*
X100800126Y-85176500D01*
X100730737Y-85008980D01*
X100730736Y-85008979D01*
X100730733Y-85008973D01*
X100629999Y-84858215D01*
X100629996Y-84858211D01*
X100501788Y-84730003D01*
X100501784Y-84730000D01*
X100351026Y-84629266D01*
X100351017Y-84629261D01*
X100183500Y-84559874D01*
X100183492Y-84559872D01*
X100005665Y-84524500D01*
X100005661Y-84524500D01*
X99824339Y-84524500D01*
X99824334Y-84524500D01*
X99646507Y-84559872D01*
X99646499Y-84559874D01*
X99478982Y-84629261D01*
X99478973Y-84629266D01*
X99328215Y-84730000D01*
X99328211Y-84730003D01*
X99200003Y-84858211D01*
X99200000Y-84858215D01*
X99099266Y-85008973D01*
X99099261Y-85008982D01*
X99029874Y-85176499D01*
X99029872Y-85176507D01*
X98994500Y-85354334D01*
X88800500Y-85354334D01*
X88800500Y-83920729D01*
X105544500Y-83920729D01*
X105544500Y-85729260D01*
X105544501Y-85729266D01*
X105547354Y-85759700D01*
X105547354Y-85759702D01*
X105547355Y-85759703D01*
X105547355Y-85759705D01*
X105592206Y-85887882D01*
X105672849Y-85997150D01*
X105719783Y-86031788D01*
X105782117Y-86077793D01*
X105824844Y-86092744D01*
X105910298Y-86122646D01*
X105917323Y-86123304D01*
X105940733Y-86125500D01*
X107749266Y-86125499D01*
X107779700Y-86122646D01*
X107907883Y-86077793D01*
X108017150Y-85997150D01*
X108097793Y-85887883D01*
X108122662Y-85816812D01*
X108142646Y-85759702D01*
X108142646Y-85759700D01*
X108143941Y-85745890D01*
X108145500Y-85729267D01*
X108145499Y-84722648D01*
X115704500Y-84722648D01*
X115704500Y-84927351D01*
X115736522Y-85129534D01*
X115799781Y-85324223D01*
X115863691Y-85449653D01*
X115882626Y-85486814D01*
X115892715Y-85506613D01*
X116013028Y-85672213D01*
X116157786Y-85816971D01*
X116312749Y-85929556D01*
X116323390Y-85937287D01*
X116439607Y-85996503D01*
X116505776Y-86030218D01*
X116505778Y-86030218D01*
X116505781Y-86030220D01*
X116598964Y-86060497D01*
X116700465Y-86093477D01*
X116801557Y-86109488D01*
X116902648Y-86125500D01*
X116902649Y-86125500D01*
X117107351Y-86125500D01*
X117107352Y-86125500D01*
X117309534Y-86093477D01*
X117504219Y-86030220D01*
X117686610Y-85937287D01*
X117788602Y-85863186D01*
X117852213Y-85816971D01*
X117852215Y-85816968D01*
X117852219Y-85816966D01*
X117996966Y-85672219D01*
X118039186Y-85614108D01*
X135699500Y-85614108D01*
X135699500Y-85745892D01*
X135715099Y-85804108D01*
X135733608Y-85873187D01*
X135742093Y-85887883D01*
X135799500Y-85987314D01*
X135892686Y-86080500D01*
X135972173Y-86126392D01*
X136005944Y-86145890D01*
X136006814Y-86146392D01*
X136134108Y-86180500D01*
X136134110Y-86180500D01*
X136265890Y-86180500D01*
X136265892Y-86180500D01*
X136393186Y-86146392D01*
X136507314Y-86080500D01*
X136600500Y-85987314D01*
X136666392Y-85873186D01*
X136700500Y-85745892D01*
X136700500Y-85614108D01*
X136697821Y-85604108D01*
X137829500Y-85604108D01*
X137829500Y-85735892D01*
X137835879Y-85759700D01*
X137863608Y-85863187D01*
X137877866Y-85887882D01*
X137929500Y-85977314D01*
X138022686Y-86070500D01*
X138136814Y-86136392D01*
X138264108Y-86170500D01*
X138264110Y-86170500D01*
X138395890Y-86170500D01*
X138395892Y-86170500D01*
X138523186Y-86136392D01*
X138637314Y-86070500D01*
X138730500Y-85977314D01*
X138796392Y-85863186D01*
X138830500Y-85735892D01*
X138830500Y-85604108D01*
X138827821Y-85594108D01*
X142419500Y-85594108D01*
X142419500Y-85725892D01*
X142432038Y-85772686D01*
X142453608Y-85853187D01*
X142465613Y-85873979D01*
X142519500Y-85967314D01*
X142612686Y-86060500D01*
X142726814Y-86126392D01*
X142854108Y-86160500D01*
X142854110Y-86160500D01*
X142985890Y-86160500D01*
X142985892Y-86160500D01*
X143113186Y-86126392D01*
X143227314Y-86060500D01*
X143320500Y-85967314D01*
X143333898Y-85944108D01*
X162009500Y-85944108D01*
X162009500Y-86075892D01*
X162010735Y-86080500D01*
X162043608Y-86203187D01*
X162076554Y-86260250D01*
X162109500Y-86317314D01*
X162202686Y-86410500D01*
X162316814Y-86476392D01*
X162444108Y-86510500D01*
X162444110Y-86510500D01*
X162575890Y-86510500D01*
X162575892Y-86510500D01*
X162703186Y-86476392D01*
X162817314Y-86410500D01*
X162910500Y-86317314D01*
X162976392Y-86203186D01*
X163010500Y-86075892D01*
X163010500Y-86014108D01*
X176379500Y-86014108D01*
X176379500Y-86145892D01*
X176387920Y-86177316D01*
X176413608Y-86273187D01*
X176446482Y-86330125D01*
X176479500Y-86387314D01*
X176572686Y-86480500D01*
X176686814Y-86546392D01*
X176814108Y-86580500D01*
X176814110Y-86580500D01*
X176945890Y-86580500D01*
X176945892Y-86580500D01*
X177073186Y-86546392D01*
X177187314Y-86480500D01*
X177280500Y-86387314D01*
X177346392Y-86273186D01*
X177380500Y-86145892D01*
X177380500Y-86014108D01*
X177346392Y-85886814D01*
X177346390Y-85886810D01*
X177329747Y-85857983D01*
X177329746Y-85857982D01*
X177305976Y-85816812D01*
X177298641Y-85804108D01*
X189549500Y-85804108D01*
X189549500Y-85935892D01*
X189563278Y-85987313D01*
X189583608Y-86063187D01*
X189616554Y-86120250D01*
X189649500Y-86177314D01*
X189742686Y-86270500D01*
X189856814Y-86336392D01*
X189984108Y-86370500D01*
X189984110Y-86370500D01*
X190115890Y-86370500D01*
X190115892Y-86370500D01*
X190243186Y-86336392D01*
X190357314Y-86270500D01*
X190450500Y-86177314D01*
X190516392Y-86063186D01*
X190550500Y-85935892D01*
X190550500Y-85804108D01*
X190516392Y-85676814D01*
X190450500Y-85562686D01*
X190357314Y-85469500D01*
X190300250Y-85436554D01*
X190243187Y-85403608D01*
X190127782Y-85372686D01*
X190115892Y-85369500D01*
X189984108Y-85369500D01*
X189856812Y-85403608D01*
X189742686Y-85469500D01*
X189742683Y-85469502D01*
X189649502Y-85562683D01*
X189649500Y-85562686D01*
X189583608Y-85676812D01*
X189557920Y-85772683D01*
X189549500Y-85804108D01*
X177298641Y-85804108D01*
X177280500Y-85772686D01*
X177187314Y-85679500D01*
X177130250Y-85646554D01*
X177073187Y-85613608D01*
X177000410Y-85594108D01*
X176945892Y-85579500D01*
X176814108Y-85579500D01*
X176686812Y-85613608D01*
X176572686Y-85679500D01*
X176572683Y-85679502D01*
X176479502Y-85772683D01*
X176479500Y-85772686D01*
X176413608Y-85886812D01*
X176392038Y-85967314D01*
X176379500Y-86014108D01*
X163010500Y-86014108D01*
X163010500Y-85944108D01*
X162976392Y-85816814D01*
X162910500Y-85702686D01*
X162817314Y-85609500D01*
X162736225Y-85562683D01*
X162703187Y-85543608D01*
X162639539Y-85526554D01*
X162575892Y-85509500D01*
X162444108Y-85509500D01*
X162316812Y-85543608D01*
X162202686Y-85609500D01*
X162202683Y-85609502D01*
X162109502Y-85702683D01*
X162109500Y-85702686D01*
X162043608Y-85816812D01*
X162024565Y-85887883D01*
X162009500Y-85944108D01*
X143333898Y-85944108D01*
X143380618Y-85863187D01*
X143386391Y-85853188D01*
X143386392Y-85853186D01*
X143420500Y-85725892D01*
X143420500Y-85594108D01*
X143386392Y-85466814D01*
X143320500Y-85352686D01*
X143227314Y-85259500D01*
X143147827Y-85213608D01*
X143113187Y-85193608D01*
X143049334Y-85176499D01*
X142985892Y-85159500D01*
X142854108Y-85159500D01*
X142726812Y-85193608D01*
X142612686Y-85259500D01*
X142612683Y-85259502D01*
X142519502Y-85352683D01*
X142519500Y-85352686D01*
X142453608Y-85466812D01*
X142433031Y-85543608D01*
X142419500Y-85594108D01*
X138827821Y-85594108D01*
X138796392Y-85476814D01*
X138790618Y-85466814D01*
X138754126Y-85403608D01*
X138730500Y-85362686D01*
X138637314Y-85269500D01*
X138580250Y-85236554D01*
X138523187Y-85203608D01*
X138459539Y-85186554D01*
X138395892Y-85169500D01*
X138264108Y-85169500D01*
X138136812Y-85203608D01*
X138022686Y-85269500D01*
X138022683Y-85269502D01*
X137929502Y-85362683D01*
X137929500Y-85362686D01*
X137863608Y-85476812D01*
X137848527Y-85533096D01*
X137829500Y-85604108D01*
X136697821Y-85604108D01*
X136666392Y-85486814D01*
X136660618Y-85476814D01*
X136654844Y-85466812D01*
X136600500Y-85372686D01*
X136507314Y-85279500D01*
X136450250Y-85246554D01*
X136393187Y-85213608D01*
X136318544Y-85193608D01*
X136265892Y-85179500D01*
X136134108Y-85179500D01*
X136006812Y-85213608D01*
X135892686Y-85279500D01*
X135892683Y-85279502D01*
X135799502Y-85372683D01*
X135799500Y-85372686D01*
X135733608Y-85486812D01*
X135718390Y-85543608D01*
X135699500Y-85614108D01*
X118039186Y-85614108D01*
X118039549Y-85613608D01*
X118098045Y-85533096D01*
X118115187Y-85509500D01*
X118117287Y-85506610D01*
X118210220Y-85324219D01*
X118273477Y-85129534D01*
X118305500Y-84927352D01*
X118305500Y-84722648D01*
X118273477Y-84520466D01*
X118273476Y-84520462D01*
X118273476Y-84520461D01*
X118229234Y-84384299D01*
X118222939Y-84364927D01*
X118219424Y-84354108D01*
X154169500Y-84354108D01*
X154169500Y-84485892D01*
X154178764Y-84520465D01*
X154203608Y-84613187D01*
X154236554Y-84670250D01*
X154269500Y-84727314D01*
X154362686Y-84820500D01*
X154476814Y-84886392D01*
X154604108Y-84920500D01*
X154604110Y-84920500D01*
X154735890Y-84920500D01*
X154735892Y-84920500D01*
X154863186Y-84886392D01*
X154977314Y-84820500D01*
X155070500Y-84727314D01*
X155136392Y-84613186D01*
X155170500Y-84485892D01*
X155170500Y-84354108D01*
X155136392Y-84226814D01*
X155070500Y-84112686D01*
X154977314Y-84019500D01*
X154920250Y-83986554D01*
X154863187Y-83953608D01*
X154799539Y-83936554D01*
X154735892Y-83919500D01*
X154604108Y-83919500D01*
X154476812Y-83953608D01*
X154362686Y-84019500D01*
X154362683Y-84019502D01*
X154269502Y-84112683D01*
X154269500Y-84112686D01*
X154203608Y-84226812D01*
X154177091Y-84325776D01*
X154169500Y-84354108D01*
X118219424Y-84354108D01*
X118210220Y-84325781D01*
X118117287Y-84143390D01*
X118109556Y-84132749D01*
X117996971Y-83977786D01*
X117852213Y-83833028D01*
X117686613Y-83712715D01*
X117686612Y-83712714D01*
X117686610Y-83712713D01*
X117629653Y-83683691D01*
X117504223Y-83619781D01*
X117309534Y-83556522D01*
X117125371Y-83527354D01*
X117107352Y-83524500D01*
X116902648Y-83524500D01*
X116890709Y-83526391D01*
X116700465Y-83556522D01*
X116505776Y-83619781D01*
X116323386Y-83712715D01*
X116157786Y-83833028D01*
X116013028Y-83977786D01*
X115892715Y-84143386D01*
X115799781Y-84325776D01*
X115736522Y-84520465D01*
X115704500Y-84722648D01*
X108145499Y-84722648D01*
X108145499Y-83920734D01*
X108142646Y-83890300D01*
X108097793Y-83762117D01*
X108061331Y-83712713D01*
X108017150Y-83652849D01*
X107943123Y-83598215D01*
X107907883Y-83572207D01*
X107907881Y-83572206D01*
X107779701Y-83527353D01*
X107749270Y-83524500D01*
X105940739Y-83524500D01*
X105926751Y-83525811D01*
X105910300Y-83527354D01*
X105910297Y-83527354D01*
X105910296Y-83527355D01*
X105910294Y-83527355D01*
X105782117Y-83572206D01*
X105672849Y-83652849D01*
X105592206Y-83762118D01*
X105547353Y-83890297D01*
X105547353Y-83890299D01*
X105544500Y-83920729D01*
X88800500Y-83920729D01*
X88800500Y-82544108D01*
X133819500Y-82544108D01*
X133819500Y-82675892D01*
X133836554Y-82739539D01*
X133853608Y-82803187D01*
X133884569Y-82856812D01*
X133919500Y-82917314D01*
X134012686Y-83010500D01*
X134126814Y-83076392D01*
X134254108Y-83110500D01*
X134254110Y-83110500D01*
X134385890Y-83110500D01*
X134385892Y-83110500D01*
X134513186Y-83076392D01*
X134627314Y-83010500D01*
X134653706Y-82984108D01*
X141789500Y-82984108D01*
X141789500Y-83115892D01*
X141806554Y-83179539D01*
X141823608Y-83243187D01*
X141829382Y-83253187D01*
X141889500Y-83357314D01*
X141982686Y-83450500D01*
X142096814Y-83516392D01*
X142224108Y-83550500D01*
X142224110Y-83550500D01*
X142355890Y-83550500D01*
X142355892Y-83550500D01*
X142483186Y-83516392D01*
X142597314Y-83450500D01*
X142690500Y-83357314D01*
X142756392Y-83243186D01*
X142790500Y-83115892D01*
X142790500Y-82994108D01*
X151109500Y-82994108D01*
X151109500Y-83125891D01*
X151143608Y-83253187D01*
X151176554Y-83310250D01*
X151209500Y-83367314D01*
X151302686Y-83460500D01*
X151392834Y-83512547D01*
X151413538Y-83524501D01*
X151416814Y-83526392D01*
X151544108Y-83560500D01*
X151544110Y-83560500D01*
X151675890Y-83560500D01*
X151675892Y-83560500D01*
X151803186Y-83526392D01*
X151917314Y-83460500D01*
X152010500Y-83367314D01*
X152076392Y-83253186D01*
X152110500Y-83125892D01*
X152110500Y-82994108D01*
X152076392Y-82866814D01*
X152070618Y-82856814D01*
X152067563Y-82851521D01*
X152010500Y-82752686D01*
X151917314Y-82659500D01*
X151860250Y-82626554D01*
X151803187Y-82593608D01*
X151739539Y-82576554D01*
X151675892Y-82559500D01*
X151544108Y-82559500D01*
X151416812Y-82593608D01*
X151302686Y-82659500D01*
X151302683Y-82659502D01*
X151209502Y-82752683D01*
X151209500Y-82752686D01*
X151143608Y-82866812D01*
X151109500Y-82994108D01*
X142790500Y-82994108D01*
X142790500Y-82984108D01*
X142756392Y-82856814D01*
X142690500Y-82742686D01*
X142597314Y-82649500D01*
X142540250Y-82616554D01*
X142483187Y-82583608D01*
X142419539Y-82566554D01*
X142355892Y-82549500D01*
X142224108Y-82549500D01*
X142096812Y-82583608D01*
X141982686Y-82649500D01*
X141982683Y-82649502D01*
X141889502Y-82742683D01*
X141889500Y-82742686D01*
X141823608Y-82856812D01*
X141789500Y-82984108D01*
X134653706Y-82984108D01*
X134720500Y-82917314D01*
X134786392Y-82803186D01*
X134820500Y-82675892D01*
X134820500Y-82544108D01*
X134786392Y-82416814D01*
X134722132Y-82305513D01*
X207399500Y-82305513D01*
X207399500Y-82494486D01*
X207429059Y-82681118D01*
X207487454Y-82860836D01*
X207550265Y-82984108D01*
X207573240Y-83029199D01*
X207684310Y-83182073D01*
X207817927Y-83315690D01*
X207970801Y-83426760D01*
X208017388Y-83450497D01*
X208139163Y-83512545D01*
X208139165Y-83512545D01*
X208139168Y-83512547D01*
X208235497Y-83543846D01*
X208318881Y-83570940D01*
X208505514Y-83600500D01*
X208505519Y-83600500D01*
X208694486Y-83600500D01*
X208881118Y-83570940D01*
X209060832Y-83512547D01*
X209229199Y-83426760D01*
X209382073Y-83315690D01*
X209515690Y-83182073D01*
X209626760Y-83029199D01*
X209712547Y-82860832D01*
X209770940Y-82681118D01*
X209774364Y-82659500D01*
X209800500Y-82494486D01*
X209800500Y-82305513D01*
X209770940Y-82118881D01*
X209716229Y-81950500D01*
X209712547Y-81939168D01*
X209712545Y-81939165D01*
X209712545Y-81939163D01*
X209626759Y-81770800D01*
X209515690Y-81617927D01*
X209382073Y-81484310D01*
X209229199Y-81373240D01*
X209060836Y-81287454D01*
X208881118Y-81229059D01*
X208694486Y-81199500D01*
X208694481Y-81199500D01*
X208505519Y-81199500D01*
X208505514Y-81199500D01*
X208318881Y-81229059D01*
X208139163Y-81287454D01*
X207970800Y-81373240D01*
X207883579Y-81436610D01*
X207817927Y-81484310D01*
X207817925Y-81484312D01*
X207817924Y-81484312D01*
X207684312Y-81617924D01*
X207684312Y-81617925D01*
X207684310Y-81617927D01*
X207636610Y-81683579D01*
X207573240Y-81770800D01*
X207487454Y-81939163D01*
X207429059Y-82118881D01*
X207399500Y-82305513D01*
X134722132Y-82305513D01*
X134720500Y-82302686D01*
X134627314Y-82209500D01*
X134570250Y-82176554D01*
X134513187Y-82143608D01*
X134420906Y-82118882D01*
X134385892Y-82109500D01*
X134254108Y-82109500D01*
X134126812Y-82143608D01*
X134012686Y-82209500D01*
X134012683Y-82209502D01*
X133919502Y-82302683D01*
X133919500Y-82302686D01*
X133853608Y-82416812D01*
X133832797Y-82494481D01*
X133819500Y-82544108D01*
X88800500Y-82544108D01*
X88800500Y-81384108D01*
X126759500Y-81384108D01*
X126759500Y-81515891D01*
X126793608Y-81643187D01*
X126826554Y-81700250D01*
X126859500Y-81757314D01*
X126952686Y-81850500D01*
X127066814Y-81916392D01*
X127194108Y-81950500D01*
X127194110Y-81950500D01*
X127325890Y-81950500D01*
X127325892Y-81950500D01*
X127453186Y-81916392D01*
X127567314Y-81850500D01*
X127660500Y-81757314D01*
X127726392Y-81643186D01*
X127760500Y-81515892D01*
X127760500Y-81384108D01*
X127726392Y-81256814D01*
X127660500Y-81142686D01*
X127567314Y-81049500D01*
X127510250Y-81016554D01*
X127454053Y-80984108D01*
X158779500Y-80984108D01*
X158779500Y-81115892D01*
X158791452Y-81160497D01*
X158813608Y-81243187D01*
X158823604Y-81260500D01*
X158879500Y-81357314D01*
X158972686Y-81450500D01*
X159071521Y-81507563D01*
X159085944Y-81515890D01*
X159086814Y-81516392D01*
X159214108Y-81550500D01*
X159214110Y-81550500D01*
X159345890Y-81550500D01*
X159345892Y-81550500D01*
X159473186Y-81516392D01*
X159587314Y-81450500D01*
X159680500Y-81357314D01*
X159746392Y-81243186D01*
X159780500Y-81115892D01*
X159780500Y-80984108D01*
X159746392Y-80856814D01*
X159680500Y-80742686D01*
X159587314Y-80649500D01*
X159512649Y-80606392D01*
X159473187Y-80583608D01*
X159405602Y-80565499D01*
X159345892Y-80549500D01*
X159214108Y-80549500D01*
X159086812Y-80583608D01*
X158972686Y-80649500D01*
X158972683Y-80649502D01*
X158879502Y-80742683D01*
X158879500Y-80742686D01*
X158813608Y-80856812D01*
X158788773Y-80949500D01*
X158779500Y-80984108D01*
X127454053Y-80984108D01*
X127453187Y-80983608D01*
X127389539Y-80966554D01*
X127325892Y-80949500D01*
X127194108Y-80949500D01*
X127066812Y-80983608D01*
X126952686Y-81049500D01*
X126952683Y-81049502D01*
X126859502Y-81142683D01*
X126859500Y-81142686D01*
X126793608Y-81256812D01*
X126759500Y-81384108D01*
X88800500Y-81384108D01*
X88800500Y-80694108D01*
X107349500Y-80694108D01*
X107349500Y-80825892D01*
X107366554Y-80889539D01*
X107383608Y-80953187D01*
X107401172Y-80983608D01*
X107449500Y-81067314D01*
X107542686Y-81160500D01*
X107656814Y-81226392D01*
X107784108Y-81260500D01*
X107784110Y-81260500D01*
X107915890Y-81260500D01*
X107915892Y-81260500D01*
X108043186Y-81226392D01*
X108157314Y-81160500D01*
X108250500Y-81067314D01*
X108316392Y-80953186D01*
X108350500Y-80825892D01*
X108350500Y-80694108D01*
X108316392Y-80566814D01*
X108315633Y-80565500D01*
X108306396Y-80549500D01*
X108250500Y-80452686D01*
X108157314Y-80359500D01*
X108077410Y-80313367D01*
X108077409Y-80313366D01*
X108043188Y-80293609D01*
X108043187Y-80293608D01*
X108043186Y-80293608D01*
X107915892Y-80259500D01*
X107784108Y-80259500D01*
X107656812Y-80293608D01*
X107542686Y-80359500D01*
X107542683Y-80359502D01*
X107449502Y-80452683D01*
X107449500Y-80452686D01*
X107383608Y-80566812D01*
X107361452Y-80649502D01*
X107349500Y-80694108D01*
X88800500Y-80694108D01*
X88800500Y-80214108D01*
X118382000Y-80214108D01*
X118382000Y-80345892D01*
X118389080Y-80372314D01*
X118416108Y-80473187D01*
X118449054Y-80530250D01*
X118482000Y-80587314D01*
X118575186Y-80680500D01*
X118689314Y-80746392D01*
X118816608Y-80780500D01*
X118816610Y-80780500D01*
X118948390Y-80780500D01*
X118948392Y-80780500D01*
X119075686Y-80746392D01*
X119189814Y-80680500D01*
X119283000Y-80587314D01*
X119348892Y-80473186D01*
X119383000Y-80345892D01*
X119383000Y-80214108D01*
X119348892Y-80086814D01*
X119341556Y-80074108D01*
X134699500Y-80074108D01*
X134699500Y-80205892D01*
X134701702Y-80214110D01*
X134733608Y-80333187D01*
X134756200Y-80372316D01*
X134799500Y-80447314D01*
X134892686Y-80540500D01*
X135006814Y-80606392D01*
X135134108Y-80640500D01*
X135134110Y-80640500D01*
X135265890Y-80640500D01*
X135265892Y-80640500D01*
X135393186Y-80606392D01*
X135507314Y-80540500D01*
X135600500Y-80447314D01*
X135666392Y-80333186D01*
X135700500Y-80205892D01*
X135700500Y-80074108D01*
X135680404Y-79999108D01*
X137544500Y-79999108D01*
X137544500Y-80130891D01*
X137578608Y-80258187D01*
X137610466Y-80313366D01*
X137644500Y-80372314D01*
X137737686Y-80465500D01*
X137851814Y-80531392D01*
X137979108Y-80565500D01*
X137979110Y-80565500D01*
X138110890Y-80565500D01*
X138110892Y-80565500D01*
X138238186Y-80531392D01*
X138352314Y-80465500D01*
X138445500Y-80372314D01*
X138511392Y-80258186D01*
X138545500Y-80130892D01*
X138545500Y-79999108D01*
X138511392Y-79871814D01*
X138445500Y-79757686D01*
X138352314Y-79664500D01*
X138253269Y-79607316D01*
X138238187Y-79598608D01*
X138174539Y-79581554D01*
X138110892Y-79564500D01*
X137979108Y-79564500D01*
X137851812Y-79598608D01*
X137737686Y-79664500D01*
X137737683Y-79664502D01*
X137644502Y-79757683D01*
X137644500Y-79757686D01*
X137578608Y-79871812D01*
X137544500Y-79999108D01*
X135680404Y-79999108D01*
X135666392Y-79946814D01*
X135600500Y-79832686D01*
X135507314Y-79739500D01*
X135439764Y-79700500D01*
X135393187Y-79673608D01*
X135329539Y-79656554D01*
X135265892Y-79639500D01*
X135134108Y-79639500D01*
X135006812Y-79673608D01*
X134892686Y-79739500D01*
X134892683Y-79739502D01*
X134799502Y-79832683D01*
X134799500Y-79832686D01*
X134733608Y-79946812D01*
X134719596Y-79999108D01*
X134699500Y-80074108D01*
X119341556Y-80074108D01*
X119283000Y-79972686D01*
X119189814Y-79879500D01*
X119108725Y-79832683D01*
X119075687Y-79813608D01*
X119012039Y-79796554D01*
X118948392Y-79779500D01*
X118816608Y-79779500D01*
X118689312Y-79813608D01*
X118575186Y-79879500D01*
X118575183Y-79879502D01*
X118482002Y-79972683D01*
X118482000Y-79972686D01*
X118416108Y-80086812D01*
X118404297Y-80130892D01*
X118382000Y-80214108D01*
X88800500Y-80214108D01*
X88800500Y-79234108D01*
X95089500Y-79234108D01*
X95089500Y-79365891D01*
X95123608Y-79493187D01*
X95156554Y-79550250D01*
X95189500Y-79607314D01*
X95282686Y-79700500D01*
X95396814Y-79766392D01*
X95524108Y-79800500D01*
X95524110Y-79800500D01*
X95655890Y-79800500D01*
X95655892Y-79800500D01*
X95783186Y-79766392D01*
X95897314Y-79700500D01*
X95990500Y-79607314D01*
X96056392Y-79493186D01*
X96090500Y-79365892D01*
X96090500Y-79234108D01*
X96056392Y-79106814D01*
X95990500Y-78992686D01*
X95897314Y-78899500D01*
X95840250Y-78866554D01*
X95783187Y-78833608D01*
X95719539Y-78816554D01*
X95655892Y-78799500D01*
X95524108Y-78799500D01*
X95396812Y-78833608D01*
X95282686Y-78899500D01*
X95282683Y-78899502D01*
X95189502Y-78992683D01*
X95189500Y-78992686D01*
X95123608Y-79106812D01*
X95089500Y-79234108D01*
X88800500Y-79234108D01*
X88800500Y-75523389D01*
X91114500Y-75523389D01*
X91114500Y-75696611D01*
X91120439Y-75734108D01*
X91138143Y-75845892D01*
X91141598Y-75867701D01*
X91195127Y-76032445D01*
X91273768Y-76186788D01*
X91375586Y-76326928D01*
X91498072Y-76449414D01*
X91638212Y-76551232D01*
X91792555Y-76629873D01*
X91957299Y-76683402D01*
X92128389Y-76710500D01*
X92128390Y-76710500D01*
X92301610Y-76710500D01*
X92301611Y-76710500D01*
X92472701Y-76683402D01*
X92637445Y-76629873D01*
X92791788Y-76551232D01*
X92931928Y-76449414D01*
X93054414Y-76326928D01*
X93156232Y-76186788D01*
X93234873Y-76032445D01*
X93288402Y-75867701D01*
X93315500Y-75696611D01*
X93315500Y-75523389D01*
X98114500Y-75523389D01*
X98114500Y-75696611D01*
X98120439Y-75734108D01*
X98138143Y-75845892D01*
X98141598Y-75867701D01*
X98195127Y-76032445D01*
X98273768Y-76186788D01*
X98375586Y-76326928D01*
X98498072Y-76449414D01*
X98638212Y-76551232D01*
X98792555Y-76629873D01*
X98957299Y-76683402D01*
X99128389Y-76710500D01*
X99128390Y-76710500D01*
X99301610Y-76710500D01*
X99301611Y-76710500D01*
X99472701Y-76683402D01*
X99637445Y-76629873D01*
X99791788Y-76551232D01*
X99931928Y-76449414D01*
X100054414Y-76326928D01*
X100156232Y-76186788D01*
X100234873Y-76032445D01*
X100288402Y-75867701D01*
X100309561Y-75734108D01*
X124999500Y-75734108D01*
X124999500Y-75865891D01*
X125033608Y-75993187D01*
X125044785Y-76012545D01*
X125099500Y-76107314D01*
X125192686Y-76200500D01*
X125306814Y-76266392D01*
X125434108Y-76300500D01*
X125434110Y-76300500D01*
X125565890Y-76300500D01*
X125565892Y-76300500D01*
X125693186Y-76266392D01*
X125807314Y-76200500D01*
X125900500Y-76107314D01*
X125966392Y-75993186D01*
X126000500Y-75865892D01*
X126000500Y-75734108D01*
X129479500Y-75734108D01*
X129479500Y-75865891D01*
X129513608Y-75993187D01*
X129524785Y-76012545D01*
X129579500Y-76107314D01*
X129672686Y-76200500D01*
X129786814Y-76266392D01*
X129914108Y-76300500D01*
X129914110Y-76300500D01*
X130045890Y-76300500D01*
X130045892Y-76300500D01*
X130173186Y-76266392D01*
X130287314Y-76200500D01*
X130380500Y-76107314D01*
X130446392Y-75993186D01*
X130480500Y-75865892D01*
X130480500Y-75734108D01*
X130475141Y-75714108D01*
X140759500Y-75714108D01*
X140759500Y-75845892D01*
X140773588Y-75898469D01*
X140793608Y-75973187D01*
X140816332Y-76012545D01*
X140859500Y-76087314D01*
X140952686Y-76180500D01*
X141066814Y-76246392D01*
X141194108Y-76280500D01*
X141194110Y-76280500D01*
X141325890Y-76280500D01*
X141325892Y-76280500D01*
X141453186Y-76246392D01*
X141567314Y-76180500D01*
X141660500Y-76087314D01*
X141726392Y-75973186D01*
X141760500Y-75845892D01*
X141760500Y-75734108D01*
X148669500Y-75734108D01*
X148669500Y-75865891D01*
X148703608Y-75993187D01*
X148714785Y-76012545D01*
X148769500Y-76107314D01*
X148862686Y-76200500D01*
X148976814Y-76266392D01*
X149104108Y-76300500D01*
X149104110Y-76300500D01*
X149235890Y-76300500D01*
X149235892Y-76300500D01*
X149363186Y-76266392D01*
X149477314Y-76200500D01*
X149570500Y-76107314D01*
X149636392Y-75993186D01*
X149670500Y-75865892D01*
X149670500Y-75734108D01*
X149636392Y-75606814D01*
X149570500Y-75492686D01*
X149477314Y-75399500D01*
X149395560Y-75352299D01*
X149363187Y-75333608D01*
X149288544Y-75313608D01*
X149235892Y-75299500D01*
X149104108Y-75299500D01*
X148976812Y-75333608D01*
X148862686Y-75399500D01*
X148862683Y-75399502D01*
X148769502Y-75492683D01*
X148769500Y-75492686D01*
X148703608Y-75606812D01*
X148669500Y-75734108D01*
X141760500Y-75734108D01*
X141760500Y-75714108D01*
X141726392Y-75586814D01*
X141660500Y-75472686D01*
X141567314Y-75379500D01*
X141487827Y-75333608D01*
X141453187Y-75313608D01*
X141387061Y-75295890D01*
X141325892Y-75279500D01*
X141194108Y-75279500D01*
X141066812Y-75313608D01*
X140952686Y-75379500D01*
X140952683Y-75379502D01*
X140859502Y-75472683D01*
X140859500Y-75472686D01*
X140793608Y-75586812D01*
X140764188Y-75696611D01*
X140759500Y-75714108D01*
X130475141Y-75714108D01*
X130446392Y-75606814D01*
X130380500Y-75492686D01*
X130287314Y-75399500D01*
X130205560Y-75352299D01*
X130173187Y-75333608D01*
X130098544Y-75313608D01*
X130045892Y-75299500D01*
X129914108Y-75299500D01*
X129786812Y-75333608D01*
X129672686Y-75399500D01*
X129672683Y-75399502D01*
X129579502Y-75492683D01*
X129579500Y-75492686D01*
X129513608Y-75606812D01*
X129479500Y-75734108D01*
X126000500Y-75734108D01*
X125966392Y-75606814D01*
X125900500Y-75492686D01*
X125807314Y-75399500D01*
X125725560Y-75352299D01*
X125693187Y-75333608D01*
X125618544Y-75313608D01*
X125565892Y-75299500D01*
X125434108Y-75299500D01*
X125306812Y-75333608D01*
X125192686Y-75399500D01*
X125192683Y-75399502D01*
X125099502Y-75492683D01*
X125099500Y-75492686D01*
X125033608Y-75606812D01*
X124999500Y-75734108D01*
X100309561Y-75734108D01*
X100315500Y-75696611D01*
X100315500Y-75523389D01*
X100288402Y-75352299D01*
X100234873Y-75187555D01*
X100234871Y-75187552D01*
X100234871Y-75187550D01*
X100222927Y-75164108D01*
X120219500Y-75164108D01*
X120219500Y-75295891D01*
X120253608Y-75423187D01*
X120282185Y-75472683D01*
X120319500Y-75537314D01*
X120412686Y-75630500D01*
X120526814Y-75696392D01*
X120654108Y-75730500D01*
X120654110Y-75730500D01*
X120785890Y-75730500D01*
X120785892Y-75730500D01*
X120913186Y-75696392D01*
X121027314Y-75630500D01*
X121120500Y-75537314D01*
X121186392Y-75423186D01*
X121220500Y-75295892D01*
X121220500Y-75164108D01*
X121186392Y-75036814D01*
X121174548Y-75016300D01*
X158074500Y-75016300D01*
X158074500Y-77183699D01*
X158100222Y-77346095D01*
X158103814Y-77368776D01*
X158161721Y-77546993D01*
X158239604Y-77699849D01*
X158246794Y-77713959D01*
X158246795Y-77713962D01*
X158265488Y-77739690D01*
X158356938Y-77865559D01*
X158489441Y-77998062D01*
X158575025Y-78060243D01*
X158641037Y-78108204D01*
X158641038Y-78108204D01*
X158641042Y-78108207D01*
X158808007Y-78193279D01*
X158865314Y-78211899D01*
X158922987Y-78251335D01*
X158950186Y-78315694D01*
X158938272Y-78384540D01*
X158914676Y-78417509D01*
X158879503Y-78452682D01*
X158879500Y-78452686D01*
X158813608Y-78566812D01*
X158779500Y-78694108D01*
X158779500Y-78825892D01*
X158796554Y-78889539D01*
X158813608Y-78953187D01*
X158836413Y-78992686D01*
X158879500Y-79067314D01*
X158972686Y-79160500D01*
X159086814Y-79226392D01*
X159214108Y-79260500D01*
X159214110Y-79260500D01*
X159345890Y-79260500D01*
X159345892Y-79260500D01*
X159473186Y-79226392D01*
X159587314Y-79160500D01*
X159680500Y-79067314D01*
X159746392Y-78953186D01*
X159780500Y-78825892D01*
X159780500Y-78694108D01*
X159746392Y-78566814D01*
X159680500Y-78452686D01*
X159637967Y-78410153D01*
X159604482Y-78348830D01*
X159609466Y-78279138D01*
X159651338Y-78223205D01*
X159687328Y-78204542D01*
X159721993Y-78193279D01*
X159888958Y-78108207D01*
X160040559Y-77998062D01*
X160173062Y-77865559D01*
X160283207Y-77713958D01*
X160368279Y-77546993D01*
X160426186Y-77368776D01*
X160450539Y-77215019D01*
X160455500Y-77183699D01*
X160455500Y-75016300D01*
X163074500Y-75016300D01*
X163074500Y-77183699D01*
X163100222Y-77346095D01*
X163103814Y-77368776D01*
X163161721Y-77546993D01*
X163239604Y-77699849D01*
X163246794Y-77713959D01*
X163246795Y-77713962D01*
X163265488Y-77739690D01*
X163356938Y-77865559D01*
X163489441Y-77998062D01*
X163575025Y-78060243D01*
X163641037Y-78108204D01*
X163641038Y-78108204D01*
X163641042Y-78108207D01*
X163808007Y-78193279D01*
X163986224Y-78251186D01*
X164078765Y-78265843D01*
X164171301Y-78280500D01*
X164171306Y-78280500D01*
X164358699Y-78280500D01*
X164442822Y-78267175D01*
X164543776Y-78251186D01*
X164721993Y-78193279D01*
X164888958Y-78108207D01*
X165040559Y-77998062D01*
X165173062Y-77865559D01*
X165283207Y-77713958D01*
X165368279Y-77546993D01*
X165426186Y-77368776D01*
X165450539Y-77215019D01*
X165455500Y-77183699D01*
X165455500Y-75016300D01*
X165435981Y-74893069D01*
X165426186Y-74831224D01*
X165368279Y-74653007D01*
X165283207Y-74486042D01*
X165283204Y-74486038D01*
X165283204Y-74486037D01*
X165249147Y-74439163D01*
X165173062Y-74334441D01*
X165040559Y-74201938D01*
X164900594Y-74100247D01*
X168074500Y-74100247D01*
X168074500Y-78099752D01*
X168086131Y-78158229D01*
X168086132Y-78158230D01*
X168130447Y-78224552D01*
X168196769Y-78268867D01*
X168196770Y-78268868D01*
X168255247Y-78280499D01*
X168255250Y-78280500D01*
X168255252Y-78280500D01*
X170274750Y-78280500D01*
X170274751Y-78280499D01*
X170292550Y-78276959D01*
X170333229Y-78268868D01*
X170333229Y-78268867D01*
X170333231Y-78268867D01*
X170399552Y-78224552D01*
X170443867Y-78158231D01*
X170443867Y-78158229D01*
X170443868Y-78158229D01*
X170455499Y-78099752D01*
X170455500Y-78099750D01*
X170455500Y-74228031D01*
X175669500Y-74228031D01*
X175669500Y-74282351D01*
X175669500Y-74571969D01*
X175677481Y-74653002D01*
X175703210Y-74914249D01*
X175770308Y-75251572D01*
X175870150Y-75580706D01*
X175932197Y-75730500D01*
X176000284Y-75894878D01*
X176001770Y-75898464D01*
X176001772Y-75898469D01*
X176163893Y-76201775D01*
X176163904Y-76201793D01*
X176354975Y-76487751D01*
X176354985Y-76487765D01*
X176573176Y-76753632D01*
X176816367Y-76996823D01*
X176816372Y-76996827D01*
X176816373Y-76996828D01*
X177082240Y-77215019D01*
X177368213Y-77406100D01*
X177368222Y-77406105D01*
X177368224Y-77406106D01*
X177671530Y-77568227D01*
X177671532Y-77568227D01*
X177671538Y-77568231D01*
X177989295Y-77699850D01*
X178318422Y-77799690D01*
X178655750Y-77866789D01*
X178998031Y-77900500D01*
X178998034Y-77900500D01*
X179341966Y-77900500D01*
X179341969Y-77900500D01*
X179684250Y-77866789D01*
X180021578Y-77799690D01*
X180350705Y-77699850D01*
X180668462Y-77568231D01*
X180971787Y-77406100D01*
X181257760Y-77215019D01*
X181523627Y-76996828D01*
X181766828Y-76753627D01*
X181985019Y-76487760D01*
X182176100Y-76201787D01*
X182338231Y-75898462D01*
X182469850Y-75580705D01*
X182569690Y-75251578D01*
X182636789Y-74914250D01*
X182670500Y-74571969D01*
X182670500Y-74228031D01*
X182667930Y-74201938D01*
X182665488Y-74177140D01*
X182664591Y-74168031D01*
X192479500Y-74168031D01*
X192479500Y-74222351D01*
X192479500Y-74511969D01*
X192487198Y-74590127D01*
X192513210Y-74854249D01*
X192580308Y-75191572D01*
X192680150Y-75520706D01*
X192760260Y-75714108D01*
X192810284Y-75834878D01*
X192811770Y-75838464D01*
X192811772Y-75838469D01*
X192973893Y-76141775D01*
X192973904Y-76141793D01*
X193164975Y-76427751D01*
X193164985Y-76427765D01*
X193383176Y-76693632D01*
X193626367Y-76936823D01*
X193626372Y-76936827D01*
X193626373Y-76936828D01*
X193892240Y-77155019D01*
X194178213Y-77346100D01*
X194178222Y-77346105D01*
X194178224Y-77346106D01*
X194481530Y-77508227D01*
X194481532Y-77508227D01*
X194481538Y-77508231D01*
X194799295Y-77639850D01*
X195128422Y-77739690D01*
X195465750Y-77806789D01*
X195808031Y-77840500D01*
X195808034Y-77840500D01*
X196151966Y-77840500D01*
X196151969Y-77840500D01*
X196494250Y-77806789D01*
X196831578Y-77739690D01*
X197160705Y-77639850D01*
X197478462Y-77508231D01*
X197781787Y-77346100D01*
X198067760Y-77155019D01*
X198333627Y-76936828D01*
X198576828Y-76693627D01*
X198795019Y-76427760D01*
X198986100Y-76141787D01*
X199148231Y-75838462D01*
X199279850Y-75520705D01*
X199379690Y-75191578D01*
X199446789Y-74854250D01*
X199449057Y-74831224D01*
X199451590Y-74805513D01*
X207399500Y-74805513D01*
X207399500Y-74994486D01*
X207429059Y-75181118D01*
X207487454Y-75360836D01*
X207554634Y-75492683D01*
X207573240Y-75529199D01*
X207684310Y-75682073D01*
X207817927Y-75815690D01*
X207970801Y-75926760D01*
X208050347Y-75967290D01*
X208139163Y-76012545D01*
X208139165Y-76012545D01*
X208139168Y-76012547D01*
X208200414Y-76032447D01*
X208318881Y-76070940D01*
X208505514Y-76100500D01*
X208505519Y-76100500D01*
X208694486Y-76100500D01*
X208881118Y-76070940D01*
X209060832Y-76012547D01*
X209229199Y-75926760D01*
X209382073Y-75815690D01*
X209515690Y-75682073D01*
X209626760Y-75529199D01*
X209712547Y-75360832D01*
X209770940Y-75181118D01*
X209792732Y-75043528D01*
X209800500Y-74994486D01*
X209800500Y-74805513D01*
X209770940Y-74618881D01*
X209712545Y-74439163D01*
X209659185Y-74334439D01*
X209626760Y-74270801D01*
X209515690Y-74117927D01*
X209382073Y-73984310D01*
X209229199Y-73873240D01*
X209060836Y-73787454D01*
X208881118Y-73729059D01*
X208694486Y-73699500D01*
X208694481Y-73699500D01*
X208505519Y-73699500D01*
X208505514Y-73699500D01*
X208318881Y-73729059D01*
X208139163Y-73787454D01*
X207970800Y-73873240D01*
X207883579Y-73936610D01*
X207817927Y-73984310D01*
X207817925Y-73984312D01*
X207817924Y-73984312D01*
X207684312Y-74117924D01*
X207684312Y-74117925D01*
X207684310Y-74117927D01*
X207647907Y-74168031D01*
X207573240Y-74270800D01*
X207487454Y-74439163D01*
X207429059Y-74618881D01*
X207399500Y-74805513D01*
X199451590Y-74805513D01*
X199453266Y-74788493D01*
X199453266Y-74788492D01*
X199478074Y-74536597D01*
X199480500Y-74511969D01*
X199480500Y-74168031D01*
X199446789Y-73825750D01*
X199379690Y-73488422D01*
X199279850Y-73159295D01*
X199148231Y-72841538D01*
X199138154Y-72822686D01*
X198986106Y-72538224D01*
X198986105Y-72538222D01*
X198986100Y-72538213D01*
X198795019Y-72252240D01*
X198576828Y-71986373D01*
X198576827Y-71986372D01*
X198576823Y-71986367D01*
X198333632Y-71743176D01*
X198067765Y-71524985D01*
X198067764Y-71524984D01*
X198067760Y-71524981D01*
X197781787Y-71333900D01*
X197781782Y-71333897D01*
X197781775Y-71333893D01*
X197478469Y-71171772D01*
X197478464Y-71171770D01*
X197160706Y-71040150D01*
X196831572Y-70940308D01*
X196494248Y-70873210D01*
X196494249Y-70873210D01*
X196236456Y-70847821D01*
X196151969Y-70839500D01*
X195808031Y-70839500D01*
X195729966Y-70847188D01*
X195465750Y-70873210D01*
X195128427Y-70940308D01*
X194799293Y-71040150D01*
X194481535Y-71171770D01*
X194481530Y-71171772D01*
X194178224Y-71333893D01*
X194178206Y-71333904D01*
X193892248Y-71524975D01*
X193892234Y-71524985D01*
X193626367Y-71743176D01*
X193383176Y-71986367D01*
X193164985Y-72252234D01*
X193164975Y-72252248D01*
X192973904Y-72538206D01*
X192973893Y-72538224D01*
X192811772Y-72841530D01*
X192811770Y-72841535D01*
X192680150Y-73159293D01*
X192580308Y-73488427D01*
X192513210Y-73825750D01*
X192497594Y-73984312D01*
X192479500Y-74168031D01*
X182664591Y-74168031D01*
X182636789Y-73885750D01*
X182569691Y-73548427D01*
X182569690Y-73548426D01*
X182569690Y-73548422D01*
X182469850Y-73219295D01*
X182338231Y-72901538D01*
X182333767Y-72893187D01*
X182176106Y-72598224D01*
X182176105Y-72598222D01*
X182176100Y-72598213D01*
X181985019Y-72312240D01*
X181766828Y-72046373D01*
X181766827Y-72046372D01*
X181766823Y-72046367D01*
X181523632Y-71803176D01*
X181257765Y-71584985D01*
X181257764Y-71584984D01*
X181257760Y-71584981D01*
X180971787Y-71393900D01*
X180971782Y-71393897D01*
X180971775Y-71393893D01*
X180668469Y-71231772D01*
X180668464Y-71231770D01*
X180350706Y-71100150D01*
X180021572Y-71000308D01*
X179684248Y-70933210D01*
X179684249Y-70933210D01*
X179426456Y-70907821D01*
X179341969Y-70899500D01*
X178998031Y-70899500D01*
X178919966Y-70907188D01*
X178655750Y-70933210D01*
X178318427Y-71000308D01*
X177989293Y-71100150D01*
X177671535Y-71231770D01*
X177671530Y-71231772D01*
X177368224Y-71393893D01*
X177368206Y-71393904D01*
X177082248Y-71584975D01*
X177082234Y-71584985D01*
X176816367Y-71803176D01*
X176573176Y-72046367D01*
X176354985Y-72312234D01*
X176354975Y-72312248D01*
X176163904Y-72598206D01*
X176163893Y-72598224D01*
X176001772Y-72901530D01*
X176001770Y-72901535D01*
X175870150Y-73219293D01*
X175770308Y-73548427D01*
X175703210Y-73885750D01*
X175687039Y-74049949D01*
X175669500Y-74228031D01*
X170455500Y-74228031D01*
X170455500Y-74100249D01*
X170455499Y-74100247D01*
X170443868Y-74041770D01*
X170443867Y-74041769D01*
X170399552Y-73975447D01*
X170333230Y-73931132D01*
X170333229Y-73931131D01*
X170274752Y-73919500D01*
X170274748Y-73919500D01*
X168255252Y-73919500D01*
X168255247Y-73919500D01*
X168196770Y-73931131D01*
X168196769Y-73931132D01*
X168130447Y-73975447D01*
X168086132Y-74041769D01*
X168086131Y-74041770D01*
X168074500Y-74100247D01*
X164900594Y-74100247D01*
X164888958Y-74091793D01*
X164721993Y-74006721D01*
X164543776Y-73948814D01*
X164543770Y-73948813D01*
X164358699Y-73919500D01*
X164358694Y-73919500D01*
X164171306Y-73919500D01*
X164171301Y-73919500D01*
X163986229Y-73948813D01*
X163986227Y-73948813D01*
X163986224Y-73948814D01*
X163808007Y-74006721D01*
X163808004Y-74006722D01*
X163808002Y-74006723D01*
X163641040Y-74091794D01*
X163641037Y-74091795D01*
X163536110Y-74168031D01*
X163489441Y-74201938D01*
X163489439Y-74201940D01*
X163489438Y-74201940D01*
X163356940Y-74334438D01*
X163356940Y-74334439D01*
X163356938Y-74334441D01*
X163329302Y-74372477D01*
X163246795Y-74486037D01*
X163246794Y-74486040D01*
X163161723Y-74653002D01*
X163161722Y-74653004D01*
X163161721Y-74653007D01*
X163103814Y-74831224D01*
X163103813Y-74831227D01*
X163103813Y-74831229D01*
X163074500Y-75016300D01*
X160455500Y-75016300D01*
X160435981Y-74893069D01*
X160426186Y-74831224D01*
X160368279Y-74653007D01*
X160283207Y-74486042D01*
X160283204Y-74486038D01*
X160283204Y-74486037D01*
X160249147Y-74439163D01*
X160173062Y-74334441D01*
X160040559Y-74201938D01*
X159983502Y-74160484D01*
X159888962Y-74091795D01*
X159888959Y-74091794D01*
X159888960Y-74091794D01*
X159888958Y-74091793D01*
X159721993Y-74006721D01*
X159543776Y-73948814D01*
X159543770Y-73948813D01*
X159358699Y-73919500D01*
X159358694Y-73919500D01*
X159171306Y-73919500D01*
X159171301Y-73919500D01*
X158986229Y-73948813D01*
X158986227Y-73948813D01*
X158986224Y-73948814D01*
X158808007Y-74006721D01*
X158808004Y-74006722D01*
X158808002Y-74006723D01*
X158641040Y-74091794D01*
X158641037Y-74091795D01*
X158536110Y-74168031D01*
X158489441Y-74201938D01*
X158489439Y-74201940D01*
X158489438Y-74201940D01*
X158356940Y-74334438D01*
X158356940Y-74334439D01*
X158356938Y-74334441D01*
X158329302Y-74372477D01*
X158246795Y-74486037D01*
X158246794Y-74486040D01*
X158161723Y-74653002D01*
X158161722Y-74653004D01*
X158161721Y-74653007D01*
X158103814Y-74831224D01*
X158103813Y-74831227D01*
X158103813Y-74831229D01*
X158074500Y-75016300D01*
X121174548Y-75016300D01*
X121120500Y-74922686D01*
X121027314Y-74829500D01*
X120925276Y-74770588D01*
X120913187Y-74763608D01*
X120849539Y-74746554D01*
X120785892Y-74729500D01*
X120654108Y-74729500D01*
X120526812Y-74763608D01*
X120412686Y-74829500D01*
X120412683Y-74829502D01*
X120319502Y-74922683D01*
X120319500Y-74922686D01*
X120253608Y-75036812D01*
X120219500Y-75164108D01*
X100222927Y-75164108D01*
X100158066Y-75036812D01*
X100156232Y-75033212D01*
X100054414Y-74893072D01*
X99931928Y-74770586D01*
X99791788Y-74668768D01*
X99637445Y-74590127D01*
X99472701Y-74536598D01*
X99472699Y-74536597D01*
X99472698Y-74536597D01*
X99341271Y-74515781D01*
X99301611Y-74509500D01*
X99128389Y-74509500D01*
X99088728Y-74515781D01*
X98957302Y-74536597D01*
X98792552Y-74590128D01*
X98638211Y-74668768D01*
X98558256Y-74726859D01*
X98498072Y-74770586D01*
X98498070Y-74770588D01*
X98498069Y-74770588D01*
X98375588Y-74893069D01*
X98375588Y-74893070D01*
X98375586Y-74893072D01*
X98354070Y-74922686D01*
X98273768Y-75033211D01*
X98195128Y-75187552D01*
X98195127Y-75187554D01*
X98195127Y-75187555D01*
X98168362Y-75269927D01*
X98141597Y-75352302D01*
X98121336Y-75480229D01*
X98114500Y-75523389D01*
X93315500Y-75523389D01*
X93288402Y-75352299D01*
X93234873Y-75187555D01*
X93156232Y-75033212D01*
X93054414Y-74893072D01*
X92931928Y-74770586D01*
X92791788Y-74668768D01*
X92637445Y-74590127D01*
X92472701Y-74536598D01*
X92472699Y-74536597D01*
X92472698Y-74536597D01*
X92341271Y-74515781D01*
X92301611Y-74509500D01*
X92128389Y-74509500D01*
X92088728Y-74515781D01*
X91957302Y-74536597D01*
X91792552Y-74590128D01*
X91638211Y-74668768D01*
X91558256Y-74726859D01*
X91498072Y-74770586D01*
X91498070Y-74770588D01*
X91498069Y-74770588D01*
X91375588Y-74893069D01*
X91375588Y-74893070D01*
X91375586Y-74893072D01*
X91354070Y-74922686D01*
X91273768Y-75033211D01*
X91195128Y-75187552D01*
X91195127Y-75187554D01*
X91195127Y-75187555D01*
X91168362Y-75269927D01*
X91141597Y-75352302D01*
X91121336Y-75480229D01*
X91114500Y-75523389D01*
X88800500Y-75523389D01*
X88800500Y-73064108D01*
X108789500Y-73064108D01*
X108789500Y-73195892D01*
X108790735Y-73200500D01*
X108823608Y-73323187D01*
X108848415Y-73366153D01*
X108889500Y-73437314D01*
X108982686Y-73530500D01*
X109096814Y-73596392D01*
X109224108Y-73630500D01*
X109224110Y-73630500D01*
X109355890Y-73630500D01*
X109355892Y-73630500D01*
X109483186Y-73596392D01*
X109597314Y-73530500D01*
X109690500Y-73437314D01*
X109756392Y-73323186D01*
X109790500Y-73195892D01*
X109790500Y-73064108D01*
X109777103Y-73014108D01*
X124939500Y-73014108D01*
X124939500Y-73145892D01*
X124944993Y-73166391D01*
X124973608Y-73273187D01*
X125002476Y-73323186D01*
X125039500Y-73387314D01*
X125132686Y-73480500D01*
X125246814Y-73546392D01*
X125374108Y-73580500D01*
X125374110Y-73580500D01*
X125505890Y-73580500D01*
X125505892Y-73580500D01*
X125633186Y-73546392D01*
X125747314Y-73480500D01*
X125840500Y-73387314D01*
X125906392Y-73273186D01*
X125940500Y-73145892D01*
X125940500Y-73014108D01*
X125906392Y-72886814D01*
X125840500Y-72772686D01*
X125747314Y-72679500D01*
X125690250Y-72646554D01*
X125634053Y-72614108D01*
X132979500Y-72614108D01*
X132979500Y-72745892D01*
X132996554Y-72809539D01*
X133013608Y-72873187D01*
X133029972Y-72901530D01*
X133079500Y-72987314D01*
X133172686Y-73080500D01*
X133271521Y-73137563D01*
X133285944Y-73145890D01*
X133286814Y-73146392D01*
X133414108Y-73180500D01*
X133414110Y-73180500D01*
X133545890Y-73180500D01*
X133545892Y-73180500D01*
X133673186Y-73146392D01*
X133787314Y-73080500D01*
X133880500Y-72987314D01*
X133946392Y-72873186D01*
X133980500Y-72745892D01*
X133980500Y-72634108D01*
X144139500Y-72634108D01*
X144139500Y-72765892D01*
X144154717Y-72822683D01*
X144173608Y-72893187D01*
X144198797Y-72936814D01*
X144239500Y-73007314D01*
X144332686Y-73100500D01*
X144446814Y-73166392D01*
X144574108Y-73200500D01*
X144574110Y-73200500D01*
X144705890Y-73200500D01*
X144705892Y-73200500D01*
X144833186Y-73166392D01*
X144947314Y-73100500D01*
X145040500Y-73007314D01*
X145106392Y-72893186D01*
X145140500Y-72765892D01*
X145140500Y-72634108D01*
X145106392Y-72506814D01*
X145040500Y-72392686D01*
X144947314Y-72299500D01*
X144890250Y-72266554D01*
X144833187Y-72233608D01*
X144758544Y-72213608D01*
X144705892Y-72199500D01*
X144574108Y-72199500D01*
X144446812Y-72233608D01*
X144332686Y-72299500D01*
X144332683Y-72299502D01*
X144239502Y-72392683D01*
X144239500Y-72392686D01*
X144173608Y-72506812D01*
X144154132Y-72579500D01*
X144139500Y-72634108D01*
X133980500Y-72634108D01*
X133980500Y-72614108D01*
X133946392Y-72486814D01*
X133880500Y-72372686D01*
X133787314Y-72279500D01*
X133707827Y-72233608D01*
X133673187Y-72213608D01*
X133609539Y-72196554D01*
X133545892Y-72179500D01*
X133414108Y-72179500D01*
X133286812Y-72213608D01*
X133172686Y-72279500D01*
X133172683Y-72279502D01*
X133079502Y-72372683D01*
X133079500Y-72372686D01*
X133013608Y-72486812D01*
X132999833Y-72538224D01*
X132979500Y-72614108D01*
X125634053Y-72614108D01*
X125633187Y-72613608D01*
X125569539Y-72596554D01*
X125505892Y-72579500D01*
X125374108Y-72579500D01*
X125246812Y-72613608D01*
X125132686Y-72679500D01*
X125132683Y-72679502D01*
X125039502Y-72772683D01*
X125039500Y-72772686D01*
X124973608Y-72886812D01*
X124955433Y-72954643D01*
X124939500Y-73014108D01*
X109777103Y-73014108D01*
X109756392Y-72936814D01*
X109690500Y-72822686D01*
X109597314Y-72729500D01*
X109540250Y-72696554D01*
X109483187Y-72663608D01*
X109419539Y-72646554D01*
X109355892Y-72629500D01*
X109224108Y-72629500D01*
X109096812Y-72663608D01*
X108982686Y-72729500D01*
X108982683Y-72729502D01*
X108889502Y-72822683D01*
X108889500Y-72822686D01*
X108823608Y-72936812D01*
X108810076Y-72987316D01*
X108789500Y-73064108D01*
X88800500Y-73064108D01*
X88800500Y-70694500D01*
X88820185Y-70627461D01*
X88872989Y-70581706D01*
X88924500Y-70570500D01*
X218165500Y-70570500D01*
X218232539Y-70590185D01*
G37*
%TD.AperFunction*%
%TD*%
M02*
